<svg height="960" viewBox="0 0 960 960" width="960" xmlns="http://www.w3.org/2000/svg"><path d="m522.71443 1.06785061c28.596387 1.66773142 48.978268 3.46265855 61.945534 5.5385382 13.576373 2.17338912 29.673803 6.32518329 48.611646 12.42949639l-.61961-.1988852 1.262977.3922581c6.566918 2.0717433 13.000598 4.5218908 19.271528 7.3355654l1.444236.6557559c33.413657 15.351473 56.832175 33.8678062 74.421956 63.34749 19.227108 32.2237686 29.045636 75.1328036 30.811666 133.9169196 1.907742 63.50117 2.861501 127.806764 2.861494 192.941291l-.005024 8.203398c-.000315.259044-.000604.516698-.000864.773169l-.000698.766069c-.000102.127155-.000198.254067-.000286.380759l.000013 4.511176c.000275.3755.000622.751822.001042 1.129661l.000936.757909c.010515 7.730182.051574 16.279972.137761 31.506468.087076 15.383664.142017 27.481929.14447 37.964259l.000086 3.728228c0 7.64062-.035121 14.474433-.096906 21.220666l-.012346 1.304823-.013128 1.303793c-.009014.869111-.018552 1.738308-.028626 2.609138l-.015512 1.307662c-.034482 2.836756-.074659 5.698911-.120845 8.639507-1.243061 79.143373-3.925305 137.355262-8.870484 182.773826-5.980033 54.923087-15.252729 92.232934-31.552456 116.472131-35.746378 53.158159-91.567641 89.441063-154.913012 97.647696l-132.496624 17.162455c-19.733241 2.556332-39.485478 1.619352-58.524549-2.649947l-.114805-.026126-.016588-.000237c-2.791488-.197386-5.603989-.692726-8.398239-1.507343l-.644485-.193666c-16.078682-4.976262-27.957671-9.106794-36.22684-12.687383-6.481618-2.806571-12.934446-5.946348-19.466856-9.41642-2.648303-1.406801-4.98362-2.677357-7.301912-3.978246l-.817996-.460668c-4.77314-2.697742-9.621704-5.607128-17.128495-10.181863-17.644523-10.7528-37.757273-27.168987-60.941465-49.422111-2.283935-2.192213-4.267216-4.613631-5.935152-7.204314l-.189972-.298749-.137456-.163154c-13.832542-16.531025-23.238376-37.669222-29.152105-69.83693l-.200253-1.100909c-4.173262-23.188662-7.448054-52.693772-9.91777-85.489427-.058332-.774599-.116099-1.550413-.173281-2.3269l-.113576-1.553711-.111979-1.554544-.164894-2.33127-.107826-1.552413-.106101-1.549876-.10434-1.546375c-1.258606-18.789034-2.118077-36.587083-2.283732-45.590746-1.694339-92.090612-2.5618-157.825518-2.602633-197.37365v-7.247669c.07484-45.454117 13.908251-259.556977 17.635933-279.780777 16.138209-87.554666 92.312511-149.1534373 184.397213-153.39302872l129.754246-5.97343931c4.21583-.19767946 8.423892-.24468175 12.618551-.15272067l.037003.0015397c1.411756-.06815315 2.836786-.06181735 4.27143.02185061zm50.613629 50.38737209-129.696742 6.2029628c-72.810834 3.4825692-133.986114 52.9080115-146.834211 125.3232575-2.715294 15.304105-16.886269 232.884002-16.965807 283.070024v7.452272c.040554 40.7283.90516 108.794581 2.594767 204.198844.260853 14.729153 3.743586 92.144427 12.45228 142.41575 6.462729 37.306386 17.063211 50.905897 24.720914 59.007793 16.058646 16.99014 36.610301 29.47016 59.449146 35.740487l.124773-.440042c15.9871 4.39892 33.096378 5.757755 50.571337 3.493971l132.497138-17.162521c45.979206-5.956781 85.586657-29.857355 113.731861-62.968724 4.570749-5.411976 8.837044-11.06722 12.776198-16.928529 24.025359-35.748807 31.357904-134.37319 33.606054-277.592374.649653-41.3864-.044896-80.442619 0-117.340309l.004999-8.18031c0-64.721166-.9474-128.635378-2.842201-191.742635-3.314571-110.39338-36.49666-141.2620946-81.914642-162.140996-19.492723-8.9609146-41.366356-13.5046398-64.275864-12.4089213zm-178.914901-5.0902125-16.540444.76329c-72.843148 3.3537079-134.045578 50.9503185-146.899378 120.6860688-2.716498 14.737825-16.893762 224.26687-16.973336 272.595917v7.176524c.040572 39.221279.905562 104.768984 2.595919 196.643115.260968 14.184147 3.745247 88.734915 12.457806 137.146108 6.303423 35.024863 16.541376 48.350944 24.149959 56.227035l-.203684.604201c13.22066 12.689723 25.186206 23.174569 35.896638 31.454538-5.859794-11.823965-10.324185-26.499548-13.724782-46.129643-4.016169-23.183511-7.217111-53.14467-9.635252-86.504063-.074779-1.031613-.148614-2.065339-.221459-3.099927l-.162214-2.328752c-.017834-.258795-.035604-.517585-.053309-.776351l-.105451-1.552149-.102608-1.531734c-.016971-.255115-.033876-.510131-.050714-.765029l-.100227-1.527817c-1.275869-19.584924-2.149485-38.245877-2.31142-47.389615-1.708568-96.474901-2.574646-165.041295-2.597903-205.778811v-6.258147c.072889-45.974514 13.825093-267.096921 17.273352-286.532212 11.417084-64.34968 57.060779-113.7598622 117.308507-133.1225468zm116.557444 44.3286932c40.498691 0 72.724669 37.0471866 72.724669 82.1086746 0 45.061487-32.225978 82.108674-72.724669 82.108674s-72.724668-37.047187-72.724668-82.108674c0-45.061488 32.225977-82.1086746 72.724668-82.1086746zm0 19.9999996c-28.785064 0-52.724668 27.52112-52.724668 62.108675 0 34.587554 23.939604 62.108674 52.724668 62.108674 28.785065 0 52.724669-27.52112 52.724669-62.108674 0-34.587555-23.939604-62.108675-52.724669-62.108675zm8.313282 49.944712.695413 26.221808c.146417 5.520906-4.210468 10.115179-9.731374 10.261596-5.520906.146416-10.115179-4.210468-10.261596-9.731375l-.695413-26.221807c-.146417-5.520906 4.210468-10.115179 9.731374-10.261596 5.520906-.146416 10.115179 4.210468 10.261596 9.731374z"/></svg>