<?xml version="1.0" encoding="UTF-8"?>
<svg width="960px" height="960px" viewBox="0 0 960 960" version="1.1" xmlns="http://www.w3.org/2000/svg" xmlns:xlink="http://www.w3.org/1999/xlink">
    <title>com.ikea/drivers/RODRET/assets/pair</title>
    <style type="text/css">
        #pair {
            animation: fillpulse 4s infinite;
        }
        
        @keyframes fillpulse {
            0%, 15%, 35%, 55%, 75%, 100% {
                fill: rgba(255,255,255,0);
            }
            25%, 45%, 65%, 85% {
                fill: #0078CC;
            }
        }
    </style>
    <g id="com.ikea/drivers/RODRET" stroke="none" stroke-width="1" fill="none" fill-rule="evenodd">
        <path d="M536.999622,79 C540.313331,79 542.999622,81.6862915 542.999622,85 L542.999045,91.5957748 C520.96453,90.8999772 501.463332,90.5499854 484.499794,90.5499854 C464.518809,90.5499854 441.019249,91.0353144 414.001017,92 L414,85 C414,81.6862915 416.686292,79 420,79 L536.999622,79 Z" id="Combined-Shape" stroke="#000000" stroke-width="10" stroke-linecap="round" stroke-linejoin="round"></path>
        <path d="M611.080544,724 C611.080544,724 618.80889,714.326868 624.168916,693.528424 C625.510493,688.322717 626.877929,680.744097 628.271224,670.792563 C628.33459,670.339975 628.685757,669.660425 628.816448,669.598497 C628.988805,669.516825 629.166333,669.432822 629.349151,669.346434 C643.840104,662.498947 654,646.546487 654,627.959751 C654,603.129166 635.867532,583 613.5,583 C591.132468,583 573,603.129166 573,627.959751 C573,645.444045 581.990405,660.597291 595.119254,668.033246 C595.152408,668.052023 595.514647,668.198436 595.64273,668.510607 C595.761321,668.799641 595.647847,669.255106 595.64273,669.295733 C594.237077,680.455974 592.745806,688.533538 591.168916,693.528424 C585.032307,712.966468 576,724 576,724" id="Path" stroke="#000000" stroke-width="10" stroke-linecap="round" stroke-linejoin="round"></path>
        <path d="M382.90245,50.5622653 C423.163833,48.8540884 456.95571,48 484.278082,48 C510.580402,48 542.878179,48.7915059 581.171415,50.3745176 L581.171426,50.3742386 C659.468164,53.6074245 722.056894,116.633557 724.77041,194.976767 C728.923597,315.129096 731,410.303511 731,480.5 C731,550.679081 728.924627,645.869811 724.77388,766.072189 L724.773386,766.072172 C722.058578,844.474206 659.381724,907.525914 581.022993,910.682298 C542.682657,912.227361 510.434356,913 484.278082,913 C457.114924,913 423.381686,912.166731 383.078368,910.500192 L383.078353,910.500553 C306.455556,907.336691 244.58218,846.821282 239.693883,770.263017 C231.897999,648.188524 228,551.600854 228,480.5 C228,409.381707 231.899911,312.811277 239.699733,190.788709 L239.699319,190.788683 C244.585153,114.301263 306.354323,53.8162828 382.90247,50.5627472 L382.90245,50.5622653 Z" id="Rectangle" stroke="#000000" stroke-width="20" stroke-linecap="round" stroke-linejoin="round"></path>
        <path d="M484.276953,90 C509.33823,90 539.943906,90.7383002 576.079951,92.2018415 L579.423517,92.3383926 C607.605604,93.502277 632.960724,105.428313 651.514499,124.113888 C670.068273,142.799462 681.820701,168.244576 682.797301,196.44367 C686.882499,314.642581 688.95411,408.545697 689,478.139381 L689,482.863776 C688.954508,551.657962 686.930195,644.228598 682.939836,760.566266 L682.800364,764.604694 C681.823198,792.827909 670.054678,818.288213 651.479349,836.976773 C632.90402,855.665333 607.521883,867.582149 579.316753,868.718416 C542.756127,870.191927 511.832644,870.956319 486.546099,871 L481.954152,871 C456.426732,870.955041 425.154835,870.175647 388.149126,868.674203 L384.824619,868.538376 C357.24505,867.399446 332.31993,855.937794 313.849829,837.871 C295.379729,819.804206 283.364648,795.132272 281.605127,767.572319 C273.967579,647.963493 270.08484,553.049596 270,482.85485 L270,478.14324 C270.084426,408.708749 273.883182,315.169478 281.353137,197.528695 L281.61052,193.482017 C283.369125,165.948026 295.365008,141.29432 313.809416,123.231308 C332.253824,105.168297 357.146755,93.6959815 384.69678,92.5248853 C424.245083,90.8462962 457.438398,90 484.276953,90 Z" id="Rectangle-Copy" stroke="#000000" stroke-width="10" stroke-linecap="round" stroke-linejoin="round"></path>
        <path d="M504,157 L504,184 L555,184 L555,745 L402,745 L402,184 L453,184 L453,157 L504,157 Z" id="Combined-Shape" stroke="#000000" stroke-width="10" stroke-linecap="round" stroke-linejoin="round"></path>
        <ellipse id="pair" fill="#0074CC" cx="613.5" cy="628" rx="35.5" ry="40.5"></ellipse>
        <g id="Group" transform="translate(613, 630) rotate(-90) translate(-613, -630)translate(590, 614)" fill="#000000" fill-rule="nonzero" stroke="#000000" stroke-width="2.4">
            <path d="M13.4995489,29.6681201 C11.2560206,30.5167251 8.77211418,30.3470041 6.76896386,29.3286781 C4.68568752,28.3103522 3.00304125,26.4434212 2.20178112,24.0673273 L2.20178112,24.0673273 C1.40052099,21.6912334 1.56077302,19.060558 2.52228517,16.9390456 C3.48379733,14.7326727 5.24656961,12.9506023 7.49009797,12.1019973 C9.97400437,11.1685318 12.4579108,10.2350664 14.9418172,9.2167404 C17.1853455,8.36813543 19.6692519,8.53785643 21.6724023,9.55618239 C23.7556786,10.5745083 25.4383249,12.4414393 26.239585,14.8175332 L26.239585,14.8175332 L26.239585,14.9023937 L27.0408451,14.4780912 L27.8421053,14.1386492 C26.8805931,11.2533923 24.7973168,9.04701941 22.3935364,7.85897245 C19.90963,6.6709255 17.1052195,6.41634401 14.3809351,7.43466997 C11.8970287,8.36813543 9.41312228,9.3016009 6.92921588,10.3199269 C4.20493144,11.3382528 2.12165511,13.5446257 0.999890924,16.0904406 C-0.121873257,18.6362555 -0.362251296,21.6063729 0.59926086,24.4916298 L0.679386873,24.6613508 C1.64089903,27.5466077 3.72417536,29.7529806 6.12795575,30.9410275 C8.61186215,32.1290745 11.4162726,32.383656 14.140557,31.36533 L21.5922763,28.4800731 L21.0313942,26.7828632 L13.4995489,29.6681201 Z" id="Path"></path>
            <path d="M45.4007391,7.5083702 L45.4007391,7.33864921 C44.439227,4.45339232 42.3559506,2.24701941 39.9521703,1.05897245 C37.4682639,-0.129074501 34.6638534,-0.383655991 31.939569,0.634669969 L24.4878498,3.51992686 L25.0487319,5.21713679 L32.5004511,2.3318799 C34.7439794,1.48327494 37.2278858,1.65299593 39.2310361,2.67132189 C41.3143125,3.68964785 42.9969588,5.55657878 43.7982189,7.93267268 L43.7982189,7.93267268 C44.599479,10.3087666 44.439227,12.939442 43.4777148,15.0609544 C42.5162027,17.2673273 40.7534304,19.0493977 38.509902,19.8980027 C36.0259956,20.9163287 33.5420892,21.8497941 31.0581828,22.7832596 C28.8146545,23.6318646 26.4108741,23.4621436 24.3275977,22.4438176 C22.2443214,21.4254917 20.5616751,19.5585607 19.760415,17.1824668 L19.760415,17.1824668 L19.760415,17.0976063 L18.9591549,17.5219088 L18.1578947,17.8613508 C19.1194069,20.7466077 21.2026832,22.9529806 23.6064636,24.1410275 C26.09037,25.3290745 28.8947805,25.583656 31.6190649,24.56533 L39.0707841,21.6800731 C41.7950686,20.6617472 43.8783449,18.4553743 45.0001091,15.9095594 C46.1218733,13.278884 46.3622513,10.3087666 45.4007391,7.5083702 Z" id="Path"></path>
        </g>
    </g>
</svg>