<?xml version="1.0" encoding="UTF-8"?>
<svg width="960px" height="960px" viewBox="0 0 960 960" version="1.1" xmlns="http://www.w3.org/2000/svg" xmlns:xlink="http://www.w3.org/1999/xlink">
    <title>com.ikea/drivers/VALLHORN/assets/pair</title>
    <style type="text/css">
        #pair {
            animation: press 6s infinite;
        }

        @keyframes press {
            0%, 10%, 20%, 30%, 40%, 100% {
                fill: rgba(0,0,0,0);
            }
            5%, 15%, 25%, 35% {
                fill: #0074CC;
            }
        }
    </style>
    <g id="com.ikea/drivers/VALLHORN" stroke="none" stroke-width="1" fill="none" fill-rule="evenodd">
        <path d="M624.223938,31 C766.574799,31 881.972973,146.398174 881.972973,288.749035 L881.972973,672.250965 C881.972973,814.601826 766.574799,930 624.223938,930 L335.749035,930 C193.398174,930 78,814.601826 78,672.250965 L78,288.749035 C78,146.398174 193.398174,31 335.749035,31 L624.223938,31 Z M624.223938,51 L335.749035,51 C204.443869,51 98,157.443869 98,288.749035 L98,672.250965 C98,803.556131 204.443869,910 335.749035,910 L624.223938,910 C755.529104,910 861.972973,803.556131 861.972973,672.250965 L861.972973,288.749035 C861.972973,157.443869 755.529104,51 624.223938,51 Z" id="Rectangle" fill="#000000" fill-rule="nonzero"></path>
        <path d="M624.223938,69.9382239 C683.04191,69.9382239 738.179634,93.2595145 778.946546,134.026427 C819.713458,174.793339 843.034749,229.931063 843.034749,288.749035 L843.034749,672.250965 C843.034749,731.068937 819.713458,786.206661 778.946546,826.973573 C738.179634,867.740485 683.04191,891.061776 624.223938,891.061776 L335.749035,891.061776 C276.931063,891.061776 221.793339,867.740485 181.026427,826.973573 C140.259515,786.206661 116.938224,731.068937 116.938224,672.250965 L116.938224,288.749035 C116.938224,229.931063 140.259515,174.793339 181.026427,134.026427 C221.793339,93.2595145 276.931063,69.9382239 335.749035,69.9382239 L624.223938,69.9382239 Z M624.223938,79.9382239 L335.749035,79.9382239 C279.610488,79.9382239 227.007634,102.187355 188.097494,141.097494 C149.187355,180.007634 126.938224,232.610488 126.938224,288.749035 L126.938224,672.250965 C126.938224,728.389512 149.187355,780.992366 188.097494,819.902506 C227.007634,858.812645 279.610488,881.061776 335.749035,881.061776 L624.223938,881.061776 C680.362485,881.061776 732.965339,858.812645 771.875479,819.902506 C810.785618,780.992366 833.034749,728.389512 833.034749,672.250965 L833.034749,288.749035 C833.034749,232.610488 810.785618,180.007634 771.875479,141.097494 C732.965339,102.187355 680.362485,79.9382239 624.223938,79.9382239 Z" id="Rectangle" fill="#000000" fill-rule="nonzero"></path>
        <path d="M612.436293,205.69112 C652.684844,205.69112 685.312741,238.319017 685.312741,278.567568 L685.312741,794.428571 C685.312741,834.677122 652.684844,867.305019 612.436293,867.305019 L347.718147,867.305019 C307.469596,867.305019 274.841699,834.677122 274.841699,794.428571 L274.841699,278.567568 C274.841699,238.319017 307.469596,205.69112 347.718147,205.69112 L612.436293,205.69112 Z M612.436293,215.69112 L347.718147,215.69112 C312.992443,215.69112 284.841699,243.841864 284.841699,278.567568 L284.841699,794.428571 C284.841699,829.154275 312.992443,857.305019 347.718147,857.305019 L612.436293,857.305019 C647.161997,857.305019 675.312741,829.154275 675.312741,794.428571 L675.312741,278.567568 C675.312741,243.841864 647.161997,215.69112 612.436293,215.69112 Z" id="Rectangle" fill="#000000" fill-rule="nonzero"></path>
        <path d="M756.673745,331.262548 C792.236405,331.262548 821.065637,360.09178 821.065637,395.65444 L821.065637,568.739382 C821.065637,604.302042 792.236405,633.131274 756.673745,633.131274 C721.111085,633.131274 692.281853,604.302042 692.281853,568.739382 L692.281853,395.65444 C692.281853,360.09178 721.111085,331.262548 756.673745,331.262548 Z M756.673745,341.262548 C726.633933,341.262548 702.281853,365.614628 702.281853,395.65444 L702.281853,568.739382 C702.281853,598.779195 726.633933,623.131274 756.673745,623.131274 C786.713558,623.131274 811.065637,598.779195 811.065637,568.739382 L811.065637,395.65444 C811.065637,365.614628 786.713558,341.262548 756.673745,341.262548 Z" id="Rectangle" fill="#000000" fill-rule="nonzero"></path>
        <path d="M203.480695,331.262548 C239.043355,331.262548 267.872587,360.09178 267.872587,395.65444 L267.872587,568.739382 C267.872587,604.302042 239.043355,633.131274 203.480695,633.131274 C167.918035,633.131274 139.088803,604.302042 139.088803,568.739382 L139.088803,395.65444 C139.088803,360.09178 167.918035,331.262548 203.480695,331.262548 Z M203.480695,341.262548 C173.440883,341.262548 149.088803,365.614628 149.088803,395.65444 L149.088803,568.739382 C149.088803,598.779195 173.440883,623.131274 203.480695,623.131274 C233.520507,623.131274 257.872587,598.779195 257.872587,568.739382 L257.872587,395.65444 C257.872587,365.614628 233.520507,341.262548 203.480695,341.262548 Z" id="Rectangle" fill="#000000" fill-rule="nonzero"></path>
        <circle id="pair" fill="#0074CC" cx="479.632677" cy="393.134608" r="35.6751485"></circle>
        <path d="M479.632677,352.459459 C502.096942,352.459459 520.307826,370.670344 520.307826,393.134608 C520.307826,415.598872 502.096942,433.809756 479.632677,433.809756 C457.168413,433.809756 438.957529,415.598872 438.957529,393.134608 C438.957529,370.670344 457.168413,352.459459 479.632677,352.459459 Z M479.632677,362.459459 C462.691261,362.459459 448.957529,376.193191 448.957529,393.134608 C448.957529,410.076025 462.691261,423.809756 479.632677,423.809756 C496.574094,423.809756 510.307826,410.076025 510.307826,393.134608 C510.307826,376.193191 496.574094,362.459459 479.632677,362.459459 Z" id="Oval" fill="#000000" fill-rule="nonzero"></path>
        <path d="M479.632677,559.762415 C502.096942,559.762415 520.307826,577.973299 520.307826,600.437564 C520.307826,622.901828 502.096942,641.112712 479.632677,641.112712 C457.168413,641.112712 438.957529,622.901828 438.957529,600.437564 C438.957529,577.973299 457.168413,559.762415 479.632677,559.762415 Z M479.632677,569.762415 C462.691261,569.762415 448.957529,583.496147 448.957529,600.437564 C448.957529,617.37898 462.691261,631.112712 479.632677,631.112712 C496.574094,631.112712 510.307826,617.37898 510.307826,600.437564 C510.307826,583.496147 496.574094,569.762415 479.632677,569.762415 Z" id="Oval" fill="#000000" fill-rule="nonzero"></path>
        <path d="M479.632677,668.109162 C502.096942,668.109162 520.307826,686.320047 520.307826,708.784311 C520.307826,731.248575 502.096942,749.459459 479.632677,749.459459 C457.168413,749.459459 438.957529,731.248575 438.957529,708.784311 C438.957529,686.320047 457.168413,668.109162 479.632677,668.109162 Z M479.632677,678.109162 C462.691261,678.109162 448.957529,691.842894 448.957529,708.784311 C448.957529,725.725728 462.691261,739.459459 479.632677,739.459459 C496.574094,739.459459 510.307826,725.725728 510.307826,708.784311 C510.307826,691.842894 496.574094,678.109162 479.632677,678.109162 Z" id="Oval" fill="#000000" fill-rule="nonzero"></path>
        <path d="M629.405405,283.749035 C632.166829,283.749035 634.405405,285.987611 634.405405,288.749035 L634.40449,300.718035 L656.555985,300.718147 C659.244739,300.718147 661.437803,302.840453 661.551365,305.501257 L661.555985,305.718147 L661.555985,784.247104 C661.555985,787.008528 659.317408,789.247104 656.555985,789.247104 L551.34749,789.247104 C548.586067,789.247104 546.34749,787.008528 546.34749,784.247104 L546.34749,305.718147 C546.34749,302.956723 548.586067,300.718147 551.34749,300.718147 L573.49749,300.718035 L573.498069,288.749035 C573.498069,286.06028 575.620376,283.867217 578.28118,283.749035 L578.498069,283.749035 L629.405405,283.749035 Z M624.40449,293.749035 L583.49749,293.749035 L583.498069,305.718147 C583.498069,308.406901 581.375763,310.599965 578.714959,310.713527 L578.498069,310.718147 L556.34749,310.718035 L556.34749,779.247035 L651.55549,779.247035 L651.55549,310.718035 L629.405405,310.718147 C626.716651,310.718147 624.523587,308.59584 624.410025,305.935036 L624.405405,305.718147 L624.40449,293.749035 Z" id="Path" fill="#000000" fill-rule="nonzero"></path>
        <path d="M412.200772,300.718147 C414.962196,300.718147 417.200772,302.956723 417.200772,305.718147 L417.200772,784.247104 C417.200772,787.008528 414.962196,789.247104 412.200772,789.247104 L390.049278,789.246147 L390.050193,801.216216 C390.050193,803.904971 387.927886,806.098034 385.267083,806.216216 L385.050193,806.216216 L334.142857,806.216216 C331.381433,806.216216 329.142857,803.97764 329.142857,801.216216 L329.142278,789.246147 L306.992278,789.247104 C304.303523,789.247104 302.11046,787.124798 301.996898,784.463994 L301.992278,784.247104 L301.992278,305.718147 C301.992278,302.956723 304.230854,300.718147 306.992278,300.718147 L412.200772,300.718147 Z M407.200278,310.718147 L311.992278,310.718147 L311.992278,779.246147 L334.142857,779.247104 C336.831612,779.247104 339.024675,781.369411 339.138238,784.030215 L339.142857,784.247104 L339.142278,796.216147 L380.049278,796.216147 L380.050193,784.247104 C380.050193,781.55835 382.1725,779.365286 384.833303,779.251724 L385.050193,779.247104 L407.200278,779.246147 L407.200278,310.718147 Z" id="Path" fill="#000000" fill-rule="nonzero"></path>
    </g>
</svg>