<?xml version="1.0" encoding="UTF-8"?>
<svg width="960px" height="960px" viewBox="0 0 960 960" version="1.1" xmlns="http://www.w3.org/2000/svg" xmlns:xlink="http://www.w3.org/1999/xlink">
    <title>com.ikea/drivers/PARASOLL/assets/pair</title>
    <style type="text/css">
        #pair {
            animation: press 6s infinite;
        }

        @keyframes press {
            0%, 10%, 20%, 30%, 40%, 100% {
                fill: rgba(0,0,0,0);
            }
            5%, 15%, 25%, 35% {
                fill: #0074CC;
            }
        }
    </style>
    <g id="com.ikea/drivers/PARASOLL" stroke="none" stroke-width="1" fill="none" fill-rule="evenodd">
        <path d="M508.74,8 C555.827798,8 594,46.1722022 594,93.26 L594,866.74 C594,913.827798 555.827798,952 508.74,952 L450.26,952 C403.172202,952 365,913.827798 365,866.74 L365,93.26 C365,46.1722022 403.172202,8 450.26,8 L508.74,8 Z M508.74,28 L450.26,28 C414.217897,28 385,57.2178972 385,93.26 L385,866.74 C385,902.782103 414.217897,932 450.26,932 L508.74,932 C544.782103,932 574,902.782103 574,866.74 L574,93.26 C574,57.2178972 544.782103,28 508.74,28 Z" id="Rectangle" fill="#000000" fill-rule="nonzero"></path>
        <path d="M508.026549,37 C523.072238,37 537.184441,42.9851628 547.610545,53.4395707 C558.034058,63.8913814 564,78.0347432 564,93.1118314 L564,866.888169 C564,881.965257 558.034058,896.108619 547.610545,906.560429 C537.184441,917.014837 523.072238,923 508.026549,923 L449.973451,923 C434.927762,923 420.815559,917.014837 410.389455,906.560429 C399.965942,896.108619 394,881.965257 394,866.888169 L394,93.1118314 C394,78.0347432 399.965942,63.8913814 410.389455,53.4395707 C420.815559,42.9851628 434.927762,37 449.973451,37 L508.026549,37 Z M508.026549,47 L449.973451,47 C437.612994,47 426.039362,51.9085226 417.470101,60.501047 C408.89825,69.0961685 404,80.7083718 404,93.1118314 L404,866.888169 C404,879.291628 408.89825,890.903832 417.470101,899.498953 C426.039362,908.091477 437.612994,913 449.973451,913 L508.026549,913 C520.387006,913 531.960638,908.091477 540.529899,899.498953 C549.10175,890.903832 554,879.291628 554,866.888169 L554,93.1118314 C554,80.7083718 549.10175,69.0961685 540.529899,60.501047 C531.960638,51.9085226 520.387006,47 508.026549,47 Z" id="Rectangle" fill="#000000" fill-rule="nonzero"></path>
        <circle id="pair" fill="#0074CC" cx="477" cy="117" r="46"></circle>
        <path d="M477,66 C505.166522,66 528,88.8334778 528,117 C528,145.166522 505.166522,168 477,168 C448.833478,168 426,145.166522 426,117 C426,88.8334778 448.833478,66 477,66 Z M477,76 C454.356325,76 436,94.3563253 436,117 C436,139.643675 454.356325,158 477,158 C499.643675,158 518,139.643675 518,117 C518,94.3563253 499.643675,76 477,76 Z" id="Oval" fill="#000000" fill-rule="nonzero"></path>
        <path d="M477,238 C505.166522,238 528,260.833478 528,289 C528,317.166522 505.166522,340 477,340 C448.833478,340 426,317.166522 426,289 C426,260.833478 448.833478,238 477,238 Z M477,248 C454.356325,248 436,266.356325 436,289 C436,311.643675 454.356325,330 477,330 C499.643675,330 518,311.643675 518,289 C518,266.356325 499.643675,248 477,248 Z" id="Oval" fill="#000000" fill-rule="nonzero"></path>
        <path d="M477,257 C494.673112,257 509,271.326888 509,289 C509,306.673112 494.673112,321 477,321 C459.326888,321 445,306.673112 445,289 C445,271.326888 459.326888,257 477,257 Z M477,267 C464.849736,267 455,276.849736 455,289 C455,301.150264 464.849736,311 477,311 C489.150264,311 499,301.150264 499,289 C499,276.849736 489.150264,267 477,267 Z" id="Oval" fill="#000000" fill-rule="nonzero"></path>
        <path d="M504.3041,354 C513.345332,354 520.674699,361.329367 520.674699,370.370598 L520.674699,371.078546 C520.674699,374.205942 523.209954,376.741197 526.337349,376.741197 C534.987592,376.741197 542,383.753605 542,392.403848 L542,863.22 C542,873.039623 534.039623,881 524.22,881 L431.78,881 C421.960377,881 414,873.039623 414,863.22 L414,394.521197 C414,384.701574 421.960377,376.741197 431.78,376.741197 L433.219763,376.741197 C436.738147,376.741197 439.590361,373.888983 439.590361,370.370598 C439.590361,361.329367 446.919728,354 455.96096,354 L504.3041,354 Z M504.3041,364 L455.96096,364 C452.442576,364 449.590361,366.852214 449.590361,370.370598 C449.590361,379.41183 442.260995,386.741197 433.219763,386.741197 L431.78,386.741197 C427.483225,386.741197 424,390.224422 424,394.521197 L424,863.22 C424,867.516775 427.483225,871 431.78,871 L524.22,871 C528.516775,871 532,867.516775 532,863.22 L532,392.403848 C532,389.276452 529.464745,386.741197 526.337349,386.741197 C517.687106,386.741197 510.674699,379.728789 510.674699,371.078546 L510.674699,370.370598 C510.674699,366.852214 507.822485,364 504.3041,364 Z" id="Path" fill="#000000" fill-rule="nonzero"></path>
        <path d="M500,291.5 C502.761424,291.5 505,293.738576 505,296.5 C505,299.261424 502.761424,301.5 500,301.5 L452,301.5 C449.238576,301.5 447,299.261424 447,296.5 C447,293.738576 449.238576,291.5 452,291.5 L500,291.5 Z" id="Path-46" fill="#000000" fill-rule="nonzero"></path>
        <path d="M500,274.5 C502.761424,274.5 505,276.738576 505,279.5 C505,282.261424 502.761424,284.5 500,284.5 L452,284.5 C449.238576,284.5 447,282.261424 447,279.5 C447,276.738576 449.238576,274.5 452,274.5 L500,274.5 Z" id="Path-46" fill="#000000" fill-rule="nonzero"></path>
    </g>
</svg>