<?xml version="1.0" encoding="utf-8"?>
<svg width="960px" height="960px" version="1.1" id="Layer_1" xmlns="http://www.w3.org/2000/svg"
     x="0px" y="0px" viewBox="0 0 960 960" enable-background="new 0 0 960 960" xml:space="preserve">
<g>
	<path id="Rectangle" fill="none" stroke="#000000" stroke-width="40" d="M296,20h368c152.4,0,276,123.6,276,276v367
		c0,152.4-123.6,276-276,276H296C143.6,939,20,815.4,20,663V296C20,143.6,143.6,20,296,20z"/>
  <g id="Group" transform="translate(122.000000, 104.000000)">
		<path id="Shape_1_" stroke="#000000" stroke-width="4" d="M360.7,674.3c-14.3,0-25.9,11.6-25.9,26s11.7,25.8,25.9,25.8
			s25.9-11.5,25.9-25.9S375,674.3,360.7,674.3z M360.7,719.1c-10.4,0-18.9-8.3-18.9-18.9s8.6-18.9,18.9-18.9
			c10.3,0,18.9,8.3,18.9,18.9S371.1,719.1,360.7,719.1z"/>
    <path id="Path_11_" stroke="#000000" stroke-width="4" d="M358.5,658.5c1.8,0,3.4-1.6,3.4-3.6v-6.3c0-2-1.5-3.6-3.4-3.6
			s-3.4,1.6-3.4,3.6v6.3C355.2,656.9,356.7,658.5,358.5,658.5z"/>
    <path id="Path_12_" stroke="#000000" stroke-width="4" d="M335.4,664.5c1.8-1,2.1-3.6,1.1-5.4l-3.6-5.7c-1.1-1.8-3.6-2.1-5.4-1.1
			c-1.8,1.1-2.1,3.6-1.1,5.4l3.6,5.7c0.8,1,1.8,1.8,3.3,1.8C334,665,334.8,665,335.4,664.5z"/>
    <path id="Path_13_" stroke="#000000" stroke-width="4" d="M310.2,680.4l6,2.6c0.3,0.3,1.1,0.3,1.3,0.3c1.4,0,2.9-0.6,3.6-1.9
			c0.8-1.5,0-3.8-1.8-4.4l-6-2.6c-1.8-0.6-4.2,0-4.9,1.5C307.3,677.6,307.9,679.8,310.2,680.4z"/>
    <path id="Path_14_" stroke="#000000" stroke-width="4" d="M316.8,707c-0.3-2.3-1.9-3.8-4.1-3.3l-6.3,1.1c-1.9,0.3-3.3,2.3-3,4.5
			c0.3,1.8,1.6,3.3,3.8,3.3c0.3,0,0.3,0,0.6,0l6.3-1C315.7,711,317.1,709.2,316.8,707z"/>
    <path id="Path_15_" stroke="#000000" stroke-width="4" d="M322.5,726.8L318,731c-1.4,1.4-1.7,3.6-0.3,4.9c0.6,0.6,1.6,1.4,2.6,1.4
			c0.6,0,1.6-0.3,2.3-1l4.5-3.9c1.3-1.4,1.6-3.6,0.3-5C326.4,725.9,324.1,725.6,322.5,726.8z"/>
    <path id="Path_16_" stroke="#000000" stroke-width="4" d="M345.9,739.6c-2.1-0.8-4.2,0.8-4.5,2.4l-1.8,6.3
			c-0.8,2.1,0.8,4.2,2.4,4.5c0.3,0,0.8,0,1.1,0c1.8,0,3.1-1.1,3.4-2.9l1.8-6.3C348.6,742.5,347.5,740.4,345.9,739.6z"/>
    <path id="Path_17_" stroke="#000000" stroke-width="4" d="M375.7,742.1c-0.8-2.1-2.7-3-4.5-2.4c-2.1,0.8-3.2,2.7-2.4,4.5l1.7,6.1
			c0.3,1.6,2.1,2.7,3.4,2.7c0.3,0,0.8,0,1.1,0c2.1-0.8,3.1-2.7,2.4-4.5L375.7,742.1z"/>
    <path id="Path_18_" stroke="#000000" stroke-width="4" d="M396.7,726.9c-1.4-1.4-3.6-1-4.8,0.3c-1.4,1.4-0.9,3.8,0.3,5.1l4.5,4
			c0.6,0.6,1.3,1.1,2.3,1.1c0.9,0,1.9-0.3,2.6-1.4c1.3-1.4,0.9-3.8-0.3-5.1L396.7,726.9z"/>
    <path id="Path_19_" stroke="#000000" stroke-width="4" d="M410.4,704.7l-6.3-1.1c-1.9-0.3-3.6,1.1-3.9,3.3s1.1,4,3,4.5l6.3,1
			c0.3,0,0.3,0,0.6,0c1.7,0,3.3-1.5,3.6-3.3C413.7,707,412.3,705,410.4,704.7z"/>
    <path id="Path_20_" stroke="#000000" stroke-width="4" d="M399.6,683.3c0.3,0,1.1,0,1.4-0.3l6-2.4c1.8-0.6,2.8-2.7,1.8-4.4
			c-1.1-1.5-3.2-2.4-4.9-1.5l-6,2.4c-1.8,0.6-2.9,2.7-1.8,4.4C396.7,682.6,398.1,683.3,399.6,683.3z"/>
    <path id="Path_21_" stroke="#000000" stroke-width="4" d="M389.4,652.4c-1.8-1-4.3-0.8-5.4,1.1l-3.6,5.7c-1.1,1.8-0.8,4.4,1.1,5.4
			c0.8,0.3,1.5,0.8,2.1,0.8c1.1,0,2.6-0.8,3.3-1.8l3.6-5.7C391.6,655.6,391.2,653.4,389.4,652.4z"/>
	</g>
  <g>
		<path id="Shape" stroke="#000000" stroke-width="4" d="M482.2,185c14.3,0,25.9-11.6,25.9-26s-11.6-25.9-25.9-25.9
			c-14.3,0-25.9,11.5-25.9,25.9S467.8,185,482.2,185z M482.2,140.1c10.3,0,18.9,8.7,18.9,18.9c0,10.2-8.3,18.9-18.9,18.9
			c-10.4,0-18.9-8.7-18.9-18.9C463.3,148.8,471.6,140.1,482.2,140.1z"/>
    <path id="Path" stroke="#000000" stroke-width="4" d="M480,117.5c1.8,0,3.4-1.7,3.4-3.8V85.3c0-2-1.5-3.8-3.4-3.8
			s-3.4,1.6-3.4,3.8v28.6C476.5,115.8,478,117.5,480,117.5z"/>
    <path id="Path_1_" stroke="#000000" stroke-width="4" d="M454.2,124.8c0.6,1,1.7,1.7,3,1.7c0.6,0,1.4-0.3,1.9-0.8
			c1.7-1.1,1.9-3.5,1.1-5.1l-15.3-24.1c-1.1-1.7-3.3-2.1-4.9-1.1c-1.6,1.1-1.9,3.5-1.1,5.1L454.2,124.8z"/>
    <path id="Path_2_" stroke="#000000" stroke-width="4" d="M411,131.4l26.7,12.8c0.3,0.3,1.1,0.3,1.3,0.3c1.4,0,2.7-0.8,3.4-2.3
			c0.8-1.8,0-4.4-1.8-5.1L414,124.4c-1.8-0.8-4.2,0-4.8,1.8C408.6,128.1,409.3,130.7,411,131.4z"/>
    <path id="Path_3_" stroke="#000000" stroke-width="4" d="M407.8,173.8c0.3,0,0.3,0,0.6,0l26.9-4.1c1.9-0.3,3.1-2.1,2.8-4
			c-0.3-2.1-1.9-3.5-3.9-3l-26.9,4c-1.9,0.3-3.1,2.1-2.8,4.1C404.5,172.4,406.2,173.8,407.8,173.8z"/>
    <path id="Path_4_" stroke="#000000" stroke-width="4" d="M443.5,186l-22.1,19.3c-1.4,1.3-1.7,3.9-0.3,5.3c0.8,0.8,1.6,1.3,2.7,1.3
			c0.8,0,1.6-0.3,2.4-1l22.1-19.3c1.4-1.3,1.7-3.9,0.3-5.3C447.6,184.5,445.2,184.5,443.5,186z"/>
    <path id="Path_5_" stroke="#000000" stroke-width="4" d="M467.2,198.7c-2.1-0.8-4.2,0.8-4.7,2.5l-8.4,28.7
			c-0.8,2.1,0.8,4.2,2.4,4.7c0.3,0,0.8,0,1.1,0c1.8,0,3.2-1,3.4-2.8l8.4-28.7C470.1,201.2,469,199.1,467.2,198.7z"/>
    <path id="Path_6_" stroke="#000000" stroke-width="4" d="M497.2,201.2c-0.8-2.1-2.9-3.2-4.5-2.4c-2.1,0.8-3.2,2.8-2.4,4.5
			l8.4,28.3c0.3,1.8,2.1,2.8,3.4,2.8c0.3,0,0.8,0,1.1,0c2.1-0.8,3.1-2.8,2.4-4.5L497.2,201.2z"/>
    <path id="Path_7_" stroke="#000000" stroke-width="4" d="M516.3,185.9c-1.3-1.3-3.8-1.1-5.1,0.3s-1.1,3.9,0.3,5.3l22,19.3
			c0.8,0.8,1.4,1.1,2.4,1.1c1.1,0,2.1-0.3,2.7-1.3c1.4-1.3,1-3.9-0.3-5.3L516.3,185.9z"/>
    <path id="Path_8_" stroke="#000000" stroke-width="4" d="M523.8,165.7c-0.3,2.1,0.9,3.8,2.9,4l26.7,4.1c0.3,0,0.3,0,0.6,0
			c1.6,0,3.1-1.3,3.4-3c0.3-2.1-0.9-3.8-2.9-4.1l-26.7-4C525.7,162.2,524.1,163.5,523.8,165.7z"/>
    <path id="Path_9_" stroke="#000000" stroke-width="4" d="M517.3,142.4c0.8,1.5,2.1,2.1,3.4,2.1c0.3,0,1.1,0,1.4-0.3l26.5-12.6
			c1.6-0.8,2.7-3.3,1.6-5.1c-0.8-1.8-3.1-2.9-4.8-1.8L519,137.3C517.3,138,516.6,140.6,517.3,142.4z"/>
    <path id="Path_10_" stroke="#000000" stroke-width="4" d="M502.8,125.8c0.6,0.3,1.3,0.8,1.9,0.8c1.1,0,2.4-0.8,3-1.7l15.3-24.2
			c1.1-1.6,0.6-4-1-5.1c-1.7-1-4.1-0.8-5,1l-15.3,24.1C500.8,122.4,501.1,124.8,502.8,125.8z"/>
	</g>
  <path id="Path_22_" stroke="#000000" stroke-width="7" d="M167.9,520.2L129.1,481l38.9-39.2c1.9-1.9,1.9-4.9,0-6.8
		c-2-1.9-5-1.9-6.6,0l-42.2,42.4c-2,1.9-2,4.9,0,6.8l42.2,42.4c1,1,1.9,1.3,3.3,1.3s2.3-0.3,3.3-1.3
		C169.6,525,169.6,522,167.9,520.2z"/>
  <path id="Path_23_" stroke="#000000" stroke-width="7" d="M794.9,526.9c1.1,1,2,1.3,3.3,1.3s2.4-0.3,3.3-1.3l42.3-42.4
		c1.9-1.9,1.9-4.9,0-6.8l-42-42.4c-2-1.9-5-1.9-6.6,0c-2,1.9-2,4.9,0,6.8l39,39.2l-39,39.2C793.1,521.9,793.1,524.9,794.9,526.9z"/>
</g>
</svg>
