<?xml version="1.0" encoding="utf-8"?>
<svg width="960px" height="960px" version="1.1" id="Layer_1" xmlns="http://www.w3.org/2000/svg"
     x="0px" y="0px" viewBox="0 0 960 960" enable-background="new 0 0 960 960" xml:space="preserve">
  <style type="text/css">
        		#pair {
        			animation: fillpulse 4s infinite;
        		}

        		@keyframes fillpulse {
        			0%, 15%, 35%, 55%, 75%, 100% {
        				fill: rgba(255,255,255,0);
        			}
        			25%, 45%, 65%, 85% {
        				fill: #0078CC;
        			}
        		}
        </style>
  <g>
	<path id="Rectangle" fill="none" stroke="#000000" stroke-width="20" d="M286,10h388c152.4,0,276,123.6,276,276v387
		c0,152.4-123.6,276-276,276H286C133.6,949,10,825.4,10,673V286C10,133.6,133.6,10,286,10z"/>
    <path id="Rectangle_1_" fill="none" stroke="#000000" stroke-width="20" d="M316,86h328c127,0,230,103,230,230v327
		c0,127-103,230-230,230H316C189,873,86,770,86,643V316C86,189,189,86,316,86z"/>
    <path id="Path" fill="none" stroke="#000000" stroke-width="5" d="M253.8,164l111.2,0c11.9-14.1,29.8-23,49.8-23
		c35.9,0,65,28.9,65,64.5s-29.1,64.5-65,64.5c-20,0-37.8-8.9-49.8-23l-111.2,0"/>
    <circle id="pair" fill="#004DFF" cx="415.3" cy="205.5" r="50.5"/>
    <circle id="Oval_1_" fill="none" stroke="#000000" stroke-width="7.5" cx="415.3" cy="205.5"
            r="46.8"/>
    <path id="Path_1_" stroke="#000000" stroke-width="2" d="M410,224.3c-2.1,1.9-4.9,2.8-7.5,2.6c-2.7-0.1-5.3-1.3-7.2-3.4l0,0
		c-1.9-2.1-2.8-4.9-2.6-7.5c0.1-2.7,1.3-5.3,3.4-7.2c2.3-2.1,4.7-4.1,7-6.3c2.1-1.9,4.9-2.8,7.5-2.6c2.7,0.1,5.3,1.3,7.2,3.4l0,0
		l0,0.1l0.7-0.8l0.7-0.7c-2.3-2.5-5.5-3.9-8.6-4.1c-3.2-0.1-6.4,0.9-9,3.1c-2.3,2.1-4.7,4.1-7,6.3c-2.6,2.3-3.9,5.5-4.1,8.6
		c-0.2,3.1,0.8,6.3,3.1,8.8l0.2,0.1c2.3,2.5,5.5,3.9,8.6,4.1c3.2,0.1,6.4-0.9,9-3.1l7-6.3l-1.3-1.5L410,224.3z"/>
    <path id="Path_2_" stroke="#000000" stroke-width="2" d="M437,186.3l-0.1-0.2c-2.3-2.5-5.5-3.9-8.6-4.1c-3.2-0.1-6.4,0.9-9,3.1
		l-7,6.3l1.3,1.5l7-6.3c2.1-1.9,4.9-2.8,7.5-2.6c2.7,0.1,5.3,1.3,7.2,3.4l0,0c1.9,2.1,2.8,4.9,2.6,7.5c-0.1,2.7-1.3,5.3-3.4,7.2
		c-2.3,2.2-4.6,4.2-7,6.3c-2.1,1.9-4.8,2.8-7.5,2.6c-2.7-0.1-5.3-1.3-7.2-3.4l0,0l0-0.1l-0.7,0.8l-0.7,0.7c2.3,2.5,5.5,3.9,8.6,4.1
		c3.2,0.1,6.4-0.9,9-3.1l7-6.3c2.6-2.3,3.9-5.5,4.1-8.6C440.2,192,439.2,188.8,437,186.3z"/>
    <rect x="170" y="344.5" fill="none" stroke="#000000" stroke-width="10" width="620"
          height="135.5"/>
    <rect x="170" y="480" fill="none" stroke="#000000" stroke-width="10" width="620"
          height="135.5"/>
    <ellipse fill="none" stroke="#000000" stroke-width="10" cx="480" cy="747.4" rx="71.2"
             ry="70.9"/>
</g>
</svg>
