<svg height="960" viewBox="0 0 960 960" width="960" xmlns="http://www.w3.org/2000/svg"><path d="m507.396765 36-.000765 92.894 3.222919-.125301c19.629763-.76626 36.002636 14.758348 36.359271 34.322675l.005891.594082 1.001919 620.002544.424194-.082997c7.818814-1.473142 15.913526-.238569 22.94405 3.509372l.477689.259433 38.795041 21.461087c9.913961 5.484318 16.559928 15.428321 17.835369 26.686101l5.315174 46.914803c2.06224 18.202521-10.260405 34.915819-28.258843 38.327688l-198.476371 37.624111c-9.166928 1.737726-18.648255-.256592-26.338336-5.54005l-39.523629-27.154646c-10.299984-7.076588-16.045489-19.108005-15.074534-31.566939l3.63289-46.615874c1.259268-16.158454 13.447525-29.338708 29.458306-31.855905 21.049101-3.309317 40.179186-6.342089 57.388574-9.098023l.737426-.118161-.023628-.103398c-2.19624-9.834068-3.242153-19.748393-3.297085-27.193445l-.002287-.61465c0-.530067.010699-1.061539.032395-1.594232l.016605-.332275.001372-739.9542499c.000018-18.763513 14.78622-34.15199182 33.465032-34.96637874l.567205-.02020585 23.346393-.64578344c19.701505-.54496239 35.967763 15.27757693 35.967763 34.98661793zm87.329934 812.656715-181.354 34.209-2.972 39.262 188.599301-35.751826zm-230.937 12.395-2.789699 35.793639 29.711699 20.413361 2.841-37.534zm84.227444-24.108788-.106697.016854c-19.428015 3.152892-41.981321 6.756053-67.65992 10.809481l25.725849 16.139387 69.543563-13.11742c-10.862852-.99013-20.228286-5.946396-27.502795-13.848302zm106.872642-18.942927c-6.938887 1.53162-16.038611 3.335868-27.299172 5.412743-4.3766 8.774879-11.376462 16.467262-20.880669 21.494797l72.200755-13.619825zm-82.49302-782-23.346393.6457834-.000707 741.2590296-.027592.200558-.016555.201269c-.003679.070189-.005518.141489-.005518.213902 0 .105657.000619.21959.001928.341533.002906.279987.009469.600602.020484.959996.308319 10.011396 4.063955 49.991686 29.42906 51.127329 4.932773.220849 9.222568-.29103 12.938514-1.344019l-.742899-.021337c16.965711-5.042773 22.352913-22.188357 22.352913-29.004327v-8.732141l-1.015873-628.105512-23.984428.935651.000301 626.150285-.376514.000773-.002787.030942.002787.987861c-.148394 4.88316-.285825 8.266544-.412293 10.150153-.410615 6.115713-1.64361 9.361336-1.842179 9.850479l-.020183.048894c-.004575.01086-.006945.016285-.006945.016285s-.08708-.035035-.248352-.122361c-.093037.222623-.165954.378337-.210158.468749l-.030079.060397c-.011507.022617-.017577.033883-.017577.033883s-.039896-.021428-.115807-.069826l-.126701-.084079c-.045045-.030952-.096035-.067028-.152687-.108628l-.108029-.080934c-1.28701-.982809-4.842031-4.345279-8.310477-13.450029l-.046035-.121012c-.152993-.400123-.305264-.811766-.456574-1.235245-.990673-2.772638-2.031555-8.998569-3.122645-18.677795z"/></svg>