<?xml version="1.0" encoding="UTF-8"?>
<svg width="960px" height="960px" viewBox="0 0 960 960" version="1.1" xmlns="http://www.w3.org/2000/svg" xmlns:xlink="http://www.w3.org/1999/xlink">
    <title>com.ikea/drivers/VINDSTYRKA/assets/pair</title>
    <style type="text/css">
    	#pair {
    		animation: pair 6s infinite;
    	}
    	
    	@keyframes pair {
    		0%, 20%, 80%, 100% {
    			fill: rgba(255,255,255,0);
    		}
    		40%, 60% {
    			fill: #0074CC;
    		}
    	}
    </style>
    <g id="com.ikea/drivers/VINDSTYRKA/assets/pair" stroke="none" stroke-width="1" fill="none" fill-rule="evenodd">
        <ellipse id="pair" fill="#0074CC" cx="395.553031" cy="78.4844121" rx="32.6436551" ry="12.4813976"></ellipse>
        <path d="M395.553031,61.0030146 C416.158829,61.0030146 433.196686,67.5174895 433.196686,78.4844121 C433.196686,89.4513348 416.158829,95.9658097 395.553031,95.9658097 C374.947233,95.9658097 357.909376,89.4513348 357.909376,78.4844121 C357.909376,67.5174895 374.947233,61.0030146 395.553031,61.0030146 Z M395.553031,71.0030146 C387.355316,71.0030146 379.729373,72.2362946 374.256169,74.3289905 C371.815217,75.2622955 369.95797,76.3134169 368.827656,77.3352032 C368.400247,77.721574 368.123707,78.0615247 367.98095,78.3282696 C367.919022,78.4439815 367.909376,78.4802991 367.909376,78.4844121 C367.909376,78.4885252 367.919022,78.5248428 367.98095,78.6405547 C368.123707,78.9072996 368.400247,79.2472503 368.827656,79.6336211 C369.95797,80.6554074 371.815217,81.7065288 374.256169,82.6398338 C379.729373,84.7325296 387.355316,85.9658097 395.553031,85.9658097 C403.750747,85.9658097 411.376689,84.7325296 416.849894,82.6398338 C419.290845,81.7065288 421.148092,80.6554074 422.278407,79.6336211 C422.705816,79.2472503 422.982355,78.9072996 423.125113,78.6405547 C423.18704,78.5248428 423.196686,78.4885252 423.196686,78.4844121 C423.196686,78.4802991 423.18704,78.4439815 423.125113,78.3282696 C422.982355,78.0615247 422.705816,77.721574 422.278407,77.3352032 C421.148092,76.3134169 419.290845,75.2622955 416.849894,74.3289905 C411.376689,72.2362946 403.750747,71.0030146 395.553031,71.0030146 Z" id="Oval" fill="#000000" fill-rule="nonzero"></path>
        <path d="M489.643567,105.16796 C539.809229,105.16796 581.053242,123.956899 581.053242,149.532367 C581.053242,175.107836 539.809229,193.896775 489.643567,193.896775 C439.477904,193.896775 398.233891,175.107836 398.233891,149.532367 C398.233891,123.956899 439.477904,105.16796 489.643567,105.16796 Z M489.643567,115.16796 C444.363737,115.16796 408.233891,131.627112 408.233891,149.532367 C408.233891,167.437623 444.363737,183.896775 489.643567,183.896775 C534.923396,183.896775 571.053242,167.437623 571.053242,149.532367 C571.053242,131.627112 534.923396,115.16796 489.643567,115.16796 Z" id="Oval" fill="#000000" fill-rule="nonzero"></path>
        <path d="M492.238216,5.65823617 C500.965563,4.18439929 509.927215,6.0718023 517.318784,10.9404247 L789.380748,190.140139 C799.211155,196.615157 805.128308,207.598027 805.128308,219.369295 L805.128308,813.573424 C805.128308,829.313192 794.621632,843.116908 779.450424,847.309134 L398.449834,952.590193 C386.167982,955.98401 373.012092,952.43496 364.103476,943.324612 L144.712367,718.965506 C138.31736,712.425687 134.736611,703.642252 134.736611,694.495376 L134.736611,95.6165007 C134.736611,78.5355609 147.066019,63.9494389 163.908482,61.1051559 L492.238216,5.65823617 Z M506.31739,27.6427997 C503.149575,25.5562473 499.308867,24.7473603 495.568575,25.3790046 L167.238841,80.8259244 C160.020643,82.0449028 154.736611,88.2960979 154.736611,95.6165007 L154.736611,694.495376 C154.736611,698.415466 156.271218,702.179795 159.011935,704.982574 L378.403043,929.341681 C382.221022,933.246116 387.85926,934.767137 393.122911,933.312644 L774.123501,828.031585 C780.625447,826.234917 785.128308,820.319039 785.128308,813.573424 L785.128308,219.369295 C785.128308,214.324466 782.592385,209.617521 778.379354,206.842514 L506.31739,27.6427997 Z" id="Path-29" fill="#000000" fill-rule="nonzero"></path>
        <path d="M769.896301,194.937006 C783.397671,192.047449 796.685143,200.650022 799.574701,214.151392 C799.942745,215.871068 800.128308,217.624779 800.128308,219.383399 L800.128308,277.718094 C800.128308,280.479518 797.889732,282.718094 795.128308,282.718094 C792.366885,282.718094 790.128308,280.479518 790.128308,277.718094 L790.128308,219.383399 C790.128308,218.328227 790.016971,217.276 789.796144,216.244194 C788.062409,208.143373 780.089926,202.981829 771.989104,204.715563 L402.381541,283.818825 C393.157756,285.792896 386.567146,293.943275 386.567146,303.375939 L386.567146,921.016427 C386.567146,922.330154 386.742775,923.637984 387.089366,924.905167 C389.237057,932.757413 397.343609,937.381868 405.195855,935.234177 L419.986548,931.18873 C422.650137,930.460204 425.399991,932.028883 426.128517,934.692472 C426.857044,937.356062 425.288365,940.105916 422.624775,940.834442 L407.834082,944.879889 C394.654656,948.484633 381.048398,940.72282 377.443654,927.543394 C376.861927,925.41652 376.567146,923.221422 376.567146,921.016427 L376.567146,303.375939 C376.567146,289.226943 386.453061,277.001374 400.288738,274.040268 L769.896301,194.937006 Z" id="Path-30" fill="#000000" fill-rule="nonzero"></path>
        <path d="M146.761191,79.1239771 C148.565665,77.033682 151.723,76.8019785 153.813295,78.6064528 L389.481507,282.050091 C391.571802,283.854565 391.803505,287.0119 389.999031,289.102195 C388.194556,291.19249 385.037222,291.424193 382.946927,289.619719 L147.278715,86.1760809 C145.18842,84.3716066 144.956716,81.2142722 146.761191,79.1239771 Z" id="Path-31" fill="#000000" fill-rule="nonzero"></path>
    </g>
</svg>