<?xml version="1.0" encoding="UTF-8"?>
<svg width="960px" height="960px" version="1.1" viewBox="0 0 960 960" xmlns="http://www.w3.org/2000/svg">
 <g id="remote_rotating_dimmer/icon" fill="none" fill-rule="evenodd">
  <g transform="translate(0,-46.5)" stroke="#000">
   <ellipse id="Oval" cx="480" cy="391.22" rx="444" ry="247.5" stroke-width="20"/>
   <path id="Path" d="m26 399.82c-0.84669 48.185 0 5.3108 0 0 0-141.84 203.26-256.82 454-256.82s454 114.98 454 256.82c0 5.3108 0.56174-5.2309 0 0v247.35c0 145.15-203.26 262.82-454 262.82-248.23 0-449.93-115.33-453.94-258.48l-0.060823-4.3463z" stroke-width="40"/>
   <path d="m26 586c0 143.04 203.26 281.03 454 281.03s454-137.99 454-281.03" stroke-width="20"/>
   <ellipse cx="480" cy="548.11" rx="94.615" ry="52.741" stroke-width="10"/>
  </g>
 </g>
</svg>
