<svg height="960" viewBox="0 0 960 960" width="960" xmlns="http://www.w3.org/2000/svg"><path d="m253 86c17.114566.0151055 30.984894 13.8854336 31 31 0 3.075556-.44788 6.046505-1.281975 8.85118 6.268599-1.104181 12.703592-1.728461 19.264482-1.834835l2.017493-.016345 254.089656.00033c1.010302-11.213157 10.434146-20.00033 21.910344-20.00033 11.469565.015175 20.88445 8.794277 21.907809 20.00046l166.998397-.000243c4.015998-4.307026 9.740382-7.000217 16.093794-7.000217 8.39361.011105 15.686827 4.715771 19.396068 11.630415 28.1902 8.002627 52.222325 25.88931 68.116078 49.675923 2.335052-.844738 4.857547-1.306338 7.487854-1.306338 12.145821.01072 21.98928 9.854179 22 22 0 8.581524-4.913398 16.015462-12.080465 19.642086 1.871622 8.164127 2.923083 16.641617 3.06412 25.340421l.016345 2.017493v467c0 19.223514-4.446123 37.40858-12.366142 53.58297 4.514719 4.027171 7.360381 9.889615 7.366142 16.41703 0 12.150264-9.849736 22-22 22-4.165027 0-8.059725-1.157414-11.380008-3.168155-21.380572 20.137933-50.034185 32.639978-81.602499 33.15181l-2.017493.016345-34.434275-.000042c.927036 2.833062 1.430118 5.858066 1.434275 9.000042 0 16.016258-12.983742 29-29 29s-29-12.983742-29-29c0-3.141622.499558-6.166566 1.423571-8.99973l-377.423571-.00027c-20.214134 0-39.280036-4.916162-56.067299-13.618079-5.223723 7.618858-13.994397 12.618079-23.932701 12.618079-16.016258 0-29-12.983742-29-29 0-8.492958 3.650865-16.133212 9.468812-21.436976-13.788088-19.407468-22.038674-43.023976-22.452467-68.545531l-.016345-2.017493v-4.140027c0-11.045695 8.954305-20 20-20 10.930636 0 19.813225 8.768729 19.997093 19.655511l.002907.344489v4.140027c0 44.834476 35.982069 81.26489 80.64398 81.989014l1.35602.010986 118.42954.000641c-.282356-1.624497-.42954-3.295381-.42954-5.000641 0-16.016258 12.983742-29 29-29 16.007477.021179 28.978821 12.992523 29 29 0 1.70526-.147184 3.376144-.42954 5.000641l291.42954-.000641c44.834476 0 81.26489-35.982069 81.989014-80.64398l.010986-1.35602.000728-296.423896c-2.833451.924221-5.858737 1.423896-9.000728 1.423896-16.016258 0-29-12.983742-29-29s12.983742-29 29-29c3.142345.004157 6.167692.507357 9.001042 1.434602l-.001042-115.434602c0-44.834476-35.982069-81.26489-80.64398-81.989014l-1.35602-.010986h-467c-44.834476 0-81.26489 35.982069-81.989014 80.64398l-.010986 1.35602v5.645137c0 11.045695-8.954305 20-20 20-10.930636 0-19.813225-8.768728-20-19.65551v-5.989627c0-42.795596 22.035053-80.444629 55.378438-102.220377-9.198533-5.374193-15.378438-15.355211-15.378438-26.779623 0-17.1208272 13.879173-31 31-31zm554 624c12.143603.016067 21.983933 9.856397 22 22 0 12.150264-9.849736 22-22 22s-22-9.849736-22-22 9.849736-22 22-22zm-160.130875-484.271368.112371.261632 15.82617 38.314188c8.684191 21.023896 9.036456 44.416245 1.256788 65.505137 1.887741-.527319 3.87868-.809589 5.935546-.809589 12.143603.016067 21.983933 9.856397 22 22 0 12.150264-9.849736 22-22 22-8.750934 0-16.308526-5.109306-19.852397-12.50754-4.568564 15.432021-2.581973 32.254425 5.813306 46.34541l.315007.522501c14.094852 23.105669 15.480718 51.770086 3.72477 76.107645l-.360264.736167-4.73091 9.542957c-9.904405 19.978673-9.69217 43.467332.540254 63.249759l.313141.598326 2.459929 4.645723c12.900384 24.363139 12.330729 53.633908-1.459776 77.459257l-.421941.720302-1.756634 2.963337c-8.376949 14.131417-11.461573 30.654172-8.919986 46.666851 15.233256.880262 27.315062 13.500905 27.335501 28.949305 0 16.016258-12.983742 29-29 29s-29-12.983742-29-29c0-9.3953 4.467855-17.747076 11.394817-23.046581-4.045835-21.19333-.356232-43.265154 10.596543-62.105865l.388777-.662259 1.756634-2.963337c10.540894-17.781864 11.170184-39.725324 1.701018-58.067274l-.290036-.554706-2.459929-4.645723c-13.416226-25.337337-13.950605-55.533546-1.479127-81.310633l.381905-.779762 4.73091-9.542957c9.002389-18.159172 8.160146-39.633325-2.202602-57.019539l-.316936-.525596c-14.094929-23.105795-15.240491-51.835451-3.076464-75.970256l.372681-.729941 5.303886-10.255849c9.360812-18.100515 10.364657-39.370675 2.773847-58.257973l-.25336-.621787-15.82617-38.314189c-2.108488-5.10452.320276-10.951818 5.424796-13.060306 5.016511-2.072134 10.750408.237875 12.947935 5.163165zm-328.9066 474.168582.087972.265749 9.224049 29.201871c1.663497 5.266367-1.257206 10.884132-6.523573 12.547629-5.177107 1.635302-10.6938-1.159516-12.459658-6.257824l-.087971-.265749-9.224049-29.201871c-1.663498-5.266367 1.257206-10.884132 6.523573-12.547629 5.177106-1.635302 10.6938 1.159516 12.459657 6.257824zm108.9066-474.168582.112371.261632 15.82617 38.314188c10.011306 24.236761 8.94954 51.621179-2.878893 74.995472l-.361733.707077-5.303886 10.255849c-9.255391 17.896668-8.600086 39.290695 1.697755 56.57502l.315007.522501c14.094852 23.105669 15.480718 51.770086 3.72477 76.107645l-.360264.736167-4.73091 9.542957c-8.062692 16.26366-9.421296 34.853313-4.127847 51.87614 1.673084-.407635 3.420526-.62328 5.218335-.62328 12.145821.01072 21.98928 9.854179 22 22 0 8.384893-4.690814 15.674189-11.591385 19.386828 3.045557 18.10778-.196621 36.988801-9.645555 53.313377l-.421941.720302-1.756634 2.963337c-6.0857 10.266216-9.37824 21.794522-9.749601 33.472459 7.744386 3.407838 13.153208 11.143121 13.165116 20.143697 0 5.916282-2.335344 11.287116-6.134486 15.240954l5.409032 17.12388c1.663497 5.266367-1.257206 10.884132-6.523573 12.547629-5.177107 1.635302-10.6938-1.159516-12.459658-6.257824l-.087971-.265749-5.242659-16.597124c-10.711929-1.480267-18.960685-10.672716-18.960685-21.791766 0-8.062302 4.336818-15.111685 10.804882-18.942579.175652-15.389222 4.296596-30.637874 12.186478-44.209867l.388777-.662259 1.756634-2.963337c7.873333-13.281846 10.216906-28.88548 6.952854-43.575864-7.172107-3.6244-12.089625-11.060973-12.089625-19.646094 0-2.271108.344135-4.46184.983104-6.522893-10.3096-23.897248-9.799268-51.219632 1.625593-74.833485l.381905-.779762 4.73091-9.542957c9.002389-18.159172 8.160146-39.633325-2.202602-57.019539l-.316936-.525596c-14.094929-23.105795-15.240491-51.835451-3.076464-75.970256l.372681-.729941 5.303886-10.255849c9.360812-18.100515 10.364657-39.370675 2.773847-58.257973l-.25336-.621787-15.82617-38.314189c-2.108488-5.10452.320276-10.951818 5.424796-13.060306 5.016511-2.072134 10.750408.237875 12.947935 5.163165zm110 0 .112371.261632 15.82617 38.314188c10.011306 24.236761 8.94954 51.621179-2.878893 74.995472l-.361733.707077-5.303886 10.255849c-3.540346 6.845782-5.630565 14.203295-6.285666 21.646775.014805.36153.022029.725162.022512 1.090375 0 1.284414-.0835 2.549325-.245369 3.789602-.042471 10.415639 2.70695 20.817966 8.206278 30.048268l.315007.522501c14.094852 23.105669 15.480718 51.770086 3.72477 76.107645l-.360264.736167-4.73091 9.542957c-9.904405 19.978673-9.69217 43.467332.540254 63.249759l.313141.598326 2.459929 4.645723c12.900384 24.363139 12.330729 53.633908-1.459776 77.459257l-.421941.720302-1.756634 2.963337c-10.043125 16.942157-12.479266 37.321531-6.733053 56.138252l.199065.640867 9.224049 29.201871c1.663497 5.266367-1.257206 10.884132-6.523573 12.547629-5.177107 1.635302-10.6938-1.159516-12.459658-6.257824l-.087971-.265749-9.224049-29.201871c-7.636714-24.176618-4.718512-50.44062 8.012065-72.339465l.388777-.662259 1.756634-2.963337c10.540894-17.781864 11.170184-39.725324 1.701018-58.067274l-.290036-.554706-2.459929-4.645723c-13.416226-25.337337-13.950605-55.533546-1.479127-81.310633l.381905-.779762 4.73091-9.542957c9.002389-18.159172 8.160146-39.633325-2.202602-57.019539l-.316936-.525596c-3.55196-5.822722-6.281565-12.002588-8.183052-18.376064-3.661315 1.669879-7.731463 2.600296-12.018922 2.600296-16.016258 0-29-12.983742-29-29s12.983742-29 29-29c5.241012.006934 10.156559 1.402093 14.398681 3.837519.81881-2.03722 1.727944-4.050106 2.726829-6.032007l.372681-.729941 5.303886-10.255849c9.360812-18.100515 10.364657-39.370675 2.773847-58.257973l-.25336-.621787-15.82617-38.314189c-2.108488-5.10452.320276-10.951818 5.424796-13.060306 5.016511-2.072134 10.750408.237875 12.947935 5.163165zm220 0 .112371.261632 15.82617 38.314188c10.011306 24.236761 8.94954 51.621179-2.878893 74.995472l-.361733.707077-5.303886 10.255849c-9.255391 17.896668-8.600086 39.290695 1.697755 56.57502l.315007.522501c14.094852 23.105669 15.480718 51.770086 3.72477 76.107645l-.360264.736167-4.73091 9.542957c-.220554.444889-.436091.891519-.646612 1.33981 3.611192 5.233889 5.728055 11.576383 5.7371 18.41305 0 9.76687-4.308273 18.527489-11.128065 24.485101 1.249948 6.54656 3.443932 12.953006 6.577831 19.011798l.313141.598326 2.459929 4.645723c12.900384 24.363139 12.330729 53.633908-1.459776 77.459257l-.421941.720302-1.756634 2.963337c-10.043125 16.942157-12.479266 37.321531-6.733053 56.138252l.199065.640867 9.224049 29.201871c1.663497 5.266367-1.257206 10.884132-6.523573 12.547629-5.177107 1.635302-10.6938-1.159516-12.459658-6.257824l-.087971-.265749-9.224049-29.201871c-7.636714-24.176618-4.718512-50.44062 8.012065-72.339465l.388777-.662259 1.756634-2.963337c10.540894-17.781864 11.170184-39.725324 1.701018-58.067274l-.290036-.554706-2.459929-4.645723c-3.565797-6.734218-6.221616-13.811668-7.96513-21.058157-.864499.068671-1.739482.103902-2.622694.103902-17.949254 0-32.5-14.550746-32.5-32.5s14.550746-32.5 32.5-32.5c3.687629.004879 7.231483.623009 10.535055 1.757886l3.686457-7.436983c9.002389-18.159172 8.160146-39.633325-2.202602-57.019539l-.316936-.525596c-14.094929-23.105795-15.240491-51.835451-3.076464-75.970256l.372681-.729941 5.303886-10.255849c9.360812-18.100515 10.364657-39.370675 2.773847-58.257973l-.25336-.621787-15.82617-38.314189c-2.108488-5.10452.320276-10.951818 5.424796-13.060306 5.016511-2.072134 10.750408.237875 12.947935 5.163165zm-524.167243 80.866798.414859.766742 164.656108 313.584292c12.599393 23.916724-4.473959 52.476105-31.278112 53.044901l-.815206.008635h-329.3912637c-26.99870076 0-44.39055951-28.397592-32.46373083-52.329721l.37041356-.723815 164.73515597-313.584292c13.460222-25.558067 49.852905-25.813648 63.771776-.766742zm-31.678459 260.744857c-14.623802 0-26.559987 11.842307-26.559987 26.526768 0 14.605512 11.857137 26.526768 26.559987 26.526768 14.623802 0 26.559987-11.921256 26.559987-26.526768s-11.857137-26.526768-26.559987-26.526768zm.553333-168.239709c-10.085081 0-18.237167 8.031203-18.415116 18.060025l-.00297.335025v105.712328c0 10.184384 8.220948 18.395051 18.418086 18.395051 10.085082 0 18.237167-8.031204 18.415116-18.060025l.00297-.335026v-105.712328c0-10.184384-8.220948-18.39505-18.418086-18.39505zm115.292369-173.371946.112371.261632 15.82617 38.314188c10.011306 24.236761 8.94954 51.621179-2.878893 74.995472l-.361733.707077-5.303886 10.255849c-9.255391 17.896668-8.600086 39.290695 1.697755 56.57502l.315007.522501c2.876133 4.71484 1.385566 10.868538-3.329273 13.74467s-10.868537 1.385566-13.744669-3.329273c-14.094929-23.105795-15.240491-51.835451-3.076464-75.970256l.372681-.729941 5.303886-10.255849c9.360812-18.100515 10.364657-39.370675 2.773847-58.257973l-.25336-.621787-15.82617-38.314189c-2.108488-5.10452.320276-10.951818 5.424796-13.060306 5.016511-2.072134 10.750408.237875 12.947935 5.163165zm373.130875-26.728632c12.145821.01072 21.98928 9.854179 22 22 0 12.150264-9.849736 22-22 22s-22-9.849736-22-22 9.849736-22 22-22zm-232-22c12.143603.016067 21.983933 9.856397 22 22 0 12.150264-9.849736 22-22 22s-22-9.849736-22-22 9.849736-22 22-22z"/></svg>