<svg height="960" viewBox="0 0 960 960" width="960" xmlns="http://www.w3.org/2000/svg"><g fill="#000" fill-rule="nonzero"><path d="m479 106-4.791105.033609c-153.089709 2.148745-284.267914 107.114603-321.649448 252.953548l-.802447 3.221843-1.095457.461232c-89.1255528 38.108553-148.661543 126.102913-148.661543 225.329768 0 135.309764 109.690236 245 245 245h467.162023l3.88299-.032772c133.605656-2.166212 240.954987-111.166272 240.954987-244.967228l-.019859-3.137975c-1.256609-99.24652-62.042198-186.70189-151.965009-223.585942l-1.116132-.449083-.76689-3.035521c-38.199942-146.773564-171.449626-251.791479-326.13211-251.791479zm0 40 4.209917.029453 4.197458.088113c135.511787 3.793391 250.81615 99.001017 280.989941 229.799235l.905996 4.056592c1.439119 6.662124 6.168975 12.123545 12.535626 14.507072l.362114.131616c81.304734 28.671323 136.798948 105.755461 136.798948 193.387919l-.02688 3.352324c-1.753918 109.301448-89.123935 198.017577-198.229861 201.539042l-3.304259.079634-3.602.029h-466.837c-113.218374 0-205-91.781626-205-205 0-85.626272 52.9830938-161.259482 131.454164-191.418264l2.385685-.899946c6.313254-2.336921 11.018791-7.689015 12.538156-14.229491l.084109-.378641c28.860057-136.121776 149.590992-235.073658 290.537886-235.073658z"/><path d="m479 490c-12.150264 0-22 9.849736-22 22s9.849736 22 22 22 22-9.849736 22-22c-.01072-12.145821-9.854179-21.98928-22-22zm0 123c-12.150264 0-22 9.849736-22 22s9.849736 22 22 22 22-9.849736 22-22c-.016067-12.143603-9.856397-21.983933-22-22zm0-244c-12.150264 0-22 9.849736-22 22s9.849736 22 22 22 22-9.849736 22-22c-.016067-12.143603-9.856397-21.983933-22-22zm-94 183c-12.150264 0-22 9.849736-22 22s9.849736 22 22 22 22-9.849736 22-22c-.016067-12.143603-9.856397-21.983933-22-22zm0-122c-12.150264 0-22 9.849736-22 22s9.849736 22 22 22 22-9.849736 22-22c-.016067-12.143603-9.856397-21.983933-22-22zm-116 82c0 12.150264 9.849736 22 22 22s22-9.849736 22-22c-.01072-12.145821-9.854179-21.98928-22-22-12.150264 0-22 9.849736-22 22zm283 62c0 12.150264 9.849736 22 22 22s22-9.849736 22-22c-.016067-12.143603-9.856397-21.983933-22-22-12.150264 0-22 9.849736-22 22zm0-122c0 12.150264 9.849736 22 22 22s22-9.849736 22-22c-.016067-12.143603-9.856397-21.983933-22-22-12.150264 0-22 9.849736-22 22zm95 60c0 12.150264 9.849736 22 22 22s22-9.849736 22-22c-.01072-12.145821-9.854179-21.98928-22-22-12.150264 0-22 9.849736-22 22z"/></g></svg>