<svg height="960" viewBox="0 0 960 960" width="960" xmlns="http://www.w3.org/2000/svg"><path d="m344.128341-192.253821c4.024485 3.782244 4.22086 10.110848.438616 14.135333-.037833.040256-.071883.076487-.10442.111107l-.063728.06781c-.262732.279559-.525463.559117-2.101852 2.236469-2.648333 2.81795-2.648333 2.81795-6.809999 7.246158-3.283933 3.494259-5.549847 5.905297-7.609248 8.096597l-.396233.42161c-.656817.698884-1.297592 1.3807-1.949566 2.074431l-.392747.4179c-3.616488 3.848113-7.736537 8.232039-16.892203 17.974096-13.768261 14.650076-23.062835 24.539938-31.621612 33.646879l-.867994.923586c-1.15433 1.228261-2.297462 2.444608-3.438715 3.658953l-2.331634 2.4809692-.443876.472305-.889582.9465566-.892828.950011c-14.16726 15.0746285-29.919569 31.8358244-64.557579 68.6922908l-1.203141 1.2789129.000678 474.8244075c6.826027 1.386558 12.332082 6.216756 14.717947 12.542713 57.021177-3.508617 93.257675-5.80807 108.648433-6.893852 47.628231-3.360058 65.832235-8.788552 77.901144-24.553027 15.792035-20.627642 38.799877-36.09392 67.076638-46.751748 8.353493-3.148525 16.258138-4.512419 29.735042-5.820159l.669809-.064095c-.015689.001616-.024122.002586-.02549.002929l.016909-.000841c.415013-.029636 8.319032-.726036 16.904378-1.512536l.978171-.089731.981818-.09032c6.225051-.573486 12.536125-1.171031 16.39788-1.577835 26.217582-2.761805 80.178855-7.60449 162.014688-14.540805.32283-6.735413 4.020242-12.874715 9.855711-16.300278l.341716-.196112c2.078239-1.165765 3.893427-1.840081 5.784531-2.268418l-.000003-424.4980038c0-5.5228475 4.477153-10 10-10s10 4.4771525 10 10l.000368 424.5702488c.846384.200569 1.681077.442545 2.523704.733318 6.354815 2.192917 11.062193 7.371993 12.772546 13.643591 37.203592-3.110849 78.899296-6.559479 125.092565-10.346196 2.419825-.198367 4.853723-.144403 7.262378.161021l29.524162 3.743732c17.487628 2.217473 30.597173 17.094311 30.597173 34.721969v30.842982c0 18.212049-13.96648 33.38068-32.116623 34.881028-164.999439 13.639378-276.343355 22.538324-334.142997 26.704794-2.569432.185217-7.392437.527483-12.371466.880133l-1.031682.073061c-6.539373.463055-13.09826.92657-14.957459 1.060566-9.114887.656927-15.306311 1.143178-20.530312 1.624705-10.658061.982417-16.730972 1.922243-20.295825 2.974264-.298639.088132-.573099.170516-.836342.25855l-.173975.059652c-.172598.060738-.341491.125114-.510518.196502l-.169214.073852c-1.921491.866317-4.024687 2.778056-11.899811 10.650884l-.709985.710256c-1.329623 1.330956-2.814587 2.821685-4.478555 4.492994-18.080898 18.160655-32.789164 30.215526-49.000423 39.150303-18.587543 10.244459-38.335421 15.696543-61.493451 17.059894-24.466576 1.440387-123.533586 7.191422-297.2437159 17.255594-2.0901279.121095-4.186906.054405-6.2651142-.199267l-25.4544648-3.107047c-17.5595744-2.143374-30.7592716-17.052235-30.7592716-34.742139v-27.912303c0-18.511193 14.4141693-33.821411 32.8917489-34.936447 43.7847074-2.642202 82.5115956-4.990128 116.1730466-7.04328 1.57445-7.806982 7.705501-14.021314 15.603746-15.625282l-.000233-478.7845069c0-2.5448378.97023-4.9939413 2.713026-6.8483581 41.283728-43.927823 56.971545-60.6203958 73.031666-77.709118l1.556239-1.655911c9.354869-9.954019 19.117684-20.342112 34.372082-36.573507 9.712967-10.335052 13.758629-14.639826 17.54803-18.671927l.343936-.365963c.057255-.060923.114489-.121822.17172-.182719l.388606-.413495c2.398866-2.552506 4.868172-5.179963 8.787705-9.35053 2.55375-2.717309 3.540426-3.767179 4.533577-4.823939l.221447-.235629c.55708-.59276 1.152134-1.225925 2.054975-2.18659 1.576389-1.677352 1.83912-1.95691 2.101852-2.236469l.063728-.06781c.032536-.03462.066586-.070851.10442-.111108 3.782243-4.024484 10.110847-4.220859 14.135332-.438616zm105.486571 678.638691-.210146.167562c-9.163984 7.324437-18.070146 12.411899-27.578257 15.916657-7.953211 2.931612-16.12985 4.796947-26.700378 6.092515-9.081241 2.883643-18.920098 4.750405-29.648838 5.508915-24.351408 1.721617-128.486671 8.328976-312.5218986 19.829698-.1868507.011677-.3728229.018144-.5577751.019527l-.0659278-.000057 25.4544648 3.107047c173.6908907-10.063057 272.7612757-15.814288 297.2111567-17.253692 30.999337-1.824982 51.384181-12.41094 74.617599-33.388172zm427.620779-106.608477-5.431796.446166c-178.503002 14.642377-288.777359 24.157103-330.815905 28.54348l-1.26558.132675c-3.472253.365773-8.780126.873704-14.248271 1.381955l-1.494027.138515c-.166164.015368-.332337.030724-.498469.046065l-.995953.091826c-1.203945.110839-2.4009.220444-3.573012.327304l-.700144.063774c-7.763642.70655-14.257749 1.276953-14.150232 1.259784l-.456526.043198c-10.536787 1.021144-16.153791 1.98553-20.740412 3.714279-22.504687 8.482268-40.051864 20.277791-51.409303 35.112939-11.259036 14.706614-26.139676 24.143523-45.494249 29.915121-2.021471.602809-4.044727 1.160738-6.098952 1.679665l-1.029829.256241c-13.080608 3.205236-27.598541 4.885388-50.967741 6.53403-27.296683 1.925716-119.129529 7.60663-275.5034807 17.043066l.4698822-.028083v7.39073l4.3703638-.273332c180.5144247-11.282676 282.8402387-17.776967 306.8647807-19.475476 28.62996-2.024106 49.199378-13.162359 66.302501-31.514169 11.692118-12.54575 18.376878-18.801301 28.666049-25.535689 14.176614-9.278768 30.426446-15.094839 49.916495-16.991939 26.078236-2.538374 148.5833-12.424739 367.815896-29.684709.657557-.051769 1.318623-.038353 1.973539.040051l27.531375 3.295263v-10.27073zm-378.182849 62.020575-.789855.172756c-10.665222 2.374441-19.909397 6.359755-28.274807 11.835018-8.561209 5.603416-14.33447 11.005992-24.987707 22.437014-12.769904 13.702226-27.415146 24.159119-44.979793 30.641544 8.152938-1.241087 14.888537-2.930219 21.45997-5.352497 14.000194-5.160573 26.694149-13.796873 40.910009-28.075441 1.571406-1.578339 4.518399-4.683501 7.650854-7.99412l.673645-.712081c.112603-.119044.225334-.238229.338138-.357496l.839805-.887932c3.497976-3.698329 6.937775-7.331504 8.704279-9.1063l.348138-.34707c.10735-.106032.205815-.202196.29483-.287865 5.237861-5.040994 10.636958-8.899648 17.812494-11.96553zm378.294849-31.387007-5.550639.437148c-212.709952 16.751188-332.83829 26.445733-360.101996 29.05953l-.805594.077802c-2.182449.212433-4.309399.481451-6.384274.806292-9.723691 3.29737-16.270662 7.628358-22.571404 13.692283-1.096428 1.055218-3.65478 3.733488-6.58936 6.829442 17.477506-16.336846 25.98621-15.60891 97.652417-20.774947 57.637121-4.154755 168.892797-13.04664 333.767027-26.675657-.389219-.000596-.783111-.024173-1.179649-.071645z" fill-rule="evenodd"/></svg>