<svg height="960" viewBox="0 0 960 960" width="960" xmlns="http://www.w3.org/2000/svg"><path d="m497.135657 4.00009085c10.07391.04424101 19.804648 1.0965109 28.064195 3.16047657 5.711412 1.42721617 10.950735 3.34823518 15.977123 6.25029128 4.23089 2.4427645 8.158302 5.4848123 11.726849 9.5758502l.357825.4153148.352977.4199996.341374.4169767.993148-.0235389c58.48193-1.2575732 115.65922 11.1786498 168.010514 37.1839047l1.584922.7921912 1.647796.8340315c19.381467 9.872651 37.676766 21.4094798 54.769713 34.4927842l1.505078 1.1584196.256829.1992077 11.058391.0033907c10.373517.0030033 20.324789 4.0351163 27.767722 11.2195903l.396317.387893.391447.393895 23.297814 23.770821c10.416237 10.627713 13.756028 25.688347 9.851171 39.15955l-.142539.480429-.061323.196431 2.00675 2.818863c86.438942 123.10023 97.290251 295.709261 24.42693 446.553927l-2.233612 4.564315-2.486025 4.945586c-9.373466 18.391434-19.802066 36.050142-31.213683 52.895748l-1.271999 1.868384-.440361.639177.090602.512072c1.678341 9.955361-.423955 20.425423-6.324921 29.116068l-.331739.480968-.150942.209892 40.473308 89.525981c9.588142 21.209046.545812 46.100334-20.191194 56.29294l-.631967.304348-.645574.298172c-6.981459 3.156164-14.675647 4.388028-22.286048 3.57408l-.652097-.07478-25.407958-3.110279c-10.75822-1.316952-21.200878-4.504032-30.855332-9.413864l-.875493-.45109-68.261645-35.625508-1.775774 1.123387c-116.20574 72.617456-254.705397 85.157131-372.057558 28.735971l-3.549609-1.730849-3.802031-1.908294c-4.346266-2.213928-8.638155-4.511666-12.874355-6.891929l-2.113453-1.197002-1.61622-.928284-2.822128 60.186998c-.391991 8.356134-3.39315 16.368899-8.566128 22.918235l-.364424.454542-.371438.449709-14.077352 16.793038c-1.167969 1.393284-2.409606 2.723117-3.719591 3.983803-19.900918 19.151974-51.408063 18.969557-71.08703-.34812l-.627693-.628204-.396909-.40661-77.435391-80.463527c-14.47602-15.042109-18.766262-37.171028-10.986662-56.520377l.329243-.797827.203904-.479805 47.547599-109.889855-1.373254-1.740104c-91.7704118-117.810535-110.0909219-282.964754-43.815394-426.24566l2.034255-4.335079 2.289085-4.734698 2.960805-5.919428c62.064132-121.774416 175.974643-204.286017 303.42757-224.940008l3.866316-.6069211 1.934617-.2841019.322161-.3882428.357718-.421768.362614-.4169947c3.596282-4.0845791 7.546179-7.1131153 11.799758-9.5423491 5.050269-2.8842267 10.320496-4.79205177 16.067924-6.20562593 8.3618-2.05657594 18.222708-3.08692862 28.491257-3.08692862zm-243.748559 782.94600015-3.277103 51.816572c.282149.949356.426574 1.955808.41098 2.995083l-.008049.279815-3.041969 71.566672c-.042722 1.005096-.232388 1.96922-.547396 2.87253 2.057224-.373921 4.030375-1.337516 5.649634-2.895836.188364-.181275.370175-.369179.545096-.563347l.257168-.295905 14.077353-16.793039 4.338286-92.491545-.528481-.451085-1.690354-1.465588-2.224983-1.955345-2.434546-2.164495-3.56314-3.201512-2.924301-2.649638-3.401333-3.102209zm-48.965211-77.867531-47.40162 109.563639-.131367.314802c-1.862551 4.632518-.905059 9.926604 2.462106 13.613272l.233308.248847 68.285784 70.955971 2.14-50.341-35.314941-32.993706 30.303497-82.585136c-7.344667-9.253111-14.205355-18.85822-20.576767-28.776689zm91.51249-529.208833.006652.008163.244101.217856.240716.222017 26.905297 25.226036c7.879454 7.387667 8.45616 19.674474 1.368477 27.764387l-.253336.283769-23.098221 25.392233c-7.149372 7.859416-19.175256 8.743737-27.391769 2.076267l-.288399-.238459-23.572895-19.857996-4.543994-1.52881c-12.218989 17.34628-23.398455 35.838294-33.370669 55.409865-79.556383 156.138193-58.363042 334.052024 40.705123 445.0914l27.573577-17.268297c7.265717-4.549913 16.607494-3.956814 23.234152 1.434458l.313484.260353 21.051305 17.845773c8.169245 6.925294 9.419302 19.035889 2.899215 27.47672l-.230598.292945-16.77186 20.90986c10.802236 7.329614 22.152427 14.049366 34.035971 20.102679 46.189123 23.528099 95.789646 34.621414 145.609139 34.539144l3.736822-.027105c72.761988-.934944 145.820707-25.632797 209.235769-70.172745l1.918706-1.355765.533634.281746c15.466838-11.008688 30.349489-23.203725 44.502195-36.527605-.134152-.126935-.262262-.249006-.389398-.37176l-.423264.399573c2.694285-2.528524 5.362236-5.097871 8.00285-7.707644l1.97532-1.964904.240448.514955c1.643557-1.644622 3.276324-3.305031 4.898057-4.981132l-14.720878-11.502879c-8.731629-6.821859-10.237027-19.420492-3.425822-28.100689l.232742-.291093 19.928112-24.463428c7.591985-9.319798 21.603683-9.867788 29.903929-1.250514l.257509.272274 11.180772 12.039667c12.141085-17.260618 23.25321-35.653607 33.171443-55.113913 74.52248-146.218617 60.665844-311.533916-22.778536-423.14114l-9.412926 10.744219c-7.543484 8.611104-20.736701 9.129842-28.93331 1.211813l-.271355-.267059-19.125318-19.175701c-6.184058-6.200348-7.605097-15.688111-3.550366-23.414308l.194078-.360857 1.555942-2.824096-4.480451-4.337061c-8.156906-7.895908-7.631985-19.527615-1.609696-27.02686-13.877763-10.275423-28.734418-19.504484-44.534133-27.5548413-134.91287-68.7415406-298.938198-31.3372108-412.478343 80.8084893zm506.238502 558.502662c-5.220393 3.324985-11.364238 4.469433-17.505357 3.564059-2.567847-.378573-4.553772-.902387-6.778832-1.7553l-.518094-.202751-.402596-.163397-.467361.481856c-1.169366 1.188524-2.343772 2.36912-3.523138 3.541765l23.635837 54.392543-52.430905-28.138676c-6.01709 5.023388-12.134354 9.859373-18.343101 14.505525l68.948984 35.979204c5.416015 2.826959 11.2783 4.695323 17.327334 5.524404l.757083.098216 25.407957 3.110279c.136435.016701.273361.023949.409834.021887l.204251-.010057c.339458-.028339.673129-.114412.986251-.255967 1.455825-.658147 2.131371-2.334161 1.565792-3.806732l-.067973-.162719zm-511.099037 1.24646-33.572046 21.023374 24.667302 22.673868 8.414597.000675 3.671503-4.578681.4969.385006 17.373049-21.658469zm491.546256-27.485758 4.843438 3.784961 3.033562-3.371961-.095877-.212469-3.292086 3.19105zm-.268693-40.241941-19.928111 24.463428 15.609804 12.194513.057989-.064669 9.018048 7.04025 17.602963-19.554581zm-588.187976-451.358811-1.730998 2.481299c-9.034829 13.092802-17.378458 26.893469-24.946968 41.37229l-1.894714 3.670665-2.753628 5.507068c-52.621441 107.296174-51.427045 226.648432-6.347483 324.534576-24.644885-96.336158-14.344378-205.171496 33.929813-304.418516l1.474481-3.004528 2.466275-4.909948c9.477288-18.600225 20.004696-36.273498 31.450893-52.966625l-24.789679-8.332857c-2.638847-.887174-4.937645-2.243973-6.857992-3.933424zm36.006571-40.523339-21.065 25.019 29.564376 9.933681.058722-.07759 20.103709 6.664165c-.03947.050463-.07893.100938-.118381.151423l1.858917.631925 25.888657 21.809396 21.787-23.952-26.016-24.393-1.264564-.386741-.177338.194832-21.021475-6.502419c.028602-.032567.057208-.065129.085818-.097686zm563.783098-40.736909-25.486185.000678 15.464481 14.96966-8.933322 16.213312 19.125318 19.175701 11.787708-13.457351-.338359-.403584.005359-.007416-.098033-.117214 11.510033-13.034786-2.202-2.248zm-345.936125-76.0700259-.321494.0503614c-74.671752 10.4150426-146.24738 44.7799565-203.413316 99.0888725l31.422833 9.530187c49.673598-50.99895 109.222795-88.0774495 172.311977-108.6694209zm49.887865-19.201068h-2.820293l-.931322.024192-.922353.0239094c-.152949.0046307-.305501.0095824-.457647.0148524l-.907899.0354171c-.150473.006532-.300516.0133767-.450119.0205314l-.892246.0466249-.881143.0539302-.869507.0611023-.857339.068141-.844637.0750466-.831401.0818187c-.137435.0141934-.274295.0286634-.410571.0434073l-.810549.0917272-.795981.0981663-.780879.104472-.765244.1106445-.749076.1166838-.732375.1225897c-.120641.0209164-.240564.0420733-.359758.063468l-.706323.1311988-.688289.1367715-.669722.1422112-.650621.1475173-.630987.1526904-.610819.15773-.59012.1626365-.568885.1674096-.547119.1720496-.524819.1765562c-.256745.0893825-.504928.1804051-.744249.2729927l-.466735.1872397c-.07579.031547-.150574.0632623-.224339.0951432l-.430286.19325c-.208946.0975962-.408529.1966325-.598451.2970339l-.36687.2026008c-1.297303.7493808-2.064237 1.5694882-2.182515 2.4307583l-.012097.1176983-.003989.116932-.001932 6.1161725c16.454875-4.3369582 33.097356-7.5582581 49.818801-9.6198978l-.344865-.1379158-.490493-.1830437-.51359-.1787363-.536154-.1742956c-.09121-.0286718-.183338-.057153-.276372-.0854408l-.569-.1673846-.590231-.1626108-.610928-.1577036-.631093-.1526632-.650724-.1474894-.669822-.1421826-.688386-.1367423c-.116249-.0223296-.233248-.044427-.350988-.0662894l-.715234-.1283321-1.104993-.1816313-.757313-.1136487-.773211-.1075421-.788577-.1013022-.803409-.0949291-.817708-.0884228-.831473-.0817831c-.139696-.0130698-.279944-.0258574-.420732-.03836l-.851122-.0715737-.863554-.0646009-.875454-.0574947-.88682-.0502554c-.148721-.0077652-.297893-.0152232-.447506-.0223713l-.902869-.0391464-.912903-.0315739-.922402-.0238681z"/></svg>
