<?xml version="1.0" encoding="UTF-8"?>
<svg width="960px" height="960px" viewBox="0 0 960 960" version="1.1" xmlns="http://www.w3.org/2000/svg" xmlns:xlink="http://www.w3.org/1999/xlink">
  <title>com.ikea/drivers/starkvind/assets/pair</title>
  <style type="text/css">
    #pair-led {
    animation: flash 9s infinite;
    }
    #pair-button {
    animation: press 9s infinite;
    }

    @keyframes press {
    0%,  60%, 100% {
    fill: rgba(0,0,0,0);
    }
    10%, 30%, 50% {
    fill: #0078CC;
    }
    }

    @keyframes flash {
    0%, 44%, 68%, 76%, 84%, 92%, 100% {
    fill: rgba(0,0,0,0);
    }
    50%, 61%, 72%, 80%, 88%, 96% {
    fill: #0078CC;
    }
    }
  </style>
  <g id="com.ikea/drivers/starkvind/assets/pair" stroke="none" stroke-width="1" fill="none" fill-rule="evenodd">
    <path d="M974.588824,360.839384 C834.087783,263.789259 663.68171,206.949499 480,206.949499 C297.182858,206.949499 127.516674,263.255442 -12.6028715,359.471648" id="Path" stroke="#000000" stroke-width="20" stroke-linecap="round" stroke-linejoin="round"></path>
    <path d="M513.119026,206.925799 C578.629204,209.350375 642.291267,219.007593 703.330149,235.122386 L703.329201,347.803362 L762.099238,373.159129 L762.099238,635.975423 L197.900762,635.975423 L197.900762,373.159129 L256.669388,347.803362 L256.668343,235.291505 C317.902053,219.075153 381.78003,209.358845 447.519056,206.925799 L513.119026,206.925799 Z" id="Path" stroke="#000000" stroke-width="10" stroke-linecap="round" stroke-linejoin="round"></path>
    <rect id="Rectangle" stroke="#000000" stroke-width="10" stroke-linecap="round" stroke-linejoin="round" x="217.572146" y="476.354271" width="136.91888" height="60.8528356" rx="30"></rect>
    <rect id="Rectangle" stroke="#000000" stroke-width="10" stroke-linecap="round" stroke-linejoin="round" x="217.572146" y="552.420316" width="136.91888" height="60.8528356" rx="30"></rect>
    <path d="M400.659589,183.5 L559.340411,183.5 L559.340411,212.597432 C532.816737,208.874519 506.369933,206.991875 480,206.949499 C453.630067,206.907123 427.183263,208.704769 400.659589,212.342436 L400.659589,183.5 Z" id="Rectangle" stroke="#000000" stroke-width="10" stroke-linecap="round" stroke-linejoin="round"></path>
    <circle id="pair-button" fill="#0074CC" cx="248.5" cy="506.5" r="17"></circle>
    <circle id="Oval" stroke="#000000" stroke-width="9" stroke-linecap="round" stroke-linejoin="round" cx="248.5" cy="506.5" r="17"></circle>
    <circle id="Oval" fill="#000000" cx="312.654702" cy="506.780689" r="6.33883704"></circle>
    <circle id="pair-led" fill="#0074CC" cx="312.654702" cy="506.780689" r="6.33883704"></circle>
    <circle id="Oval" stroke="#000000" stroke-width="9" stroke-linecap="round" stroke-linejoin="round" cx="248.5" cy="582.5" r="17"></circle>
    <path d="M245.398838,503.255242 C246.458254,502.859347 247.584966,502.93004 248.620528,503.42526 C249.633013,503.925533 250.442801,504.837658 250.817548,505.961865 L250.817548,505.961865 L251,506.509206 L250.49375,506.723612 L250.256697,506.82179 L249.160806,507.401951 L249.160737,506.514107 L249.148833,506.480445 C248.928051,505.919607 248.524455,505.458611 248.009098,505.171339 L248.009098,505.171339 L247.888217,505.108163 C247.311685,504.815158 246.599283,504.775804 245.984153,505.00819 L245.984153,505.00819 L245.535097,505.19012 L244.697137,505.517837 L243.368742,506.020673 C242.743726,506.257017 242.236626,506.75558 241.954202,507.40331 C241.678606,508.011224 241.641612,508.761971 241.860116,509.410358 L241.860116,509.410358 L241.910605,509.549173 C242.14837,510.153153 242.598156,510.641339 243.171221,510.921455 C243.747753,511.214461 244.460154,511.253815 245.087015,511.016779 L245.087015,511.016779 L248.251357,509.804938 L248.822202,511.531816 L245.688574,512.744758 C244.629158,513.140653 243.502446,513.06996 242.466884,512.57474 C241.454398,512.074467 240.64461,511.162342 240.269864,510.038135 L240.284778,510.079 L240.26963,510.048085 L240.24189,509.978898 C240.075635,509.480146 239.996271,508.966836 240.000134,508.457333 C239.999868,508.40277 240.001118,508.348083 240.003733,508.29358 C240.029262,507.707952 240.163965,507.130451 240.402787,506.5886 C240.875659,505.51573 241.736971,504.658496 242.78145,504.268468 L242.78145,504.268468 L243.007843,504.176191 L243.810968,503.858114 Z M251.339495,500.255242 C252.39893,499.859347 253.525662,499.93004 254.561242,500.42526 C255.573746,500.925533 256.383548,501.837658 256.758302,502.961865 L256.758302,502.961865 L256.790937,503.059766 L256.790508,503.123102 L256.815263,503.199726 C256.939358,503.61925 257.000152,504.051318 257,504.485283 C257.00058,504.548586 256.999602,504.611958 256.996778,504.675217 C256.994659,504.709045 256.992907,504.742736 256.99079,504.776425 C256.988613,504.80374 256.986195,504.831084 256.983438,504.858397 C256.947815,505.320325 256.842511,505.780875 256.671837,506.227304 L256.671837,506.227304 L256.597402,506.4114 C256.124522,507.48427 255.263194,508.341504 254.208782,508.735483 L254.208782,508.735483 L251.601262,509.744758 C250.541827,510.140653 249.415095,510.06996 248.379515,509.57474 C247.367011,509.074467 246.557209,508.162342 246.182456,507.038135 L246.182456,507.038135 L246,506.490794 L246.506259,506.276388 L246.743316,506.17821 L247.839226,505.598049 L247.838685,506.485561 L247.8512,506.519555 C248.071986,507.080393 248.475589,507.541389 248.984791,507.825588 L248.984791,507.825588 L249.104139,507.887999 C249.713711,508.185876 250.40087,508.224168 251.030886,507.985939 L251.030886,507.985939 L252.605439,507.388139 L253.182838,507.160959 L253.754796,506.928595 C254.323038,506.675845 254.782359,506.201238 255.045959,505.59669 C255.32156,504.988776 255.358555,504.238029 255.140047,503.589642 L255.140047,503.589642 L255.089558,503.450827 C254.851787,502.846847 254.401994,502.358661 253.828919,502.078545 C253.252376,501.785539 252.539962,501.746185 251.914906,501.982522 L251.914906,501.982522 L248.777313,503.197018 L248.205811,501.468184 Z" id="Combined-Shape" fill="#000000" fill-rule="nonzero"></path>
  </g>
</svg>
