<svg height="960" viewBox="0 0 960 960" width="960" xmlns="http://www.w3.org/2000/svg"><g fill="none" fill-rule="evenodd"><g stroke="#000"><path d="m373.877584 724.781098c1.858369 2.083802 3.71738 3.357237 5.832077 4.630671 3.857078 2.454256 9.657114 4.480175 16.724687 6.148375 18.660595 4.421133 46.170876 6.342862 70.106037 6.933272h2.563269 2.818955c23.838398-.463067 70.875018-.809209 92.854406-16.091583" stroke-linejoin="round" stroke-width="20"/><path d="m626.703622 682.733007c-18.933681 12.050245-32.606361 20.760149-41.018038 26.129711-14.873493 9.494437-19.792503 15.392676-19.792503 23.704936s-3.56857 17.599406-3.56857 34.492063c0 11.261772-6.934093 22.710696-20.802278 34.346772-.885418 1.677601-1.534134 3.291299-1.711217 4.970191v.257546h-.236702c-1.061911 3.29259-1.947328 7.745751-2.774308 12.716587-.885418 5.679572-1.534134 12.005269-2.18344 18.847995-.413195 7.552108-.885418 15.555405-1.063091 23.108158-.235521 8.713971-.235521 16.97546 0 24.721211v2.581917h-.235521l-18.948527 22.398777h.236702l-6.493063 6.132053-16.586822 15.814242-.413195.258192c-3.01101 2.839463-6.02084 5.680218-21.545161 6.389599h-.236702.512602-.227458c-14.918079-.681679-17.810371-3.411499-20.703798-6.140078l-.397059-.248109-15.939088-15.196678-6.239501-5.892589h.227458l-18.208565-21.524079h-.226324v-2.48109c.226324-7.443271.226324-15.38214 0-23.75582-.170735-7.257809-.624517-14.948569-1.021576-22.205758-.62395-6.575509-1.247333-12.65418-2.098174-18.111959-.794685-4.776719-1.645526-9.055979-2.665968-12.21999h-.227459v-.247489c-.170168-1.613329-.793551-3.16401-1.644392-4.776098-13.326617-11.181675-19.989925-22.183505-19.989925-33.005491 0-16.23298-3.429214-25.157453-3.429214-33.145109 0-7.987657-4.726916-13.655563-19.019582-22.779231-8.004113-5.109395-24.036053-15.802705-48.095821-32.07993-4.582027-3.099892-37.079776-22.623422-44.068939-27.063434-73.114683-46.447636-96.389528-119.565098-96.389528-289.827525 0-186.538116 60.096362-248.110969 103.084444-285.1988431 42.988082-37.0878743 128.334249-62.1006994 189.060608-62.1006994h13.884448c60.726359 0 146.072526 25.0128251 189.060608 62.1006994 42.988082 37.0878741 103.084444 98.6607271 103.084444 285.1988431 0 179.337289-25.822028 250.898132-108.509183 297.037778-3.32009 1.852619-29.055332 14.638178-32.440622 16.792729z" stroke-linejoin="round" stroke-width="40"/><path d="m391.043345 788.187697c1.532491.989642 3.06551 1.594423 4.809379 2.199205 3.180711 1.165578 7.963668 2.12773 13.791889 2.919994 15.388322 2.099691 38.074472 3.012361 57.812426 3.29276h2.11378 2.32463c19.658159-.219921 58.44656-.384311 76.571699-7.642238" stroke-linejoin="round" stroke-width="20"/></g><path d="m413.429442 874.160523c-4.45713 21.891363 14.581081 32.837045 57.114632 32.837045s60.660218-10.945682 54.379999-32.837045c-17.182966 3.483549-35.283691 5.225323-54.302174 5.225323-19.018484 0-38.082636-1.741774-57.192457-5.225323z" fill="#000"/><path d="m404.262138 815.82699c16.421085 3.204556 40.136728 4.806834 71.146929 4.806834" stroke="#000" stroke-linecap="round" stroke-linejoin="round" stroke-width="20"/><path d="m404.262138 836.856888c16.421085 3.605125 40.136728 5.407688 71.146929 5.407688" stroke="#000" stroke-linecap="round" stroke-linejoin="round" stroke-width="20"/><path d="m404.262138 859.088493c16.421085 3.204556 40.136728 4.806834 71.146929 4.806834" stroke="#000" stroke-linecap="round" stroke-linejoin="round" stroke-width="20"/></g></svg>