<svg height="960" viewBox="0 0 960 960" width="960" xmlns="http://www.w3.org/2000/svg"><path d="m377.111246 61.9999999 1.933196.0123014 317.695836 3.1164278c140.456252 1.3778013 254.259722 115.9155479 254.259722 256.0351229v315.672296c0 140.119575-113.80347 254.657322-254.259722 256.035123l-317.695836 3.116428c-3.521319.034542-7.035561-.003686-10.541196-.114378l1.144754.031679-3.447679.075179c-1.184571.019821-2.369553-.001158-3.551445-.080592l-.885784-.069422-111.713224-10.004949c-135.905476-12.171588-240.049868-126.0599-240.049868-262.509326v-290.373638c0-137.307131 105.417264-251.6108038 242.275936-262.6991837l93.956581-7.6124242c1.350984-.1094576 2.706659-.1501769 4.061778-.122l7.799705.1633559 1.694755-.1198361c5.748705-.3801952 11.525187-.5645494 17.322491-.552164zm-213.255795 256.5528451v321.89431c0 110.979894 82.872984 201.803854 190.110374 214.528039l11.365355 1.014429 4.434455-.096377c2.94722.09306 5.909758.125577 8.886447.096377l317.695836-3.116428c6.116054-.059995 12.172366-.374335 18.15882-.932841 109.527551-12.456548 194.853907-104.170262 194.853907-214.604206v-315.672296c0-118.151063-97.668227-214.874144-218.14809-216.037047l-309.209014-3.116428c-120.479863-1.162904-218.14809 95.562604-218.14809 216.042468zm107.308249-209.709853-15.657522 1.269432c-116.087892 9.405518-205.506178 106.361539-205.506178 222.829828v290.373638c0 115.740756 88.338596 212.344455 203.617956 222.668784l11.726349 1.05512c-72.508588-40.17974-121.488854-117.445947-121.488854-206.592639v-321.89431c0-91.510288 51.61198-170.501752 127.308249-209.709853zm226.420779 502.815354 104.540621 163.581254c2.974055 4.653691 1.612442 10.837201-3.041249 13.811257-4.653691 2.974055-10.837201 1.612442-13.811257-3.041249l-104.54062-163.581254c-2.974055-4.653691-1.612442-10.837201 3.041249-13.811257 4.653691-2.974055 10.837201-1.612442 13.811256 3.041249zm6.506261 60.785187c5.042968 2.251737 7.305708 8.165263 5.053971 13.208231-.16037.359163-.256636.592854-.386329.93036-.013598.035424-.013598.035424-.027803.072562-.008474.022173-.194809.512807-.263826.692319-.129989.338098-.256829.660094-.400523 1.014446-.348846.860264-.775888 1.857226-1.342234 3.125609-.031407.070338-.063625.140312-.096649.209906-3.945984 8.315722-7.46912 20.546159-7.46912 27.054838 0 20.847753 16.900443 37.748196 37.748195 37.748196 4.879681 0 9.614976-.921192 14.032466-2.691459 5.126525-2.054407 10.94782.436038 13.002226 5.562563s-.436038 10.94782-5.562563 13.002226c-6.773494 2.714414-14.033053 4.12667-21.472129 4.12667-31.893447 0-57.748195-25.854748-57.748195-57.748196 0-9.769698 4.13072-24.297218 9.106569-35.003596l.230431-.490208.007773-.018585.097931-.218598c.662581-1.48781.846235-1.936077 1.343637-3.234489l.103898-.271577c.020076-.05249.020076-.05249.04083-.106555.250984-.653149.480701-1.210793.793213-1.910692 2.251737-5.042968 8.165263-7.305708 13.208231-5.053971zm37.855903-76.969401.299366.124362c3.07529 1.320071 5.548399 3.730494 6.948591 6.760532l.0614.139389 37.160227 80.623585.228973.479984c4.406467 9.379842 7.871205 24.150716 8.005383 34.532272l.004035.617548c0 5.522848-4.477153 10-10 10-5.522848 0-10-4.477152-10-10 0-7.553639-2.954671-20.143068-6.269789-26.977686l-.084358-.178379-31.327244-67.968739-.064204.143608c-.337613.74422-.633102 1.39546-.69643 1.534995l-.005399.011871c-.634131 1.398197-1.086868 2.399215-1.528795 3.381419-.077348.17195-.077348.17195-.154618.343881-.211954.471721-.417406.930342-.620184 1.384482-2.251737 5.042968-8.165263 7.305708-13.208231 5.053971s-7.305708-8.165264-5.053971-13.208232c.209287-.468718.421102-.941542.639308-1.42718.063528-.141354.076234-.169625.119428-.265652l.007019-.015478.005185-.010016c.209424-.458028 2.246367-4.954753 4.381261-9.687168l.523849-1.161602c1.178832-2.614897 2.344535-5.207094 3.207749-7.14034l.073268-.1637c3.003284-6.566521 10.647839-9.619255 17.348181-6.927727zm323.275487-126.474132c5.522848 0 10 4.477153 10 10s-4.477152 10-10 10h-652.363125c-5.522848 0-10-4.477153-10-10s4.477152-10 10-10zm-322.976121-254.401506c3.07529 1.320071 5.548399 3.730494 6.948591 6.760532l.0614.139389 37.160227 80.623585.228973.479984c4.406467 9.379842 7.871205 24.150716 8.005383 34.532272l.004035.617548c0 31.893448-25.854748 57.748196-57.748196 57.748196-31.893447 0-57.748195-25.854748-57.748195-57.748196 0-9.769698 4.13072-24.297218 9.106569-35.003596l.228431-.486208 36.031967-80.696441.073268-.1637c3.04811-6.664528 10.877069-9.709599 17.647547-6.803365zm-5.246782 28.083506-30.275231 67.80506c-.031407.070338-.063625.140312-.096649.209906-3.945984 8.315722-7.46912 20.546159-7.46912 27.054838 0 20.847753 16.900443 37.748196 37.748195 37.748196 20.847753 0 37.748196-16.900443 37.748196-37.748196 0-7.553639-2.954671-20.143068-6.269789-26.977686l-.084358-.178379z"/></svg>