<svg height="960" viewBox="0 0 960 960" width="960" xmlns="http://www.w3.org/2000/svg"><path d="m908 9c22.09139 0 40 17.90861 40 40v35c0 6.1855892-1.404035 12.0432484-3.910796 17.271668l-.089204.181332v777.324l.095138.229729c1.795271 4.437401 2.817439 9.270335 2.899503 14.331798l.005359.661473v16c0 22.09139-17.90861 40-40 40h-852c-22.09139 0-40-17.90861-40-40v-16c0-5.301934 1.0315359-10.362939 2.9048619-14.993271l.0951381-.231729v-777.32l-.0892043-.183332c-2.4172335-5.0416903-3.8091009-10.6684772-3.9107957-16.6101949v-35.6614731c0-22.09139 17.90861-40 40-40zm-1 895h-852v6h852zm-3-803h-846v12.819l126.024457.410938c4.142114.013507 7.48901 3.382303 7.475542 7.524417-.013281 4.060895-3.251523 7.357453-7.281714 7.472441l-.242742.003062-125.975543-.410858v14l125.024632.410938c4.142113.013604 7.488931 3.382478 7.475367 7.524591-.013376 4.060896-3.251695 7.357378-7.281888 7.472272l-.242743.003056-124.975368-.410857v14l124.024809.410939c4.142113.013701 7.488852 3.382655 7.47519 7.524768-.013473 4.060895-3.251869 7.357301-7.282065 7.472099l-.242743.003051-123.975191-.409857v14l123.024989.409939c4.142112.013801 7.48877 3.382835 7.47501 7.524947-.013571 4.060895-3.252046 7.357224-7.282245 7.471925l-.242743.003045-122.975011-.409856v14l122.025171.40994c4.142112.013902 7.488688 3.383016 7.474828 7.525129-.01367 4.060894-3.252226 7.357144-7.282428 7.471748l-.242742.003038-121.974829-.409855v14.001l120.025544.408941c4.142112.014108 7.48852 3.383389 7.474455 7.525501-.013873 4.060893-3.252593 7.356982-7.2828 7.471385l-.242743.003027-119.974456-.408854v14l119.025735.408942c4.142111.014213 7.488434 3.383579 7.474264 7.52569-.013977 4.060894-3.25278 7.3569-7.282991 7.471201l-.242743.003021-118.974265-.408854v14.001l118.025928.407942c4.142111.01432 7.488347 3.383773 7.474071 7.525884-.014083 4.060893-3.252971 7.356816-7.283184 7.471012l-.242743.003015-117.974072-.407853v14l117.026125.407943c4.14211.014428 7.488258 3.383969 7.473874 7.526079-.01419 4.060893-3.253164 7.356731-7.283381 7.470822l-.242743.003008-116.973875-.407852v14l116.026324.407944c4.14211.014538 7.488168 3.384168 7.473675 7.526278-.014298 4.060892-3.25336 7.356644-7.28358 7.470628l-.242743.003001-115.973676-.406851v14l115.026526.406945c4.14211.01465 7.488077 3.384369 7.473473 7.526479-.014409 4.060892-3.25356 7.356556-7.283782 7.470432l-.242743.002995-114.973474-.406851v14l114.026732.406945c4.142109.014764 7.487984 3.384575 7.473267 7.526685-.014521 4.060891-3.253762 7.356467-7.283988 7.470232l-.242743.002988-113.973268-.40685v14.001l113.026941.405946c4.142109.014879 7.48789 3.384784 7.473058 7.526893-.014635 4.060891-3.253968 7.356376-7.284197 7.470029l-.242743.002981-112.973059-.405849v14l112.027153.405947c4.142109.014996 7.487794 3.384995 7.472846 7.527104-.01475 4.06089-3.254177 7.356284-7.284409 7.469823l-.242743.002975-111.972847-.405849v14.001l111.027369.404948c4.142108.015115 7.487696 3.38521 7.47263 7.527318-.014868 4.06089-3.254389 7.356191-7.284624 7.469614l-.242744.002968-110.972631-.404848v15l110.027588.404948c4.142107.015237 7.487597 3.38543 7.472411 7.527537-.014987 4.06089-3.254604 7.356096-7.284843 7.469401l-.242744.002961-109.972412-.404847v14l109.02781.404949c4.142107.015359 7.487497 3.385652 7.472189 7.527759-.015108 4.060889-3.254823 7.355999-7.285065 7.469185l-.242744.002953-108.97219-.403846v15l108.028036.40395c4.142107.015484 7.487396 3.385877 7.471963 7.527984-.015232 4.060889-3.255046 7.355901-7.285291 7.468965l-.242744.002946-107.971964-.403845v14l107.028266.403951c4.142106.015611 7.487292 3.386106 7.471733 7.528213-.015357 4.060888-3.255272 7.355801-7.285521 7.468742l-.242744.002938-106.971734-.402844v15l105.028737.402953c4.142105.015871 7.487079 3.386576 7.471262 7.528682-.015614 4.060887-3.255736 7.355597-7.285992 7.468284l-.242744.002924-104.971263-.402843v14.001l104.028978.401954c4.142105.016004 7.48697 3.386817 7.471021 7.528922-.015746 4.060887-3.255974 7.355492-7.286233 7.46805l-.242744.002916-103.971022-.401842v15l103.029224.401955c4.142104.01614 7.486859 3.387063 7.470775 7.529167-.015879 4.060886-3.256216 7.355385-7.286479 7.467811l-.242744.002908-102.970776-.401841v14.001l102.029474.400956c4.142103.016278 7.486746 3.387312 7.470525 7.529415-.016016 4.060886-3.256462 7.355278-7.286729 7.467569l-.242744.0029-101.970526-.40084v15l101.029728.400957c4.142103.016418 7.486631 3.387565 7.470271 7.529669-.016154 4.060885-3.256712 7.355166-7.286982 7.467321l-.242745.002892-100.970272-.400839v14.001l100.029986.399958c4.142103.016561 7.486515 3.387824 7.470013 7.529926-.016295 4.060885-3.256966 7.355055-7.287241 7.467071l-.242744.002883-99.970014-.399838v9l99.030249.399959c4.142102.016706 7.486396 3.388086 7.46975 7.530188-.016439 4.060884-3.257225 7.35494-7.287504 7.466815l-.242744.002875-98.969751-.398837v9l98.030517.39896c4.142101.016854 7.486275 3.388353 7.469482 7.530455-.016585 4.060883-3.257489 7.354824-7.287771 7.466555l-.242745.002866-97.969483-.398836v6.169h846zm4-52h-854v32h854z"/></svg>
