<svg height="960" viewBox="0 0 960 960" width="960" xmlns="http://www.w3.org/2000/svg">
<style xmlns="http://www.w3.org/2000/svg" type="text/css">
      #pair {
        animation-name: toggles;
        animation-delay: 3s;
        animation-duration: 14.2s;
        animation-iteration-count: infinite;
        opacity: 0;
      }

      @keyframes toggles {
        1%,	/* low toggle 1 */
        6%,	/* low toggle 1 */
        10%,	/* low toggle 2 */
        15%,	/* low toggle 2 */
        18%,	/* low toggle 3 */
        23%,	/* low toggle 3 */
        27%,	/* low toggle 4 */
        32%,	/* low toggle 4 */
        35%,	/* low toggle 5 */
        40%,	/* low toggle 5 */
        44%,	/* low toggle 6 */
        48%	/* low toggle 6 */
        {
          opacity: 0;
        }
        3%,	/* high toggle 1 */
        5%,	/* high toggle 1 */
        11%,	/* high toggle 2 */
        13%,	/* high toggle 2 */
        20%,	/* high toggle 3 */
        22%,	/* high toggle 3 */
        28%,	/* high toggle 4 */
        30%,	/* high toggle 4 */
        36%,	/* high toggle 5 */
        39%,	/* high toggle 5 */
        45%,	/* high toggle 6 */
        47%	/* high toggle 6 */
        {
          opacity: 1;
        }
      }
    </style>

      #pair {
        animation-name: toggles;
        animation-delay: 3s;
        animation-duration: 14.2s;
        animation-iteration-count: infinite;
        opacity: 0;
      }

      @keyframes toggles {
        1%,	/* low toggle 1 */
        6%,	/* low toggle 1 */
        10%,	/* low toggle 2 */
        15%,	/* low toggle 2 */
        18%,	/* low toggle 3 */
        23%,	/* low toggle 3 */
        27%,	/* low toggle 4 */
        32%,	/* low toggle 4 */
        35%,	/* low toggle 5 */
        40%,	/* low toggle 5 */
        44%,	/* low toggle 6 */
        48%	/* low toggle 6 */
        {
          opacity: 0;
        }
        3%,	/* high toggle 1 */
        5%,	/* high toggle 1 */
        11%,	/* high toggle 2 */
        13%,	/* high toggle 2 */
        20%,	/* high toggle 3 */
        22%,	/* high toggle 3 */
        28%,	/* high toggle 4 */
        30%,	/* high toggle 4 */
        36%,	/* high toggle 5 */
        39%,	/* high toggle 5 */
        45%,	/* high toggle 6 */
        47%	/* high toggle 6 */
        {
          opacity: 1;
        }
      }
    
<style xmlns="http://www.w3.org/2000/svg" type="text/css">
      #pair {
        animation-name: toggles;
        animation-delay: 3s;
        animation-duration: 14.2s;
        animation-iteration-count: infinite;
        opacity: 0;
      }

      @keyframes toggles {
        1%,	/* low toggle 1 */
        6%,	/* low toggle 1 */
        10%,	/* low toggle 2 */
        15%,	/* low toggle 2 */
        18%,	/* low toggle 3 */
        23%,	/* low toggle 3 */
        27%,	/* low toggle 4 */
        32%,	/* low toggle 4 */
        35%,	/* low toggle 5 */
        40%,	/* low toggle 5 */
        44%,	/* low toggle 6 */
        48%	/* low toggle 6 */
        {
          opacity: 0;
        }
        3%,	/* high toggle 1 */
        5%,	/* high toggle 1 */
        11%,	/* high toggle 2 */
        13%,	/* high toggle 2 */
        20%,	/* high toggle 3 */
        22%,	/* high toggle 3 */
        28%,	/* high toggle 4 */
        30%,	/* high toggle 4 */
        36%,	/* high toggle 5 */
        39%,	/* high toggle 5 */
        45%,	/* high toggle 6 */
        47%	/* high toggle 6 */
        {
          opacity: 1;
        }
      }
    </style>
<g fill="none" fill-rule="evenodd"><path d="m474 21.262396c188.645137 0 341.572236 152.927099 341.572236 341.572236 0 112.425218-54.315116 212.164462-138.135985 274.40837-2.833812 2.104339-10.059042 7.125352-17.544183 12.256697l-2.615143 1.790067c-7.838083 5.357156-15.434682 10.477767-18.054573 12.145415-17.541825 11.165962-30.436825 19.381538-38.684999 24.646728-10.36985 6.619554-16.294665 11.633276-19.214549 16.760039l-2.985539-.050847c-23.948278 15.420982-75.198389 15.770264-101.172206 16.237532h-5.864357c-26.079248-.595766-56.053871-2.534924-76.386063-6.996157-7.700678-1.683329-14.020275-3.727623-18.222866-6.204138-2.304129-1.284985-4.329668-2.569969-6.354508-4.672671-1.53036-.059605-3.047517-.11853-4.55147-.176775-3.220871-4.502787-8.901001-9.079824-18.01386-14.896983-8.267066-5.27725-24.093964-15.812891-47.480694-31.606924-7.148584-4.827737-36.160093-23.986857-42.901962-29.522539-76.293458-62.643802-124.961515-157.697291-124.961515-264.117814 0-188.645137 152.927099-341.572236 341.572236-341.572236z" id='pair' fill="#fff67a"/><g stroke="#000" stroke-linecap="round" stroke-linejoin="round"><path d="m300.291241 656.474985c23.38673 15.794033 39.213628 26.329674 47.480694 31.606924 16.19107 10.335507 21.545832 16.756245 21.545832 25.804851s3.884694 19.158459 3.884694 37.547561c0 12.259402 7.548353 24.722535 22.645059 37.389399.963853 1.826212 1.670036 3.58286 1.862807 5.410477v.280361h.25767c1.15598 3.584266 2.119833 8.431913 3.020072 13.843093.963852 6.182701 1.670035 13.068763 2.376861 20.517655.449797 8.221115.963852 16.933389 1.157265 25.155207.256385 9.485902.256385 18.479239 0 26.911152v2.810638h.256385l20.627092 24.382984h-.25767l7.068254 6.675264 18.056175 17.215156.449798.281064c3.277742 3.090998 6.554199 6.183402 23.453751 6.955625h.25767-.558012.25767c16.899552-.772223 20.176009-3.864627 23.453751-6.955625l.449798-.281064 18.056175-17.215156 7.068254-6.675264h-.25767l20.627092-24.382984h.256385v-2.810638c-.256385-8.431913-.256385-17.42525 0-26.911152.193413-8.221818.707468-16.934092 1.157266-25.155207.706825-7.448892 1.413008-14.334954 2.376861-20.517655.900238-5.41118 1.864091-10.258827 3.020072-13.843093h.25767v-.280361c.19277-1.827617.898953-3.584265 1.862806-5.410477 15.096706-12.666864 22.645059-25.129997 22.645059-37.389399 0-18.389102 3.884694-28.498955 3.884694-37.547561s5.354763-15.469344 21.545832-25.804851c8.248174-5.26519 21.143174-13.480766 38.684999-24.646728 5.41444-3.446473 32.084956-21.640933 38.213899-26.192179 83.820869-62.243908 138.135985-161.983152 138.135985-274.40837 0-188.645137-152.927099-341.572236-341.572236-341.572236s-341.572236 152.927099-341.572236 341.572236c0 106.420523 48.668057 201.474012 124.961515 264.117814 6.741869 5.535682 35.753378 24.694802 42.901962 29.522539z" stroke-width="20"/><path d="m388.652627 774.433934c1.668248 1.07731 3.33707 1.735666 5.235421 2.394022 3.462476 1.268832 8.669134 2.316217 15.013651 3.178664 16.751505 2.285693 41.447319 3.279212 62.93377 3.58445h2.301031 2.530558c21.399587-.239402 63.624079-.418355 83.354844-8.319229" stroke-width="10"/><path d="m370.337265 703.155667c2.02484 2.102702 4.050379 3.387686 6.354508 4.672671 4.202591 2.476515 10.522188 4.520809 18.222866 6.204138 20.332192 4.461233 50.306815 6.400391 76.386063 6.996157h2.792883 3.071474c25.973817-.467268 77.223928-.81655 101.172206-16.237532" stroke-width="10"/></g><path d="m413.021809 868.022709c-4.851967 29.348914 15.872754 44.023372 62.174162 44.023372s66.033835-14.674458 59.19728-44.023372c-18.705128 4.670261-38.409315 7.005391-59.112562 7.005391-20.703246 0-41.456206-2.33513-62.25888-7.005391z" fill="#000"/><path d="m403.042414 804.521669c17.875756 3.488433 43.692262 5.232649 77.449518 5.232649" stroke="#000" stroke-linecap="round" stroke-linejoin="round" stroke-width="10"/><path d="m403.042414 827.414511c17.875756 3.924487 43.692262 5.886731 77.449518 5.886731" stroke="#000" stroke-linecap="round" stroke-linejoin="round" stroke-width="10"/><path d="m403.042414 851.615515c17.875756 3.488433 43.692262 5.23265 77.449518 5.23265" stroke="#000" stroke-linecap="round" stroke-linejoin="round" stroke-width="10"/></g></svg>