<?xml version="1.0" encoding="UTF-8"?>
<svg width="960px" height="960px" viewBox="0 0 960 960" version="1.1" xmlns="http://www.w3.org/2000/svg" xmlns:xlink="http://www.w3.org/1999/xlink">
    <title>com.ikea/drivers/ormanas/ assets/icon</title>
    <g id="com.ikea/drivers/ormanas" stroke="none" stroke-width="1" fill="none" fill-rule="evenodd">
        <path d="M341.702405,58.9096579 C357.24387,57.5431853 371.698453,57.7051895 385.08673,59.468723 C402.216797,61.7251334 420.424451,67.693432 439.893701,77.165618 C465.779447,89.7595599 478.151236,119.70888 468.717063,146.878857 L468.509259,147.46576 L466.10781,154.07823 L464.082678,159.681225 L462.085199,165.234646 L459.597885,172.18864 L457.309802,178.624911 C456.173153,181.831865 455.047593,185.022045 453.933122,188.195445 L451.718964,194.51987 C435.590232,240.73488 421.846779,283.339285 410.487812,322.311598 L408.953642,327.60349 C408.70041,328.481719 408.44841,329.358071 408.197641,330.232547 L406.70781,335.456877 C395.890762,373.603437 387.458109,408.115466 381.409059,438.971476 C366.496032,515.042341 360.151133,605.114285 361.528502,690.713265 L361.533,691.028 L363.080998,688.771771 C402.136453,631.440804 436.725782,553.930472 462.878242,465.194499 L463.978244,461.438437 L465.622145,455.774018 L468.090013,447.213049 L470.156097,439.993741 L471.820229,434.145408 L474.768022,423.715818 L476.910235,416.083686 L479.532264,406.686747 L482.677378,395.34298 L485.933441,383.527043 L489.422249,370.799405 L492.393614,359.918449 L502.50476,322.796795 L505.319812,312.492151 L508.100126,302.354428 L509.321626,297.917838 L511.712807,289.27223 L514.037619,280.922354 L515.739639,274.848467 L517.407542,268.93184 L519.580724,261.2809 L521.698971,253.893376 L523.253571,248.520045 L524.780486,243.285797 L525.783729,239.871643 L527.267565,234.860542 L528.243366,231.591546 L529.687951,226.792773 L530.638861,223.661722 L531.580528,220.583829 L532.976595,216.064136 L533.896945,213.114089 L535.262949,208.780755 C535.413802,208.305269 535.564355,207.831757 535.714616,207.360196 L536.612754,204.554042 L537.504305,201.793544 L538.389676,199.077548 L539.269277,196.4049 L540.143516,193.774445 L541.012801,191.18503 L541.87754,188.635499 L542.738142,186.1247 L543.595016,183.651478 L544.448569,181.214678 L545.299209,178.813147 L546.147347,176.445731 L546.993389,174.111274 L547.837744,171.808624 L548.68082,169.536625 C548.821249,169.160449 548.961641,168.785502 549.102006,168.41176 L549.94393,166.183575 C550.084218,165.814557 550.224495,165.446695 550.36477,165.079967 L551.206461,162.892999 C551.346761,162.530706 551.487076,162.169498 551.627414,161.80935 L552.46979,159.661002 C552.610255,159.305002 552.750761,158.950014 552.891315,158.596014 L553.735296,156.483689 L554.580856,154.393937 L555.428405,152.325603 L556.321898,150.17374 C556.478208,149.800015 556.634546,149.427686 556.790917,149.056749 L557.729574,146.847815 C557.886094,146.482436 558.042656,146.118443 558.199264,145.755833 L559.139494,143.596735 C566.979896,125.74208 574.956181,111.327383 583.601366,99.9345184 C596.353672,83.1291761 611.184868,72.0649618 629.137252,68.6140699 C640.058425,66.5147506 652.77745,65.9948611 666.919336,66.7458204 L668.901819,66.8588222 C669.233759,66.8790201 669.56646,66.8998975 669.899916,66.9214507 L671.909677,67.0588466 C672.246136,67.0830869 672.58334,67.1079951 672.921286,67.1335673 L674.957817,67.2949381 C675.298708,67.323151 675.640332,67.3520201 675.982682,67.3815416 L678.045473,67.5664682 C679.426433,67.6949302 680.818876,67.8337063 682.222499,67.9825479 L684.336281,68.2133285 C684.689964,68.2530398 685.044335,68.2933724 685.399391,68.3343225 L687.537905,68.5874014 L688.613253,68.7194397 L690.77599,68.9943976 L692.954591,69.2837088 C693.683411,69.3825173 694.414837,69.483687 695.148832,69.5871868 L697.358485,69.9046455 L699.583324,70.2358984 L701.823123,70.5807594 C702.197657,70.6393598 702.572804,70.6985196 702.948561,70.7582346 L705.210375,71.1231583 C706.995986,71.4155278 708.779119,71.7185115 710.553217,72.0304602 L713.206768,72.5049006 C718.497041,73.4664042 723.6765,74.5011694 728.568122,75.5646627 L730.989126,76.0985972 C731.388356,76.1879166 731.785382,76.2773839 732.180102,76.3669734 L734.519928,76.9057705 L735.667549,77.1758821 L737.494459,77.6115623 L739.772657,78.1644385 L741.882768,78.6909315 L743.363,79.0721965 L744.761701,79.4446905 L745.651629,79.6894316 L746.509453,79.9322015 L747.336827,80.1737707 L748.135404,80.41491 L748.906836,80.6563901 L749.652778,80.8989819 C749.775069,80.9395493 749.896367,80.9801952 750.016706,81.0209355 L750.72751,81.2666398 L751.416956,81.5153826 L752.086696,81.7679345 C752.196769,81.8103868 752.30609,81.8530298 752.414693,81.8958798 L753.057974,82.1555906 C753.269714,82.2430741 753.478859,82.3315136 753.685683,82.4210375 L754.299472,82.6929912 L754.601663,82.8316489 L755.197671,83.1148079 C755.296145,83.1626824 755.39421,83.2109084 755.491902,83.2595018 L756.07385,83.5556002 C756.170186,83.6057276 756.266218,83.6562547 756.36198,83.7071973 L756.933586,84.0179694 L757.500364,84.3394872 C757.594517,84.3940118 757.688537,84.4490163 757.782459,84.5045167 L758.345095,84.8435984 C781.810967,99.2605806 794.462107,126.628213 789.702064,154.145127 L788.142133,163.280802 L782.832309,194.237302 L778.364346,220.064031 L774.482406,242.257456 L771.621067,258.390653 L769.101,272.348 L771.295993,269.852533 L774.043786,266.739862 L776.793479,263.637441 L779.544706,260.545669 L782.297099,257.464944 L785.050291,254.395664 L787.803915,251.338227 L790.557602,248.293032 L793.310987,245.260476 L796.063701,242.240957 C796.52241,241.738813 796.981076,241.237228 797.439691,240.736212 L800.190711,237.736997 L802.940142,234.751814 L805.687617,231.781064 L808.432769,228.825142 L811.17523,225.884448 L813.914633,222.95938 L816.650611,220.050335 L819.382797,217.157713 L822.110823,214.281911 C822.565127,213.804034 823.019242,213.326875 823.473161,212.850441 L826.194258,210.000616 L828.910278,207.168606 L831.620852,204.35481 L834.325613,201.559625 L837.024194,198.783451 L839.716228,196.026684 L842.401348,193.289724 L845.079186,190.572969 L847.749374,187.876816 L850.411546,185.201664 L853.065335,182.547911 L855.710372,179.915955 C856.150462,179.479134 856.590172,179.043238 857.029494,178.608275 L859.660716,176.009761 C860.098458,175.578564 860.535796,175.148316 860.972724,174.719026 L863.589304,172.15485 C864.02456,171.729426 864.459389,171.304976 864.893785,170.881509 L867.494897,168.352567 L870.085238,165.847612 C870.516043,165.43214 870.946385,165.017685 871.376254,164.604254 L873.94975,162.136025 L876.511556,159.69278 C877.363502,158.882572 878.213439,158.076595 879.061305,157.274914 L881.59863,154.882828 L882.862519,153.696576 L885.380519,151.343903 C885.799084,150.954012 886.217093,150.565235 886.634538,150.177583 L889.132387,147.865221 C889.547548,147.482097 889.96213,147.100114 890.376125,146.719279 L892.852996,144.448124 L895.315423,142.204936 C895.724604,141.833425 896.133167,141.463095 896.541105,141.093955 L898.981177,138.893467 L901.405887,136.721943 L902.612366,135.647167 L904.581572,133.90125 C904.6991,133.797361 904.818108,133.693126 904.938788,133.588361 L905.684466,132.951896 L906.479473,132.29371 C906.753719,132.069697 907.03772,131.840569 907.33301,131.60483 L908.254281,130.876289 C929.398968,114.295961 960.327983,129.58312 960.005333,156.451242 L958.66701,264.652601 C958.581835,271.578962 956.251469,278.290679 952.025989,283.779491 L950.274111,286.043302 L949.077001,287.568265 L898.96,350.289 L898.71382,350.626626 L877.173692,380.295856 L838.344892,433.926973 L835.611962,437.735956 L834.24629,439.736591 C791.421853,502.977187 733.143354,632.26496 660.576156,826.03843 C656.974649,835.655401 651.693529,846.021616 644.739397,857.291122 L643.597036,859.126552 C642.440013,860.969948 641.239004,862.837317 639.994038,864.729315 L638.734421,866.629547 C637.88491,867.901874 637.015866,869.185244 636.127298,870.479853 C635.431661,871.49337 634.6782,872.465961 633.870663,873.392789 C619.117621,890.325171 597.160472,899.493653 574.31934,897.74014 L572.484338,897.593743 L570.484135,897.422395 L568.508244,897.240528 L566.556365,897.047985 L565.173367,896.90364 C558.402157,896.179257 552.153536,895.260107 546.406272,894.131533 L544.870952,893.822234 L543.194696,893.467293 L541.689785,893.132524 C539.040216,892.528119 536.48644,891.868486 533.972776,891.134494 L533.191927,890.90317 L532.098542,890.571281 L530.671866,890.124122 L529.237037,889.658995 L528.379585,889.374242 L527.658537,889.130581 L526.338686,888.675244 L525.482503,888.374202 L524.136111,887.890866 L522.652437,887.345837 L521.794688,887.025111 L520.402147,886.49515 L518.683745,885.827105 L516.870735,885.106109 L514.933668,884.318069 L512.575827,883.335816 L510.179986,882.313414 L507.820703,881.284068 L506.171979,880.552337 L504.505105,879.802615 L502.752096,879.003917 L500.192502,877.819501 L497.650312,876.622957 L495.800925,875.740684 L494.942607,875.327925 C481.29118,868.746623 470.454503,858.447077 463.204447,846.141695 L462.771,845.395 L462.287074,845.925243 C445.759237,863.894494 427.737863,878.118957 408.188916,888.044397 L407.636,888.322 L406.827793,888.80842 C375.763926,907.103416 325.129189,901.07335 266.108097,869.50712 L264.26097,868.512361 C234.255354,852.241767 214.090985,821.072477 201.605453,778.119845 C197.869493,765.267425 194.803281,751.279447 192.37806,736.221581 L192.191,735.05 L191.153765,736.260141 C189.541129,738.132238 187.932072,739.96725 186.326497,741.7652 L185.122966,743.106714 L183.356382,745.052948 L182.041995,746.483971 C177.510604,751.39063 173.002454,756.00431 168.514365,760.32511 L165.962009,762.776077 C165.537803,763.182388 165.114189,763.587608 164.691164,763.991742 L162.160073,766.403521 L159.643016,768.789346 C159.22467,769.184829 158.806904,769.579236 158.389715,769.97257 L155.893497,772.319725 L153.411027,774.641273 L150.942194,776.937351 C150.531852,777.317916 150.122073,777.697425 149.712856,778.075882 L147.264263,780.334015 L144.829021,782.567024 L142.407017,784.775047 L139.998137,786.958222 L137.602266,789.116687 L135.219291,791.250582 L132.849098,793.360042 L130.491574,795.445208 L128.146604,797.506217 L125.814074,799.543206 C125.42635,799.880711 125.039139,800.21722 124.652439,800.552737 L122.338357,802.553958 L120.036431,804.531505 C119.653783,804.859131 119.271637,805.185777 118.889991,805.511444 L116.606085,807.45374 L114.334051,809.372708 L112.073774,811.268486 L109.82514,813.141213 L107.588037,814.991025 L105.36235,816.818063 L103.147965,818.622463 L100.944768,820.404364 L98.7526452,822.163904 L96.5714833,823.901221 L94.4011683,825.616453 C94.0403467,825.900493 93.6799723,826.183618 93.3200427,826.465831 L91.1657844,828.148196 C90.8076247,828.426774 90.4499051,828.704447 90.0926232,828.981217 L87.9541654,830.631025 L85.8260991,832.2593 L83.7083104,833.866182 L81.6006854,835.451808 L79.5031103,837.016316 C79.1543456,837.275315 78.8059949,837.53344 78.4580559,837.790694 L76.3753422,839.323785 L74.3023937,840.836104 L72.2390968,842.327789 C71.5529271,842.821594 70.8683469,843.311982 70.1853375,843.798978 L68.1410019,845.249809 C67.8010583,845.489926 67.4615026,845.7292 67.1223324,845.967634 L65.0919191,847.388188 C64.7542816,847.623275 64.4170249,847.857529 64.0801467,848.090952 L62.0633994,849.481539 C61.7280254,849.711649 61.393025,849.940934 61.058396,850.169397 L59.0550587,851.530328 C58.7219054,851.755513 58.3891187,851.979881 58.0566962,852.203436 L56.0665126,853.535023 L55.1351434,854.15247 L51.5862286,856.48213 C30.3133324,870.387205 2.10030386,855.139233 2.07790089,829.724931 L1.99999999,741.366963 C1.99999999,733.43116 4.93501714,725.775857 10.2548707,719.887209 L16.1142482,713.376702 C69.5062863,653.691971 108.661972,599.897859 133.598632,552.277438 C152.164941,516.822187 168.840118,480.443672 183.966643,441.784123 L184.160031,441.288351 L184.553045,440.271755 L185.158068,438.684567 L185.781547,437.023156 L186.641277,434.693515 L187.533131,432.2344 L188.222869,430.305947 L189.170002,427.623656 L190.148184,424.815781 L191.157024,421.883739 L191.933539,419.604074 L192.995089,416.458143 L194.086221,413.191937 L195.491139,408.942197 L197.236171,403.601251 L198.132491,400.833475 L200.284477,394.127189 L202.19526,388.107045 L203.833267,382.902183 L205.852556,376.434793 L207.92916,369.730217 L210.42254,361.614808 L213.300646,352.167178 L215.371077,345.322502 L217.376751,338.656473 L219.807402,330.535361 L222.258337,322.301904 L224.733093,313.945569 L227.23521,305.455825 L229.768224,296.822139 L232.983332,285.811568 L236.259157,274.539059 L238.928175,265.318635 L250.922905,223.713517 L286.862773,103.017243 L286.953305,102.728285 C294.695575,78.4202899 316.286262,61.1443549 341.702405,58.9096579 Z M380.907718,91.1946723 C369.954782,89.7519272 357.820599,89.6159296 344.50517,90.7866796 C338.819372,91.2865994 333.521398,93.3087059 329.07008,96.4858601 C328.057463,97.9977314 327.250516,99.6686973 326.692157,101.463359 C277.639315,259.080879 247.1242,388.635359 235.13396,490.042743 C234.42475,496.04088 233.752534,502.002913 233.11782,507.9256 L232.582975,512.992477 C224.610811,589.691671 223.000906,659.584574 228.868353,715.543464 C234.237173,766.746858 245.702093,804.851848 263.077934,827.841875 C268.075001,832.934542 273.544522,837.144546 279.514752,840.381913 C319.794538,862.223692 349.532388,868.081174 369.23891,866.843548 C366.672756,865.652679 364.183617,864.301529 361.743543,862.754132 C342.25058,850.39248 329.835963,827.884698 326.734237,792.222675 C326.685673,791.664304 326.637466,791.104495 326.589618,790.543262 L326.306847,787.158915 C326.26044,786.592053 326.214394,786.0238 326.16871,785.454173 L325.898966,782.020032 L325.637977,778.553657 L325.385797,775.055817 L325.142484,771.527279 L324.908092,767.968814 L324.682678,764.38119 C324.64586,763.780865 324.609419,763.179358 324.573355,762.576683 L324.361511,758.946762 L324.158785,755.289604 C324.12576,754.677851 324.093117,754.064994 324.060858,753.451051 L323.871912,749.75448 C323.841191,749.136254 323.810855,748.516973 323.780906,747.896653 L323.605866,744.162397 C323.577469,743.537987 323.549462,742.912569 323.521845,742.286161 L323.360836,738.515952 C323.334784,737.885645 323.309126,737.254379 323.283861,736.622171 L323.137009,732.817738 L322.999664,728.99145 L322.871883,725.144076 L322.753721,721.276385 C322.734832,720.63012 322.716346,719.983039 322.698265,719.335161 L322.594636,715.438436 L322.500766,711.523316 L322.416711,707.59057 L322.342527,703.640967 C322.330988,702.981337 322.319863,702.321038 322.309153,701.660084 L322.249879,697.686636 C322.240832,697.023129 322.232203,696.359 322.223992,695.694264 L322.179753,691.698702 L322.145608,687.689359 L322.121612,683.667002 L322.107821,679.632402 C322.106377,678.958991 322.105359,678.285102 322.104771,677.61075 L322.106393,673.559225 L322.118359,669.497379 L322.140727,665.425979 C322.145324,664.746659 322.150358,664.066973 322.155828,663.386937 L322.193901,659.302649 C322.201123,658.621277 322.208784,657.939587 322.216886,657.257596 L322.27079,653.16215 C322.280657,652.479014 322.290968,651.795609 322.301722,651.11195 L322.371582,647.007076 C322.384116,646.322465 322.397096,645.637633 322.410524,644.952595 L322.496466,640.840023 C322.511688,640.154225 322.527359,639.468254 322.543481,638.782125 L322.645631,634.663585 C322.68149,633.290192 322.719162,631.916297 322.758656,630.542027 L322.882611,626.418221 C325.049295,557.375475 331.654735,490.700847 342.995053,431.344157 C357.692886,354.413796 385.650308,257.20682 426.865173,139.662723 L429.485845,132.211844 L432.141772,124.706879 L433.482956,120.934114 C434.604495,117.783667 434.496954,114.463723 433.379512,111.531096 C431.314989,109.267782 428.799986,107.354574 425.89401,105.940758 C409.32047,97.8773934 394.32504,92.9620316 380.907718,91.1946723 Z M661.76433,98.580946 L660.839799,98.6110202 C658.517771,98.6962491 656.192071,98.8264699 653.862637,99.0016844 C644.070064,99.7376065 636.126317,107.222154 634.808628,116.958521 L629.82767,153.458258 L626.532177,178.513397 L625.12727,189.01713 L624.406159,194.316275 L623.675078,199.634128 C623.552355,200.522218 623.429185,201.411256 623.305548,202.301323 L622.558013,207.654759 L621.414017,215.740049 L620.635059,221.17285 L619.842133,226.644416 L619.034439,232.158761 L618.211177,237.719894 C618.072625,238.650872 617.933391,239.583966 617.793458,240.519261 L616.945345,246.158101 L616.514751,248.998577 C607.282056,309.744801 596.599853,369.876698 584.207836,427.651473 L582.751144,434.415981 L581.274597,441.219128 L579.778195,448.060916 C579.52714,449.204434 579.275258,450.349562 579.022549,451.4963 L577.496365,458.396049 L575.950326,465.334438 C575.690998,466.494056 575.430843,467.655285 575.169861,468.818123 L573.59404,475.814475 C573.329748,476.983753 573.064629,478.154642 572.798683,479.327141 L571.19308,486.381456 L569.567622,493.474412 L567.922309,500.606012 C567.646435,501.797832 567.369734,502.991262 567.092206,504.186303 L565.417111,511.375867 L563.722161,518.604075 L562.007356,525.870928 L560.272696,533.176424 L558.518182,540.520566 C558.224108,541.74781 557.929207,542.976664 557.633479,544.207128 L555.849183,551.609237 L554.045031,559.049992 L552.221025,566.529393 L550.377165,574.047441 L548.513449,581.604135 C547.888902,584.129474 547.261045,586.661254 546.629879,589.199476 L544.726454,596.833465 L542.803175,604.506101 C542.480974,605.788095 542.157945,607.071699 541.83409,608.356913 L539.881028,616.087522 L537.908112,623.85678 L535.915341,631.664687 L533.902716,639.511244 L531.870236,647.39645 C531.529835,648.713872 531.188606,650.032904 530.84655,651.353547 L528.784288,659.296729 L526.702172,667.278562 L524.600201,675.299046 C524.248218,676.639014 523.895407,677.980593 523.54177,679.323782 L521.410017,687.402243 C521.05307,688.751875 520.695296,690.103116 520.336695,691.455969 L518.17516,699.592408 L515.993771,707.7675 L513.792527,715.981246 L511.571429,724.233644 L509.330476,732.524696 L507.069668,740.854403 L504.789006,749.222763 L502.48849,757.629779 L500.168119,766.07545 C499.779736,767.486283 499.390526,768.898726 499.000488,770.312781 L496.650336,778.816435 L494.280329,787.358745 C493.883673,788.785685 493.48619,790.214235 493.08788,791.644396 L490.688091,800.244691 C490.286472,801.681295 489.884026,803.11951 489.480752,804.559335 L487.051182,813.217616 C486.570963,814.926444 486.255339,816.64819 486.096162,818.36442 C489.000836,830.334936 497.0874,840.837355 508.839092,846.502803 L509.668744,846.901759 L511.310175,847.684952 L512.927778,848.448524 L515.309506,849.55709 L517.637619,850.621507 L519.15991,851.306591 L520.658373,851.972053 L522.497943,852.776287 L524.300281,853.549862 L526.413942,854.437681 L528.473989,855.281351 L530.480423,856.080872 L531.78826,856.589358 L533.389549,857.197372 L534.953606,857.774727 L536.178045,858.214537 L536.781329,858.427083 L537.970025,858.83746 L539.134894,859.228215 L540.275934,859.599347 L541.393147,859.950858 L542.486531,860.282747 L543.024287,860.441333 C545.146549,861.060946 547.424049,861.636658 549.856787,862.168467 L551.199131,862.454191 L552.572266,862.731206 C557.663545,863.730967 563.375778,864.555117 569.708966,865.203659 L571.451595,865.37618 L573.225015,865.539993 L575.029226,865.695098 L576.864228,865.841495 C584.815795,866.451887 592.462058,864.657207 599.028413,861.026847 C602.426333,857.614213 604.919507,853.247039 606.053193,848.265876 L606.034,848.346 L606.051628,848.264725 L609.720327,832.136091 L613.3224,816.267275 L618.021524,795.513025 L621.468135,780.250474 L624.848116,765.247762 L629.251112,745.64835 L632.475622,731.251952 L636.671317,712.460983 L640.748553,694.132001 L644.707324,676.265022 L648.54763,658.860061 L651.350115,646.109549 L654.983099,629.513155 L657.630089,617.369084 L661.055742,601.581303 L663.547232,590.04371 L665.972076,578.766046 L668.330274,567.748318 L669.86538,560.547577 L672.112499,549.963089 L673.573551,543.051181 L675.709587,532.89995 L677.096583,526.276886 L679.121533,516.55893 L680.434471,510.224722 L682.348333,500.940059 L684.19554,491.91538 L685.976091,483.150691 L687.126093,477.452007 L688.24647,471.86888 L689.337221,466.40131 L690.398345,461.049299 L691.429843,455.81285 L692.431714,450.691965 L694.224165,441.457724 L696.172208,431.372313 L698.122014,421.229754 L700.724497,407.617441 L702.678416,397.341532 L704.634099,387.008471 L707.244418,373.142155 L709.204214,362.67574 L711.820019,348.631617 L713.129097,341.571453 L715.094184,330.93358 L716.405221,323.809912 L718.373247,313.076782 L721.000026,298.677035 L722.972168,287.810543 L724.946074,276.886896 L726.921744,265.906092 L728.899178,254.868132 L730.878377,243.773014 L732.85934,232.620739 L734.842067,221.411305 L737.488449,206.37648 L739.475294,195.033676 L742.127166,179.821021 L743.454279,172.176587 L745.446419,160.662302 L748.105351,145.221004 L750.10161,133.573342 C751.36005,126.211953 749.000594,119.061744 744.307348,113.952807 C743.434246,113.299136 742.529293,112.683602 741.593832,112.108873 C741.219912,111.879144 740.204777,111.507734 738.645593,111.03197 L737.645574,110.734287 C737.468282,110.682686 737.285744,110.630116 737.098057,110.576614 L735.910925,110.244723 C735.703031,110.187645 735.490182,110.129709 735.272476,110.070954 L733.908725,109.708886 L732.433059,109.32894 L730.850141,108.932907 L729.164634,108.522578 L727.381204,108.099746 C727.076065,108.028332 726.767039,107.956471 726.454225,107.884201 L724.532654,107.445973 L722.524819,106.999721 L720.435384,106.547236 L718.269013,106.090309 C715.698515,105.555334 712.980461,105.01495 710.148179,104.481959 L707.693313,104.027219 C693.584648,101.455243 676.988886,99.1457699 661.76433,98.580946 Z M620.936603,106.88545 L620.429695,107.283296 C595.520626,127.290348 574.936283,184.725751 552.35495,263.059907 L550.474698,269.613771 C549.217956,274.014583 547.954555,278.478067 546.683422,283.001416 L544.770788,289.830988 C544.131221,292.122244 543.489587,294.428116 542.845751,296.748252 L540.907505,303.751106 L538.955246,310.837444 L536.180267,320.955742 L533.373642,331.229595 L523.268789,368.32818 L520.291935,379.229262 L517.271067,390.253557 C516.948258,391.429127 516.624669,392.606677 516.300287,393.786174 L513.359122,404.453403 L510.373197,415.220722 C510.038869,416.422462 509.703675,417.625961 509.367604,418.831187 L507.340556,426.083017 C507.000928,427.295025 506.660399,428.508698 506.318956,429.724003 L504.259243,437.035173 L502.177028,444.384008 C501.828085,445.611868 501.478181,446.841235 501.127302,448.072076 L499.010249,455.474568 L496.869245,462.910936 C496.151522,465.395204 495.429709,467.884865 494.703712,470.379667 C459.451388,591.520065 406.067028,701.798631 340.827912,766.193918 L340.871875,766.892825 C340.909696,767.480976 340.947887,768.067912 340.986444,768.653615 L341.222195,772.152927 L341.466714,775.621903 L341.719946,779.059777 L341.981834,782.465779 C342.026201,783.030747 342.070925,783.594355 342.116007,784.156588 L342.390776,787.51334 L342.67406,790.836299 C345.363104,821.753511 355.259862,839.696398 370.312344,849.242076 C374.54775,851.928 379.065148,853.871324 384.16211,855.389508 L384.629828,855.524931 L385.459787,855.752913 L386.414876,856.004404 L387.826724,856.364027 L389.515743,856.782531 L392.066439,857.399125 L395.835027,858.284405 L395.980016,858.325289 C434.560603,837.740599 465.412785,795.938762 488.512364,748.09032 L490.48814,740.851212 C490.867413,739.459573 491.24586,738.069546 491.623479,736.681132 L493.879276,728.369996 L496.115231,720.097559 L498.331342,711.863821 L500.527611,703.668784 L502.704037,695.512447 C503.065122,694.156283 503.425379,692.801731 503.78481,691.448792 L505.931472,683.350507 L508.058291,675.290923 L510.165268,667.270042 L512.252402,659.287864 L514.319693,651.344389 L516.367141,643.439617 C516.706729,642.12538 517.04549,640.812756 517.383425,639.501745 L519.401109,631.65503 C519.735736,630.350469 520.069536,629.047521 520.40251,627.746186 L522.39043,619.957528 C522.720096,618.662644 523.048936,617.369373 523.376949,616.077714 L525.335105,608.347114 C525.65981,607.061906 525.983689,605.778311 526.306742,604.496329 L528.235133,596.823789 C528.554878,595.548258 528.873796,594.27434 529.191888,593.002034 L531.090515,585.387554 L532.969299,577.811782 L534.828241,570.274718 L536.66734,562.776363 L538.486595,555.316717 L540.286008,547.89578 L542.065578,540.513553 L543.825305,533.170036 L545.565189,525.865231 L547.28523,518.599136 C547.57025,517.391347 547.854443,516.18517 548.137809,514.980606 L549.828086,507.77258 C550.108145,506.574468 550.387377,505.377969 550.665783,504.183084 L552.326295,497.033127 C552.876492,494.65626 553.423381,492.285845 553.966964,489.921882 L555.58779,482.849352 C555.856274,481.673823 556.123931,480.499907 556.390762,479.327605 L557.981823,472.313146 L559.553041,465.337402 C559.813258,464.178004 560.072647,463.020219 560.331209,461.864048 L561.872663,454.946377 L563.394274,448.067422 L564.896041,441.227184 C565.144682,440.090371 565.392497,438.955171 565.639484,437.821584 L567.111487,431.039421 C567.598848,428.785153 568.082901,426.537338 568.563647,424.295976 C580.8813,366.867905 591.508844,307.043693 600.696413,246.59438 C600.983704,244.70416 601.268015,242.823689 601.549479,240.952303 L602.385462,235.364728 L603.20516,229.82766 L604.009369,224.337102 L604.798884,218.889058 L605.574503,213.479532 L606.337021,208.104528 L607.087236,202.76005 L608.191229,194.791827 L609.272018,186.869808 L609.99639,181.48614 L613.752944,152.970951 L618.953838,114.807802 C619.32646,112.0545 619.998906,109.402859 620.936603,106.88545 Z M234.396424,392.378209 L233.663339,394.71704 L231.994312,400.002533 C225.079116,421.814638 218.678447,440.890991 213.766706,453.44415 C200.646418,486.976269 186.837109,517.682196 172.651715,546.166294 L170.715042,550.036774 C167.806623,555.822008 164.883065,561.515431 161.947044,567.122218 C136.716841,615.303208 98.2599207,668.685504 46.576284,727.269107 L43.2944676,730.97604 C41.644766,732.832964 39.9818743,734.695075 38.3057925,736.562373 L37.9710108,736.935094 L34,741.338755 L34.0778885,829.696723 L36.4089904,828.169242 L39.1815434,826.332005 L40.8869453,825.186124 C41.1725508,824.993328 41.4588445,824.79962 41.7458293,824.604994 L43.4760588,823.426154 L45.2230306,822.224944 L46.9868974,821.001044 L48.7678116,819.754137 L50.5659259,818.483901 L52.3813928,817.19002 L54.2143648,815.872174 L56.0649944,814.530044 L57.9334343,813.163312 L59.8198368,811.771659 L61.7243547,810.354765 L63.6471404,808.912312 C63.9691355,808.669756 64.2918981,808.426121 64.6154314,808.181402 L66.5659049,806.700013 L68.5350276,805.192268 C68.8647773,804.938763 69.1953103,804.684147 69.52663,804.428412 L71.5240125,802.880536 L73.5404256,801.305506 L75.5760217,799.703004 C75.9168948,799.433613 76.2585736,799.163065 76.6010611,798.891351 L78.665718,797.247044 C79.0114536,796.970646 79.3580044,796.69307 79.7053735,796.414309 L81.7994342,794.727479 L83.9132882,793.011901 L86.0470881,791.267257 C86.404392,790.974043 86.7625334,790.679605 87.1215153,790.383936 L89.2855199,788.595095 L91.4698517,786.776391 L93.6746631,784.927506 L95.9001069,783.048119 C96.272742,782.732329 96.6462432,782.415254 97.0206135,782.096888 L99.2772917,780.171153 L101.554984,778.21412 C101.936358,777.885322 102.318615,777.555206 102.701757,777.223767 L105.011255,775.219189 C105.397951,774.882427 105.785537,774.544328 106.174018,774.204884 L108.515666,772.152045 L110.878938,770.066632 L113.263986,767.948327 L115.670963,765.796812 L118.100022,763.611766 C118.506713,763.24478 118.914331,762.876384 119.322879,762.506571 L121.785346,760.270633 L124.270275,758.000369 C125.102346,757.237858 125.938185,756.469572 126.77782,755.69546 L129.308133,753.355586 L131.861366,750.980429 L134.437672,748.56967 L137.037203,746.12299 L139.660113,743.640071 C140.099221,743.223213 140.53931,742.804832 140.980382,742.384922 L143.638645,739.847045 L146.320667,737.272132 C150.716373,733.040272 155.163986,728.464129 159.663503,723.543706 L161.353255,721.682409 C167.275901,715.111387 173.287959,707.947287 179.389421,700.190114 L181.135128,697.957641 L182.009807,696.829301 L183.683025,694.652791 C189.547046,686.98354 195.492527,678.773907 201.519461,670.023896 L209.496598,657.973543 C208.661766,612.962737 211.268397,562.490293 216.929898,508.842995 L217.480815,503.701194 C218.041025,498.549856 218.629081,493.37013 219.244643,488.164017 C222.744396,458.564879 227.795094,426.636946 234.396424,392.378209 Z M928,156.057762 L927.486741,156.462692 L926.807465,157.008279 L926.236921,157.479696 L925.916967,157.752769 L923.880869,159.556399 C864.191385,212.634837 787.662992,295.434596 722.543709,378.353057 L721.661316,383.05527 L719.702108,393.438859 L717.092547,407.194794 L714.486091,420.849186 L712.533285,431.023346 L709.932261,444.500047 L708.136972,453.748903 L707.122438,458.934379 L705.544001,466.933385 L703.897599,475.197346 L702.183231,483.72627 L701.002559,489.559423 L699.79168,495.510342 L698.550592,501.579028 L696.632318,510.902877 L694.646074,520.491714 L693.284149,527.03149 L691.892014,533.689044 L689.747166,543.896211 L688.279504,550.848217 L686.021365,561.497071 L683.69525,572.410946 L680.488019,587.375044 L678.839084,595.033783 L676.309032,606.742759 L674.584563,614.69599 L671.941208,626.846714 L670.141203,635.09445 L666.450547,651.943341 L662.639028,669.263468 L659.701071,682.562821 L656.695126,696.127261 L653.621191,709.956792 L650.479266,724.051423 L646.184267,743.256651 L641.768392,762.933192 L638.377158,777.999907 L633.749741,798.501285 L629.319251,818.072085 C629.780128,816.965887 630.209928,815.880442 630.60865,814.815749 C704.785666,616.74364 764.302886,485.046891 809.16031,419.725501 L809.255596,419.588161 L810.52184,417.809427 L817.411921,408.250986 L849.43656,364.04044 L873.624689,330.734988 L923.876112,267.846073 L924.688353,266.815344 L926.669429,264.259121 L928,156.057762 Z" id="Combined-Shape" fill="#000000" fill-rule="nonzero"></path>
    </g>
</svg>