<?xml version="1.0" encoding="UTF-8"?>
<svg width="960px" height="960px" viewBox="0 0 960 960" version="1.1" xmlns="http://www.w3.org/2000/svg" xmlns:xlink="http://www.w3.org/1999/xlink">
    <title>com.ikea/drivers/ormanas/assets/pair</title>
    <style type="text/css">
        #light {
            animation: flash 6s infinite;
        }
        #pair {
            animation: press 6s infinite;
        }

        @keyframes press {
            0%,  25%, 100% {
                fill: rgba(0,0,0,0);
            }
            5%, 20% {
                fill: #0074CC;
            }
        }

        @keyframes flash {
            0%, 30%, 50%, 70%, 90%, 100% {
                fill: rgba(0,0,0,0);
            }
            40%, 60%, 80% {
                fill: #FFF67A;
            }
        }
    </style>
    <g id="com.ikea/drivers/ormanas" stroke="none" stroke-width="1" fill="none" fill-rule="evenodd">
        <path d="M593,585 C665.572785,585 726.647041,636.352748 740.875141,705.286268 L741.314,707.5 L970.999961,707.5 C981.930612,707.499979 990.813225,716.268713 991,727.15551 L991,743.5 C991,754.545651 982.045764,763.499937 971.000114,763.5 L741.501,763.501 L741.080255,765.703215 C727.400558,834.348753 667.303328,885.857477 595.401067,886.981248 L593,887 L367,887 C294.037897,887 232.751439,835.111481 218.919745,765.703215 L218.498,763.501 L-10.000114,763.5 C-20.9307056,763.499938 -29.8132265,754.731226 -30,743.844488 L-30,727.5 C-30,716.45429 -21.045671,707.499978 -9.99996065,707.5 L218.685,707.5 L219.124859,705.286268 C233.196606,637.110259 293.090581,586.130755 364.611703,585.018559 L367,585 L593,585 Z M592.614035,605 L367,605 C297.506129,605 240.650906,659.112488 236.271311,727.500484 L235.891194,727.500484 C235.711241,730.310476 235.619883,733.144569 235.619883,736 C235.619883,738.518026 235.690927,741.019459 235.831119,743.502404 L236.211179,743.501404 C240.098568,812.360257 297.168386,867 367,867 L592.614035,867 C664.963337,867 723.614035,808.349302 723.614035,736 C723.614035,663.650698 664.963337,605 592.614035,605 Z M733.614035,736 C733.614035,738.516728 733.548098,741.018055 733.417857,743.502349 L971,743.5 L971,727.5 L733.362003,727.499249 C733.52923,730.311437 733.614035,733.145815 733.614035,736 Z M225.871915,727.499249 L-10,727.5 L-10,743.5 L225.816061,743.502349 C225.68582,741.018055 225.619883,738.516728 225.619883,736 C225.619883,733.145815 225.704688,730.311437 225.871915,727.499249 Z" id="Combined-Shape" fill="#000000" fill-rule="nonzero"></path>
        <path d="M981,43 L981,88.0731707 L179.040825,88.0731707 C135.395849,88.0731707 100.014604,124.305346 100.014604,169 C100.014604,213.694654 135.395849,249.926829 179.040825,249.926829 L762.214937,249.926829 L762.214,250 L782.00014,250 C849.931087,250 905,306.412122 905,376 C905,445.587878 849.931087,502 782.00014,502 L-12,502 L-12,456.926829 L782.00014,456.926829 C825.630586,456.926829 861.00005,420.694654 861.00005,376 C861.00005,331.305346 825.630586,295.073171 782.00014,295.073171 L195.829672,295.073171 L195.829,295 L179.040825,295 C111.76679,295 57.1030317,239.71048 56.016484,171.08364 L56,169 C56,99.4121215 111.087254,43 179.040825,43 L981,43 Z" id="light" fill="#FFF67A"></path>
        <path d="M981,33 C986.522847,33 991,37.4771525 991,43 L991,88.0731707 C991,93.5960182 986.522847,98.0731707 981,98.0731707 L179.040825,98.0731707 C140.972586,98.0731707 110.014604,129.775702 110.014604,169 C110.014604,208.224298 140.972586,239.926829 179.040825,239.926829 L762.214937,239.926829 C762.586464,239.926829 762.953213,239.947076 763.314147,239.986522 L763.428,240 L782.00014,240 C854.773504,240 913.80877,299.729735 914.982198,373.752556 L915,376 C915,451.057509 855.508589,512 782.00014,512 L-12,512 C-17.5228475,512 -22,507.522847 -22,502 L-22,456.926829 C-22,451.403982 -17.5228475,446.926829 -12,446.926829 L782.00014,446.926829 C820.053084,446.926829 851.00005,415.225023 851.00005,376 C851.00005,336.774977 820.053084,305.073171 782.00014,305.073171 L195.829672,305.073171 C195.45767,305.073171 195.090379,305.052848 194.728854,305.013249 L194.625,305 L179.040825,305 C107.056623,305 48.3752944,246.543417 46.0693729,173.384152 L46.0167969,171.162749 L46,169 C46,93.9417655 105.510517,33 179.040825,33 L981,33 Z M971,53 L179.040825,53 C116.663991,53 66,104.882478 65.9996871,168.920891 L66.0152308,170.925333 C67.0174487,234.225859 117.361559,285 179.040825,285 L195.829,285 C196.201002,285 196.568293,285.020322 196.929818,285.059921 L197.04,285.073 L782.00014,285.073171 C830.716008,285.073171 870.203269,325.024541 870.988143,374.497923 L871.00005,376 C871.00005,426.164284 831.208087,466.926829 782.00014,466.926829 L-2,466.926 L-2,492 L782.00014,492 C843.730051,492 893.985901,441.150695 894.984845,377.919837 L895,376 C895,311.881752 844.353585,260 782.00014,260 L762.214,260 C761.842472,260 761.475724,259.979753 761.11479,259.940308 L761,259.926 L179.040825,259.926829 C130.311329,259.926829 90.8116361,219.97617 90.0265152,170.502098 L90.0146042,169 C90.0146042,118.83499 129.819111,78.0731707 179.040825,78.0731707 L971,78.073 L971,53 Z" id="Combined-Shape" fill="#000000" fill-rule="nonzero"></path>
        <circle id="pair" fill="#0074CC" cx="377.72807" cy="698.845029" r="7.27777778"></circle>
        <path d="M377.72807,682.845029 C386.564626,682.845029 393.72807,690.008473 393.72807,698.845029 C393.72807,707.681585 386.564626,714.845029 377.72807,714.845029 C368.891514,714.845029 361.72807,707.681585 361.72807,698.845029 C361.72807,690.008473 368.891514,682.845029 377.72807,682.845029 Z M377.72807,692.845029 C374.414362,692.845029 371.72807,695.531321 371.72807,698.845029 C371.72807,702.158738 374.414362,704.845029 377.72807,704.845029 C381.041779,704.845029 383.72807,702.158738 383.72807,698.845029 C383.72807,695.531321 381.041779,692.845029 377.72807,692.845029 Z" id="Oval" fill="#000000" fill-rule="nonzero"></path>
    </g>
</svg>