<?xml version="1.0" encoding="UTF-8"?>
<svg width="960px" height="960px" viewBox="0 0 960 960" version="1.1" xmlns="http://www.w3.org/2000/svg" xmlns:xlink="http://www.w3.org/1999/xlink">
    <title>com.ikea/drivers/silverglans/assets/pair</title>
        <style type="text/css">
#pair-led {
	animation: flash 13s infinite;
}
#pair-button {
	animation: press 13s infinite;
}

@keyframes press {
	0%,  60%, 100% {
		fill: rgba(0,0,0,0);
	}
	10%, 30%, 50% {
		fill: #0074CC;
	}
}

@keyframes flash {
	0%, 44%, 68%, 76%, 84%, 92%, 100% {
		fill: rgba(0,0,0,0);
	}
	50%, 61%, 72%, 80%, 88%, 96% {
		fill: #0074CC;
	}
}
</style>
    <g id="com.ikea/drivers/silverglans/assets/pair" stroke="none" stroke-width="1" fill="none" fill-rule="evenodd">
        <path d="M279.471899,448.811932 C286.216378,451.674794 294.358062,447.695573 297.656859,439.924094 C300.955656,432.152615 298.162379,423.531779 291.4179,420.668918 C284.673422,417.806056 276.531738,421.785277 273.232941,429.556756 C269.934144,437.328235 272.727421,445.949071 279.471899,448.811932 Z" id="pair-button"  fill="#0074CC"></path>
        <path d="M279.471899,448.811932 C286.216378,451.674794 294.358062,447.695573 297.656859,439.924094 C300.955656,432.152615 298.162379,423.531779 291.4179,420.668918 C284.673422,417.806056 276.531738,421.785277 273.232941,429.556756 C269.934144,437.328235 272.727421,445.949071 279.471899,448.811932 Z" stroke="#000000" stroke-width="10" stroke-linecap="round" stroke-linejoin="round"></path>
        <path d="M894.243394,234.784011 L897.366165,239.753453 C905.007512,251.913563 908.854231,266.073909 908.415828,280.428917 L903.055305,455.953194 C902.698128,467.648561 894.276817,477.531704 882.786377,479.740548 L107.271795,628.8202 C105.180313,629.222252 103.134746,628.943515 101.346339,628.151232 L101.163,628.066278 L100.905914,628.022375 C98.3074156,627.543278 95.806114,626.606889 93.5212135,625.249139 L93.0953597,624.989632 C78.7284417,616.014031 70,600.269221 70,583.329039 L70.0003631,475.121526 C67.5898362,475.56055 64.9962113,476.034151 62.2095239,476.54398 C62.0106632,476.580362 62.0106632,476.580362 61.8118073,476.616747 C40.8408734,480.453855 35.6785497,481.396257 31.8431695,482.057222 L31.6074949,482.097771 C31.5684555,482.104477 31.5295254,482.111158 31.4906888,482.117819 L31.2210518,482.163977 L30.9532491,482.209659 C30.9087017,482.217245 30.8641808,482.22482 30.8196615,482.232389 L30.552365,482.277762 C30.373914,482.308009 30.1946902,482.338298 30.0130969,482.368918 L29.7387303,482.415133 L29.59984,482.438495 C19.2746112,484.174433 1.92220705,483.343973 -12.2328864,481.618776 C-19.5747328,480.723966 -23.9232254,470.708527 -22.5561957,458.543736 C-22.3185957,456.429404 -20.9645557,452.46047 -18.3166539,445.772118 L-18.2675055,445.655622 L-18.2000592,445.490699 C-16.1879819,440.762386 -11.3823099,437.838756 -6.25827893,438.22567 L-5.95651681,438.252259 L-5.04379775,438.339857 C2.58787137,439.032187 10.9299436,438.833833 19.9811104,437.73572 L21.070654,437.599627 L21.5041236,437.543756 C24.7747748,437.120823 28.5069657,436.607381 34.0428862,435.816235 L34.7918156,435.709086 C39.6042229,435.01985 45.745383,434.126653 54.0235116,432.916776 C54.0404522,432.9143 54.0404522,432.9143 54.0573929,432.911824 C60.2565533,432.005794 65.5248184,431.238501 70.0025695,430.592087 L70,363.011778 C70,349.255597 81.1515879,338.104009 94.9077687,338.104009 L95.549,338.112278 L864.327552,221.087595 C876.136999,219.289909 887.887627,224.669717 894.243394,234.784011 Z M103.769906,357.091637 L97.573314,358.035373 C96.8178637,358.150369 96.0517217,358.178396 95.2898883,358.118904 C95.1628419,358.108983 95.0353819,358.104009 94.9077687,358.104009 C92.1972829,358.104009 90,360.301292 90,363.011778 L90.0030105,427.839742 C92.204112,427.582033 93.5119431,427.476622 94.2950765,427.476622 C102.303988,427.476622 109.877495,438.221685 109.877495,448.154309 C109.877495,453.741582 109.44249,457.640877 108.031124,461.193317 C105.976801,466.36409 101.971346,469.726207 96.1271106,470.545782 C95.322302,470.658646 94.2255067,470.830138 92.7994273,471.066431 L92.3616876,471.13927 C91.6520178,471.257832 90.8670371,471.391189 90.0027344,471.540004 L90,583.329039 C90,593.372095 95.174692,602.706469 103.692178,608.02769 C104.056356,608.255208 104.474705,608.381302 104.903954,608.392932 C104.954662,608.394306 105.004647,608.394221 105.053953,608.392718 C105.610939,608.375743 106.158766,608.404674 106.693774,608.476108 L106.954,608.514278 L112.244334,607.497786 C112.265117,607.304103 112.278318,607.108059 112.283627,606.909948 L118.185486,386.687937 C118.499691,374.963691 113.034531,363.950414 103.769906,357.091637 Z M867.337351,240.859826 L116.448036,355.162029 C124.16851,363.723033 128.500879,375.053333 128.181897,386.955837 L122.323,605.559949 L879.01084,460.100148 C881.234796,459.67263 882.883889,457.807678 883.052711,455.567868 L883.064626,455.342677 L888.425148,279.818401 C888.742278,269.43433 885.959654,259.191072 880.432085,250.394738 L877.309314,245.425295 C875.190725,242.053864 871.273849,240.260595 867.337351,240.859826 Z M857.864469,299.541377 C857.954709,300.172008 858,300.808254 858,301.445306 L858,439.199177 C858,445.67583 853.381136,451.231831 847.012384,452.416111 L699.905035,479.77095 C692.604039,481.128582 685.584611,476.311737 684.226703,469.012226 C684.075888,468.201509 684,467.378637 684,466.554017 L684,322.487027 C684,315.797862 688.91892,310.126283 695.542009,309.17894 L842.649357,288.137219 C850.000706,287.085708 856.812744,292.191523 857.864469,299.541377 Z M94.2334945,437.476622 L94.1742958,437.478376 C92.0528455,437.535233 81.6964081,438.979923 56.2940112,442.691195 L55.5035653,442.8067 C55.4866242,442.809176 55.4866242,442.809176 55.469683,442.811652 C47.3768735,443.994445 41.321838,444.875275 36.5478752,445.559639 L35.7848288,445.668911 C29.7683798,446.529581 25.8391123,447.069201 22.3449009,447.518109 C11.7832649,448.874983 2.01580083,449.106785 -6.95913977,448.20208 L-7.12486678,448.192083 C-7.95137955,448.177504 -8.70977295,448.675846 -9.01854551,449.455015 L-9.03250553,449.484622 L-9.17040124,449.836855 C-11.2714626,455.165875 -12.4695933,458.670501 -12.6104822,459.598567 L-12.6187456,459.660466 C-13.111837,464.04834 -12.6792592,467.580372 -11.6315349,469.993489 C-11.3046865,470.746286 -10.9496151,471.307711 -10.6299038,471.657814 L-10.5412855,471.748949 L-10.3244662,471.776232 C2.53961529,473.302221 18.4548172,474.047598 27.4576995,472.654988 L27.9418508,472.576899 C27.9876041,472.569207 28.0331476,472.561546 28.078506,472.553913 L28.348631,472.50841 C28.5274959,472.478246 28.7041864,472.44838 28.8802794,472.418526 L29.144168,472.37372 C29.2321129,472.358764 29.3201055,472.343775 29.408343,472.328719 L29.6739872,472.28331 L29.942283,472.23728 C30.077291,472.214074 30.2137369,472.190554 30.3522859,472.166602 L30.6323852,472.118085 C34.4096876,471.462535 39.9979222,470.442075 60.0119607,466.780053 C60.2109151,466.74365 60.2109151,466.74365 60.4098796,466.707249 C80.8031147,462.976276 90.7813153,461.197605 94.7383359,460.642686 C98.5917479,460.102298 99.8774952,456.866045 99.8774952,448.154309 C99.8774952,445.547269 98.860886,442.61131 97.2108068,440.270227 C96.4822954,439.236638 95.6913627,438.413945 94.9703749,437.899674 C94.6919796,437.701098 94.4516281,437.568495 94.2698721,437.498799 C94.2450777,437.489291 94.2314612,437.483841 94.2291234,437.480724 Z M843.608179,297.039253 L696.30217,318.10631 C694.407304,318.377306 693,319.999708 693,321.913199 L693,466.153665 C693,466.389554 693.021711,466.624943 693.06486,466.856856 C693.453357,468.944942 695.461617,470.32284 697.550433,469.934478 L844.856442,442.5467 C846.678543,442.207927 848,440.618586 848,438.765886 L848,300.846142 C848,300.663908 847.987042,300.481904 847.961225,300.301507 C847.660326,298.19902 845.711401,296.738459 843.608179,297.039253 Z" id="Combined-Shape" fill="#000000" fill-rule="nonzero"></path>
        <ellipse id="Oval" fill="#000000" cx="96.8272929" cy="408.833536" rx="11.0428858" ry="20.981483"></ellipse>
        <ellipse id="Oval" fill="#000000" cx="95.6648839" cy="486.133737" rx="9.88047676" ry="18.7729058"></ellipse>
        <ellipse id="Oval" fill="#000000" cx="95.6648839" cy="525.888125" rx="9.88047676" ry="18.7729058"></ellipse>
        <ellipse id="Oval" fill="#000000" cx="95.6648839" cy="565.642514" rx="9.88047676" ry="18.7729058"></ellipse>
        <g id="Group" transform="translate(227.000000, 432.000000)" fill="#000000" fill-rule="nonzero" stroke="#000000" stroke-width="2">
            <path d="M9.2123576,18.5194413 C7.68132974,19.0582381 5.98626317,18.9504788 4.61927401,18.3039226 C3.19760528,17.6573664 2.04933439,16.4720135 1.50253872,14.9633824 L1.50253872,14.9633824 C0.955743057,13.4547514 1.06510219,11.7844813 1.72125699,10.4374893 C2.37741179,9.03661758 3.58036225,7.90514429 5.11139011,7.36634748 C6.80645667,6.773671 8.50152323,6.18099451 10.1965898,5.53443835 C11.7276177,4.99564154 13.4226842,5.10340091 14.7896734,5.74995707 C16.2113421,6.39651324 17.359613,7.58186621 17.9064087,9.09049726 L17.9064087,9.09049726 L17.9064087,9.14437694 L18.4532043,8.87497854 L19,8.65945981 C18.3438452,6.82755068 16.9221765,5.42667899 15.2817895,4.67236346 C13.5867229,3.91804794 11.6729381,3.75640889 9.81383283,4.40296506 C8.11876627,4.99564154 6.42369971,5.58831803 4.72863314,6.23487419 C2.86952788,6.88143036 1.44785916,8.28230205 0.682345224,9.89869246 C-0.0831687065,11.5150829 -0.247207406,13.4008717 0.408947392,15.2327808 L0.463626958,15.3405402 C1.11978176,17.1724493 2.54145049,18.573321 4.18183748,19.3276365 C5.87690404,20.0819521 7.79068887,20.2435911 9.64979413,19.5970349 L14.7349938,17.7651258 L14.3522368,16.6875322 L9.2123576,18.5194413 Z" id="Path"></path>
            <path d="M31.5910526,4.76721917 L31.5910526,4.65945981 C30.9348978,2.82755068 29.5132291,1.42667899 27.8728421,0.672363462 C26.1777755,-0.0819520639 24.2639907,-0.243591105 22.4048854,0.40296506 L17.3196858,2.23487419 L17.7024427,3.3124678 L22.7876424,1.48055867 C24.3186703,0.941761864 26.0137368,1.04952123 27.380726,1.69607739 C28.8023947,2.34263356 29.9506656,3.52798652 30.4974613,5.03661758 L30.4974613,5.03661758 C31.0442569,6.54524863 30.9348978,8.21551872 30.278743,9.56251073 C29.6225882,10.9633824 28.4196378,12.0948557 26.8886099,12.6336525 C25.1935433,13.2802087 23.4984768,13.8728852 21.8034102,14.4655617 C20.2723823,15.0043585 18.6319953,14.8965991 17.2103266,14.2500429 C15.7886579,13.6034868 14.640387,12.4181338 14.0935913,10.9095027 L14.0935913,10.9095027 L14.0935913,10.8556231 L13.5467957,11.1250215 L13,11.3405402 C13.6561548,13.1724493 15.0778235,14.573321 16.7182105,15.3276365 C18.4132771,16.0819521 20.3270619,16.2435911 22.1861672,15.5970349 L27.2713669,13.7651258 C29.1304721,13.1185696 30.5521408,11.7176979 31.3176548,10.1013075 C32.0831687,8.43103744 32.2472074,6.54524863 31.5910526,4.76721917 Z" id="Path"></path>
        </g>
        <ellipse id="pair-led" fill="#0074CC" transform="translate(324.000000, 430.000000) rotate(20.000000) translate(-324.000000, -430.000000) " cx="324" cy="430" rx="9" ry="10"></ellipse>
    </g>
</svg>