<?xml version="1.0" encoding="utf-8"?>
<svg width="960px" height="960px" version="1.1" id="Layer_1" xmlns="http://www.w3.org/2000/svg"
     x="0px" y="0px" viewBox="0 0 960 960" enable-background="new 0 0 960 960" xml:space="preserve">
<style type="text/css">
        		#pair {
        			animation: fillpulse 4s infinite;
        		}

        		@keyframes fillpulse {
        			0%, 15%, 35%, 55%, 75%, 100% {
        				fill: rgba(255,255,255,0);
        			}
        			25%, 45%, 65%, 85% {
        				fill: #0078CC;
        			}
        		}
        </style>
  <g>
	<path id="Rectangle" fill="none" stroke="#000000" stroke-width="20" d="M286,10h388c152.4,0,276,123.6,276,276v387
		c0,152.4-123.6,276-276,276H286C133.6,949,10,825.4,10,673V286C10,133.6,133.6,10,286,10z"/>
    <path id="Rectangle_1_" fill="none" stroke="#000000" stroke-width="20" d="M328.9,117.4h302.2c117,0,211.9,94.9,211.9,211.9v301.3
		c0,117-94.9,211.9-211.9,211.9H328.9c-117,0-211.9-94.9-211.9-211.9V329.4C117,212.3,211.9,117.4,328.9,117.4z"/>
    <circle id="Oval" fill="none" stroke="#000000" stroke-width="10" cx="446" cy="540" r="269.5"/>
    <path id="Path" fill="none" stroke="#000000" stroke-width="5" d="M376.2,220l-67.9,21.4c-4.6,10.9-13.8,19.8-25.9,23.6
		c-21.9,6.9-45.2-5.1-52.1-26.8s5.3-45,27.2-51.9c12.2-3.8,24.8-1.8,34.8,4.5l67.9-21.4"/>
    <circle id="pair" fill="#004DFF" cx="269.6" cy="225.8" r="32.3"/>
    <circle id="Oval_1_" fill="none" stroke="#000000" stroke-width="7.5" cx="269.6" cy="225.8"
            r="29.9"/>
    <path id="Path_1_" stroke="#000000" stroke-width="2" d="M237.1,294.1c2.3,1.6,3.9,4.1,4.3,6.7c0.5,2.7,0,5.5-1.6,7.8l0,0
		c-1.6,2.3-4.1,3.9-6.7,4.3c-2.7,0.5-5.5-0.1-7.8-1.7c-2.6-1.8-5.1-3.6-7.7-5.3c-2.3-1.6-3.9-4.1-4.3-6.7c-0.5-2.7,0-5.5,1.6-7.8
		l0,0l0.1-0.1l-0.9-0.5l-0.9-0.6c-1.9,2.8-2.5,6.2-1.9,9.3c0.6,3.2,2.3,6,5.1,8c2.6,1.8,5.1,3.6,7.7,5.3c2.8,2,6.2,2.6,9.3,2
		c3.1-0.6,5.9-2.2,7.9-5l0.1-0.2c1.9-2.8,2.5-6.2,1.9-9.3c-0.6-3.2-2.3-6-5.1-8l-7.7-5.3l-1.1,1.6L237.1,294.1z"/>
    <path id="Path_2_" stroke="#000000" stroke-width="2" d="M193.8,276.8l-0.2,0.1c-1.9,2.8-2.5,6.2-1.9,9.3c0.6,3.2,2.4,6,5.2,8
		l7.8,5.3l1.1-1.6l-7.8-5.3c-2.3-1.6-3.9-4.1-4.3-6.7c-0.5-2.7,0-5.5,1.6-7.8l0,0c1.6-2.3,4.1-3.9,6.7-4.3c2.7-0.5,5.5,0,7.8,1.6
		c2.6,1.7,5.2,3.5,7.8,5.3c2.3,1.6,3.8,4,4.3,6.7c0.5,2.7,0,5.5-1.6,7.8l0,0l-0.1,0.1l0.9,0.5l0.9,0.6c1.9-2.8,2.5-6.2,1.9-9.3
		c-0.6-3.2-2.4-6-5.2-8l-7.8-5.3c-2.8-2-6.2-2.5-9.3-2C198.5,272.3,195.6,274,193.8,276.8z"/>
</g>
</svg>
