<svg height="960" viewBox="0 0 960 960" width="960" xmlns="http://www.w3.org/2000/svg"><g fill="none" fill-rule="evenodd" stroke="#000" stroke-linejoin="round"><path d="m270.250758 53.2698681c68.670255-28.0809113 168.829426-28.7388344 266.655454-26.3052947 127.394752 3.1690971 220.818631 11.2519407 282.471765 58.7210471 84.970947 65.4223835 88.15583 251.0446365 87.507404 369.2225235-.049969 9.107141-.097598 17.767235-.097598 25.880314 0 129.697023-11.206819 304.144848-75.856784 367.056993-50.2754 48.923975-83.458951 71.10538-260.749341 82.518409-78.892142 5.078664-145.789725 7.934926-201.748264 3.237175l-82.646018-5.838619c-63.04967-6.879821-111.999757-23.950627-149.019127-57.320842-81.1504762-73.15113-84.0937198-152.865988-83.7235428-342.017508.0245318-12.535205.0500483-25.567511.0500483-39.129042 0-177.861323 10.3647133-310.222109 96.1845725-384.785757 23.255952-20.2056798 54.620193-33.8879736 91.451818-42.5335155z" stroke-width="40"/><g stroke-linecap="round" stroke-width="20"><path d="m225.642811 92.018035c62.292688-55.8359789 188.245439-57.9048444 311.00918-54.8517677 124.531072 3.0970295 216.304576 10.1651798 276.691447 56.6468811 83.159851 64.0107916 84.261661 246.2586106 83.630578 361.2449306-.050089 9.126444-.097775 17.804893-.097775 25.935168 0 126.702567-9.445705 298.207238-72.850546 359.891192-49.057405 47.725926-81.862909 68.59545-254.483387 79.704877-172.105685 11.076296-286.717748 10.437212-356.276639-54.250283-79.333256-73.777335-80.692283-154.964301-80.3319-344.942076.024554-12.943552.050086-26.400399.050086-40.40371 0-179.088364 8.567277-313.599733 92.658956-388.975212z"/><path d="m347.231704 481.079333c-2.708605-95.905407 0-146.561773 41.86538-181.670825 30.917494-25.92796 94.675718-25.759064 155.393771-24.346291 61.738848 1.436525 107.470645 4.3115 137.470716 25.916227 44.655464 32.158894 40.419085 128.937923 40.419085 180.100889 0 58.745973-3.898965 138.792193-35.44046 167.501259-24.275541 22.095596-40.730321 31.383434-125.95497 36.515019-85.224649 5.131586-144.572951 5.58393-179.150318-24.500834-42.165703-36.687155-31.736991-78.029507-34.603204-179.515444z"/><path d="m827.700992 124.012698-138.028218 179.328314"/><path d="m382.493571 303.341012-169.489735-182.612148"/><path d="m381.834908 660.594777-167.720935 187.29049"/><path d="m686.940196 648.580592 137.12447 178.035914"/></g></g></svg>