<?xml version="1.0" encoding="UTF-8"?>
<svg width="960px" height="960px" viewBox="0 0 960 960" version="1.1" xmlns="http://www.w3.org/2000/svg" xmlns:xlink="http://www.w3.org/1999/xlink">
    <title>com.ikea/drivers/remote_symfonisk/assets/pair</title>
    <style type="text/css">

#pair {
	animation: press 11s infinite;
}

@keyframes press {
	0%, 100% {
		fill: rgba(0,0,0,0);
	}
	10%,  90% {
		fill: #0074CC;
	}
}

</style>
    <g id="com.ikea/drivers/remote_symfonisk/assets/pair" stroke="none" stroke-width="1" fill="none" fill-rule="evenodd">
        <rect id="Rectangle" stroke="#000000" stroke-width="20" x="10" y="10" width="940" height="939" rx="276"></rect>
        <rect id="Rectangle" stroke="#000000" stroke-width="10" stroke-linecap="round" stroke-linejoin="round" x="76" y="76" width="808" height="807" rx="230"></rect>
        <path d="M558,717.03876 L659.754471,717.037835 C670.661243,704.17435 687.004269,696 705.271318,696 C738.108713,696 764.728682,722.4152 764.728682,755 C764.728682,787.5848 738.108713,814 705.271318,814 C687.004703,814 670.662019,805.826038 659.755248,792.963081 L558,792.96124" id="Path" stroke="#000000" stroke-width="5" transform="translate(661.364341, 755.000000) rotate(-180.000000) translate(-661.364341, -755.000000) "></path>
        <circle id="pair" fill="#004DFF" transform="translate(617.000000, 755.000000) rotate(-180.000000) translate(-617.000000, -755.000000) " cx="617" cy="755" r="46.1937984"></circle>
        <circle id="Oval" stroke="#000000" stroke-width="7.5" transform="translate(617.000000, 755.000000) rotate(-180.000000) translate(-617.000000, -755.000000) " cx="617" cy="755" r="42.4437984"></circle>
        <g id="Group" transform="translate(589.000000, 737.000000)" fill="#000000" fill-rule="nonzero" stroke="#000000" stroke-width="2">
            <path d="M16.0004106,33.4090223 C13.3412569,34.3519167 10.3971939,34.1633379 8.0229496,33.0318646 C5.55373549,31.9003913 3.55937025,29.8260236 2.60967252,27.1859192 L2.60967252,27.1859192 C1.65997478,24.5458149 1.84991433,21.6228422 2.98955161,19.2656062 C4.12918889,16.8140808 6.21852391,14.8340025 8.87767756,13.8911081 C11.8217405,12.8539242 14.7658035,11.8167404 17.7098665,10.6852671 C20.3690201,9.7423727 23.3130831,9.93095158 25.6873274,11.0624249 C28.1565416,12.1938982 30.1509068,14.2682659 31.1006045,16.9083702 L31.1006045,16.9083702 L31.1006045,17.0026596 L32.0503023,16.5312124 L33,16.1540547 C31.8603627,12.9482137 29.3911486,10.4966882 26.5420554,9.17663606 C23.5979924,7.85658389 20.2740504,7.57371557 17.0450781,8.70518885 C14.1010151,9.7423727 11.1569521,10.7795566 8.21288915,11.9110298 C4.98391685,13.0425031 2.51470274,15.4940286 1.18512592,18.3227118 C-0.144450911,21.151395 -0.429360231,24.4515255 0.710277049,27.6573664 L0.805246823,27.8459453 C1.9448841,31.0517863 4.41409821,33.5033118 7.26319141,34.8233639 C10.2072544,36.1434161 13.5311965,36.4262844 16.7601688,35.2948111 L25.5923577,32.0889702 L24.9275693,30.2031813 L16.0004106,33.4090223 Z" id="Path"></path>
            <path d="M55.289723,8.34263356 L55.289723,8.15405467 C54.1500857,4.94821369 51.6808716,2.49668823 48.8317784,1.17663606 C45.8877154,-0.143416112 42.5637733,-0.426284434 39.334801,0.705188855 L30.5026121,3.91102984 L31.1674005,5.79681866 L39.9995894,2.59097767 C42.6587431,1.64808326 45.6028061,1.83666214 47.9770504,2.96813543 C50.4462645,4.09960872 52.4406297,6.17397642 53.3903275,8.81408076 L53.3903275,8.81408076 C54.3400252,11.4541851 54.1500857,14.3771578 53.0104484,16.7343938 C51.8708111,19.1859192 49.7814761,21.1659975 47.1223224,22.1088919 C44.1782595,23.2403652 41.2341965,24.277549 38.2901335,25.3147329 C35.6309799,26.2576273 32.7818867,26.0690484 30.3126726,24.9375751 C27.8434584,23.8061018 25.8490932,21.7317341 24.8993955,19.0916298 L24.8993955,19.0916298 L24.8993955,18.9973404 L23.9496977,19.4687876 L23,19.8459453 C24.1396373,23.0517863 26.6088514,25.5033118 29.4579446,26.8233639 C32.4020076,28.1434161 35.7259496,28.4262844 38.9549219,27.2948111 L47.7871109,24.0889702 C51.0160831,22.9574969 53.4852973,20.5059714 54.8148741,17.6772882 C56.1444509,14.7543155 56.4293602,11.4541851 55.289723,8.34263356 Z" id="Path"></path>
        </g>
        <rect id="Rectangle" stroke="#000000" stroke-width="10" stroke-linecap="round" stroke-linejoin="round" x="161" y="303" width="637" height="353" rx="27"></rect>
        <rect id="Rectangle" stroke="#000000" stroke-width="10" stroke-linecap="round" stroke-linejoin="round" x="183" y="334.5" width="593" height="131" rx="10"></rect>
        <rect id="Rectangle" stroke="#000000" stroke-width="10" stroke-linecap="round" stroke-linejoin="round" x="183" y="494.5" width="593" height="131" rx="10"></rect>
        <circle id="Oval" stroke="#000000" stroke-width="10" stroke-linecap="round" stroke-linejoin="round" cx="479.5" cy="189.5" r="74.5"></circle>
        <circle id="Oval" stroke="#000000" stroke-width="10" stroke-linecap="round" stroke-linejoin="round" cx="479.5" cy="189.5" r="43"></circle>
    </g>
</svg>