<svg height="960" viewBox="0 0 960 960" width="960" xmlns="http://www.w3.org/2000/svg"><g fill="none" fill-rule="evenodd" stroke="#000"><path d="m479 21c140.280326 0 254 113.943531 254 254.5 0 61.794216-21.980096 118.4446-58.533954 162.530238 4.51784-.654791 9.029896-1.331663 13.533954-2.030238l-4 5.890969c-27.903955 45.170201-45.168815 73.409482-50.349376 90.934194-7.612253 25.750599-8.961139 79.262602-9.05687 91.010758l-.010525 2.065232c-.101662 9.413812-1.83955 37.263171-4.741528 40.191973l-.199835.195017c-3.556804 3.375518-22.807043 17.495715-39.701668 33.805282l-1.630037 1.582948c-10.962603 10.679652-18.314986 18.396792-22.057149 23.151419-24.016901 2.199537-46.795185 3.529398-68.334852 3.989581l-.000088.182627c-2.783633 0-5.589272-.015451-8.416916-.046352-1.886201.020599-3.762032.034333-5.627884.041201l-2.791344.005151.000901-.182606c-21.539959-.460164-44.318572-1.790031-68.335841-3.989602-3.742163-4.754627-11.094546-12.471767-22.057149-23.151419l-1.108294-1.07784c-1.041905-1.011575-2.093535-2.015111-3.150619-3.008583l-1.058743-.990042c-16.257078-15.126907-33.461492-27.728949-36.213884-30.506782-2.901978-2.928802-4.639866-30.778161-4.741528-40.191973l-.010525-2.065232c-.095731-11.748156-1.444617-65.260159-9.05687-91.010758-5.286287-17.88236-25.402745-50.157414-54.349376-96.825163 4.126907.640079 8.260528 1.261938 12.399613 1.865576-36.474006-44.061508-58.399613-100.648002-58.399613-162.365576 0-140.556469 113.719674-254.5 254-254.5z" stroke-linejoin="round" stroke-width="40"/><path d="m274 436c69.421522 10.256549 137.75507 15.589883 205.000643 16 67.244956-.41017 135.578175-5.743501 204.999357-16l-1.71841 2.644364" stroke-width="20"/><path d="m351 663c44.93518 3.757788 89.439279 5.757788 133.512298 6 41.120555-.226017 82.616475-1.982212 124.487702-5.268587" stroke-width="20"/><g transform="translate(404 729)"><path d="m0 0c4.67881634 19.3651005 7.01822451 42.7837169 7.01822451 70.2558492v62.6822188c24.22509639 51.923392 31.17109479 81.055914 68.98177549 81.061932 37.810681.005932 45.018652-29.700046 68.981775-81.061932 0-14.316014 0-35.2100864 0-62.6822188 0-27.4721323 2.339409-50.8907487 7.018225-70.2558492" stroke-linejoin="round" stroke-width="30"/><path d="m147 118-7.445263 15.435389c-9.168389 30.243539-17.607447 45.52884-25.317175 45.855902-11.137453.472473-22.8720068.708709-35.2036622.708709-.5262346 0-1.0376874-.046597-1.5343583-.137174-.495072.090515-1.0068558.137174-1.5334413.137174-12.3316554 0-24.0662094-.236236-35.2036618-.708709-7.7097282-.327062-16.1487868-15.612363-25.3171759-45.855902l-7.4452625-15.435389c20.174483 1.963067 42.8298498 2.9446 67.9661002 2.9446.5265855 0 1.0383693.046659 1.5353516.137355.4947606-.090758 1.0062134-.137355 1.532448-.137355 25.1362502 0 47.7916172-.981533 67.9661002-2.9446z" fill="#000" stroke-width="2"/></g><g stroke-linecap="round" stroke-linejoin="round" stroke-width="20"><path d="m415.69519 759.786765c16.461741 4.521676 40.2361 6.782514 71.323077 6.782514"/><path d="m415.69519 789.460262c16.461741 5.086885 40.2361 7.630328 71.323077 7.630328"/><path d="m415.69519 820.829388c16.461741 4.521676 40.2361 6.782514 71.323077 6.782514"/></g></g></svg>