<svg height="960" viewBox="0 0 960 960" width="960" xmlns="http://www.w3.org/2000/svg"><path d="m444.025013 2.02925095c1.072585 0 2.145088.01875714 3.217017.05626283l21.984684.7692214c48.451122 1.6952547 86.852919 41.46419012 86.852919 89.94496032v50.3484775c0 .431181.065309 1.524757.213823 2.888708.205648 1.888674.529574 3.932621.963952 5.965778.889027 4.161188 2.136983 7.767801 3.463205 10.19297l.010387.018622.058484.068373.082291.094978c.703943.807562 1.765204 1.902032 3.158388 3.227414 1.463354 1.392137 3.191468 2.943442 5.177849 4.645064l.118988.101171 111.378798 1.241894c60.211388.669474 109.303575 48.725858 110.279398 108.188467l.014804 1.805351v390.814148c0 60.292289-49.474618 109.317582-110.293559 109.993811l-110.280441 1.227329-.250636.368152c-3.960393 5.796998-6.748925 10.048665-8.286642 12.620485l-.112982.189735c-1.471474 2.481583-2.870353 6.434221-3.841646 11.044712-.437231 2.075426-.763283 4.161854-.970478 6.091623-.150541 1.402115-.217128 2.532842-.217128 2.997529v51.252268c0 48.463538-38.375446 88.224826-86.808504 89.943395l-21.237043.753562c-1.087045.038572-2.174689.057863-3.262418.057863-50.810197 0-92-41.189803-92-92l-.000523-80.979324-.780182-.020741-.574818-.022259-.018481.000089c-.203463-.002765-.439243-.005857-.808179-.010636l-.196032-.002537c-.311643-.004033-.311643-.004033-.628966-.008214-26.76357-.355507-99.510108-9.572585-111.308984-13.591754-41.433423-14.113878-69.122358-56.545066-69.122358-103.785292v-383.359333c0-46.359044 26.66538-88.142643 66.95454-103.016044 5.114351-1.888046 11.733809-3.028887 26.775882-5.213711 11.245161-1.633331 25.119166-3.445939 38.611047-5.032971l2.908295-.33923.881599-.101692 1.720567-.196931c.873777-.09948 1.743209-.197658 2.629862-.296933l1.711926-.190583c16.225611-1.795875 29.79924-3.013915 39.707718-3.479124l.123564-.006104.000013-73.259c0-50.3020951 40.370126-91.17524195 90.478612-91.98767468zm93.879775 767.19970405-117.234428 1.306913c-12.785438 14.264852-20.762266 27.170418-24.062222 38.540116-2.605388 8.976624-5.338095 22.232927-8.169612 39.69112l-.000003 18.174471c0 31.48023 25.519769 57 57 57 .673919 0 1.347785-.011952 2.021281-.03585l21.237042-.753562c29.59798-1.050237 53.049642-25.348801 53.049642-54.965408v-51.252268c0-6.424422 1.863664-24.391861 9.923871-37.985084 1.397159-2.356254 3.475302-5.596403 6.234429-9.720448zm-77.904788 2.771045c18.752825 0 34 15.077762 34 33.733333v41.533334c0 18.655571-15.247175 33.733333-34 33.733333-18.54365 0-33.693394-14.754531-33.995441-33.176925l-.004559-.474487v-41.615255c0-18.655571 15.247175-33.733333 34-33.733333zm0 20c-7.756843 0-14 6.173788-14 13.733333v41.533334l.00288.310552c.121321 7.37907 6.326918 13.422781 13.99712 13.422781 7.756843 0 14-6.173788 14-13.733333v-41.533334c0-7.559545-6.243157-13.733333-14-13.733333zm-65.411753-21.174375-6.972042.077417c.309617 2.286641.583723 4.968762.822318 8.046361l-.000895.838852c1.860899-2.955604 3.911412-5.942735 6.150619-8.96263zm-112.837144-492.803617v398.451095c0 38.854138 29.309486 70.536461 67.025054 74.383849.73148.020452 1.437624.035023 2.120057.044088.681704.009056 1.369133.017459 2.062615.027378 1.380334.059674 2.770509.082293 4.169549.066898l1.781571-.019337c5.987508.03386 12.365265.023251 19.133272-.031827l.051779.069099 173.732614-1.937646c.058516-.083009.117147-.166168.175894-.249476l128.313159-1.429037c25.07925-.278849 47.3094-12.478053 61.08084-31.038948l.501913-.687532c8.757908-12.201019 13.906319-27.050624 13.906319-43.022318v-390.801476c0-40.953061-33.848858-74.528816-75.603541-74.99355l-264.781489-2.953685c-1.015829.144842-2.048118.132817-3.05822-.034165l-55.007844-.614941c-41.754683-.455268-75.603542 33.016849-75.603542 74.771531zm10.358036-69.613211-.232951.031378c-21.585038 2.742604-40.116667 5.548669-42.800417 6.539419-25.512608 9.418396-44.075771 37.389157-44.075771 70.18198v383.359333c0 33.360945 19.211934 61.731302 45.407956 70.654713 2.642789.90024 20.407054 3.682747 41.063337 6.312488-18.306626-17.252411-29.72019-41.748205-29.72019-69.015005v-398.451095c0-27.582447 11.679347-52.329362 30.358036-69.613211zm233.009928 284.620176c42.130295 0 76.009048 36.1713 76.009048 80.475826s-33.878753 80.475826-76.009048 80.475826-76.009048-36.1713-76.009048-80.475826 33.878753-80.475826 76.009048-80.475826zm0 20c-30.781286 0-56.009048 26.934904-56.009048 60.475826s25.227762 60.475826 56.009048 60.475826 56.009048-26.934904 56.009048-60.475826-25.227762-60.475826-56.009048-60.475826zm-18.318662 20.639711 6.117595 9.572567 3.409366-7.635761.066335-.146475c2.036624-4.383486 7.204427-6.379806 11.675803-4.460465 2.018029.866241 3.644895 2.440753 4.577903 4.420842l.04698.105186.081555.18041-.044942-.099737 15.474387 33.570327.149564.31681c1.967563 4.278347 3.463177 10.657484 3.563983 15.381985l.005422.499694c0 4.874759-1.273266 9.452132-3.505368 13.417688l7.361463 11.519073c2.230541 3.490268 1.209331 8.127901-2.280937 10.358442-3.490268 2.230542-8.127901 1.209332-10.358442-2.280936l-5.665559-8.865539c-3.85504 2.070946-8.263145 3.245756-12.945642 3.245756-15.129556 0-27.394484-12.264928-27.394484-27.394484 0-4.568324 1.792048-10.94163 4.007827-15.779179l.194786-.419637.009-.019 4.249-9.517-11.434974-17.893062c-2.230542-3.490268-1.209332-8.1279 2.280937-10.358442 3.490268-2.230542 8.1279-1.209332 10.358442 2.280937zm8.466595 41.102567-.268947.601941-.072487.15743c-1.450781 3.057359-2.790179 7.707029-2.790179 9.843445 0 6.845285 5.5492 12.394484 12.394484 12.394484 1.707289 0 3.333953-.345192 4.814007-.96959zm9.349387-20.940673-2.028387 4.541673 13.349581 20.888138c-.378873-1.407499-.831278-2.723377-1.291358-3.671903l-.063269-.133784zm.50268-253.369353c42.130295 0 76.009048 36.1713 76.009048 80.475825 0 44.304526-33.878753 80.475826-76.009048 80.475826s-76.009048-36.1713-76.009048-80.475826c0-44.304525 33.878753-80.475825 76.009048-80.475825zm0 20c-30.781286 0-56.009048 26.934904-56.009048 60.475825 0 33.540922 25.227762 60.475826 56.009048 60.475826s56.009048-26.934904 56.009048-60.475826c0-33.540921-25.227762-60.475825-56.009048-60.475825zm-284.619067 29.538775c5.522847 0 10 4.477153 10 10v51c0 5.522847-4.477153 10-10 10s-10-4.477153-10-10v-51c0-5.522847 4.477153-10 10-10zm290.547356-13.554433c2.018029.866241 3.644894 2.440752 4.577903 4.420842l.04698.105185.081554.180411-.044793-.099754 15.474239 33.570343.149564.31681c1.967562 4.278348 3.463177 10.657484 3.563983 15.381986l.005421.499694c0 15.129556-12.264928 27.394484-27.394484 27.394484s-27.394484-12.264928-27.394484-27.394484c0-4.568324 1.792048-10.94163 4.007827-15.779179l.194934-.419654.009-.019 14.980218-33.550744.066335-.146476c2.036624-4.383486 7.204427-6.379806 11.675803-4.460464zm-3.453117 22.832027-9.618335 21.542615-.072487.15743c-1.45078 3.057359-2.790178 7.707028-2.790178 9.843445 0 6.845285 5.549199 12.394484 12.394484 12.394484s12.394484-5.549199 12.394484-12.394484c0-2.637817-1.114515-7.386607-2.278133-9.785581l-.063269-.133784zm-83.569226-322.248343c-31.480231 0-57 25.5197692-57 57l.000061 5.1932761c3.337203 21.9647599 6.546601 38.2396379 9.583064 48.7014889 3.103476 10.692745 10.343482 22.743912 21.829597 36.006619l115.91922 1.29382c-1.411184-1.631051-2.510473-3.10128-3.297867-4.410686-8.105353-13.478892-9.979455-31.295209-9.979455-37.665596v-50.3484775c0-29.6271373-23.467765-53.9303757-53.076784-54.9663647l-21.984684-.7692214c-.66413-.0232372-1.328616-.0348584-1.993152-.0348584zm-56.999883 137.884384-.000117 5.900134c-.078281.965813-.163826 1.887343-.256634 2.764589l5.982803.066235c-2.090374-2.941054-3.999347-5.850986-5.726052-8.730958zm71.97487-106.913635c19.464448 0 35 16.4676848 35 36.5 0 20.032315-15.535552 36.5-35 36.5s-35-16.467685-35-36.5c0-20.0323152 15.535552-36.5 35-36.5zm0 20c-8.149789 0-15 7.2612234-15 16.5 0 9.238777 6.850211 16.5 15 16.5s15-7.261223 15-16.5c0-9.2387766-6.850211-16.5-15-16.5z"/></svg>