<?xml version="1.0" encoding="UTF-8"?>
<svg width="960" height="960" version="1.1" viewBox="0 0 960 960"
     xmlns="http://www.w3.org/2000/svg">
  <style type="text/css">
    .pair-button-device {
    animation: press 10s infinite;
    }

    #pair-led-device {
    animation: flash 10s infinite;
    }

    @keyframes press {
    0%,  60%, 100% {
    fill: rgba(0,0,0,0);
    }
    10%, 30%, 50% {
    fill: #0078CC;
    }
    }

    @keyframes flash {
    0%, 44%, 68%, 76%, 84%, 92%, 100% {
    fill: rgba(0,0,0,0);
    }
    50%, 61%, 72%, 80%, 88%, 96% {
    fill: #B80000;
    }
    }
  </style>
  <ellipse class="pair-button-device" cx="526.02" cy="574.19" rx="65.797" ry="68.673" fill="#0078CC"
           stroke-linecap="round" stroke-linejoin="round" stroke-width="14"/>
  <ellipse class="pair-button-device" cx="526.38" cy="381.48" rx="67.595" ry="72.269" fill="#0078CC"
           stroke-linecap="round" stroke-linejoin="round" stroke-width="13.41"/>
  <path
    d="m444.03 2.0293c1.0726 0 2.1451 0.018757 3.217 0.056263l21.985 0.76922c48.451 1.6953 86.853 41.464 86.853 89.945v50.348c0 0.43118 0.065309 1.5248 0.21382 2.8887 0.20565 1.8887 0.52957 3.9326 0.96395 5.9658 0.88903 4.1612 2.137 7.7678 3.4632 10.193l0.010387 0.018622 0.058484 0.068373 0.082291 0.094978c0.70394 0.80756 1.7652 1.902 3.1584 3.2274 1.4634 1.3921 3.1915 2.9434 5.1778 4.6451l0.11899 0.10117 111.38 1.2419c60.211 0.66947 109.3 48.726 110.28 108.19l0.014804 1.8054v390.81c0 60.292-49.475 109.32-110.29 109.99l-110.28 1.2273-0.25064 0.36815c-3.9604 5.797-6.7489 10.049-8.2866 12.62l-0.11298 0.18974c-1.4715 2.4816-2.8704 6.4342-3.8416 11.045-0.43723 2.0754-0.76328 4.1619-0.97048 6.0916-0.15054 1.4021-0.21713 2.5328-0.21713 2.9975v51.252c0 48.464-38.375 88.225-86.809 89.943l-21.237 0.75356c-1.087 0.038572-2.1747 0.057863-3.2624 0.057863-50.81 0-92-41.19-92-92l-5.23e-4 -80.979-0.78018-0.020741-0.57482-0.022259-0.018481 8.9e-5c-0.20346-0.002765-0.43924-0.005857-0.80818-0.010636l-0.19603-0.002537c-0.31164-0.004033-0.31164-0.004033-0.62897-0.008214-26.764-0.35551-99.51-9.5726-111.31-13.592-41.433-14.114-69.122-56.545-69.122-103.79v-383.36c0-46.359 26.665-88.143 66.955-103.02 5.1144-1.888 11.734-3.0289 26.776-5.2137 11.245-1.6333 25.119-3.4459 38.611-5.033l2.9083-0.33923 0.8816-0.10169 1.7206-0.19693c0.87378-0.09948 1.7432-0.19766 2.6299-0.29693l1.7119-0.19058c16.226-1.7959 29.799-3.0139 39.708-3.4791l0.12356-0.006104 1.3e-5 -73.259c0-50.302 40.37-91.175 90.479-91.988zm93.88 767.2-117.23 1.3069c-12.785 14.265-20.762 27.17-24.062 38.54-2.6054 8.9766-5.3381 22.233-8.1696 39.691l-3e-6 18.174c0 31.48 25.52 57 57 57 0.67392 0 1.3478-0.011952 2.0213-0.03585l21.237-0.75356c29.598-1.0502 53.05-25.349 53.05-54.965v-51.252c0-6.4244 1.8637-24.392 9.9239-37.985 1.3972-2.3563 3.4753-5.5964 6.2344-9.7204zm-77.905 2.771c18.753 0 34 15.078 34 33.733v41.533c0 18.656-15.247 33.733-34 33.733-18.544 0-33.693-14.755-33.995-33.177l-0.004559-0.47449v-41.615c0-18.656 15.247-33.733 34-33.733zm0 20c-7.7568 0-14 6.1738-14 13.733v41.533l0.00288 0.31055c0.12132 7.3791 6.3269 13.423 13.997 13.423 7.7568 0 14-6.1738 14-13.733v-41.533c0-7.5595-6.2432-13.733-14-13.733zm-65.412-21.174-6.972 0.077417c0.30962 2.2866 0.58372 4.9688 0.82232 8.0464l-8.95e-4 0.83885c1.8609-2.9556 3.9114-5.9427 6.1506-8.9626zm-112.84-492.8v398.45c0 38.854 29.309 70.536 67.025 74.384 0.73148 0.020452 1.4376 0.035023 2.1201 0.044088 0.6817 0.009056 1.3691 0.017459 2.0626 0.027378 1.3803 0.059674 2.7705 0.082293 4.1695 0.066898l1.7816-0.019337c5.9875 0.03386 12.365 0.023251 19.133-0.031827l0.051779 0.069099 173.73-1.9376c0.058516-0.083009 0.11715-0.16617 0.17589-0.24948l128.31-1.429c25.079-0.27885 47.309-12.478 61.081-31.039l0.50191-0.68753c8.7579-12.201 13.906-27.051 13.906-43.022v-390.8c0-40.953-33.849-74.529-75.604-74.994l-264.78-2.9537c-1.0158 0.14484-2.0481 0.13282-3.0582-0.034165l-55.008-0.61494c-41.755-0.45527-75.604 33.017-75.604 74.772zm10.358-69.613-0.23295 0.031378c-21.585 2.7426-40.117 5.5487-42.8 6.5394-25.513 9.4184-44.076 37.389-44.076 70.182v383.36c0 33.361 19.212 61.731 45.408 70.655 2.6428 0.90024 20.407 3.6827 41.063 6.3125-18.307-17.252-29.72-41.748-29.72-69.015v-398.45c0-27.582 11.679-52.329 30.358-69.613zm233.01 284.62c42.13 0 76.009 36.171 76.009 80.476s-33.879 80.476-76.009 80.476-76.009-36.171-76.009-80.476 33.879-80.476 76.009-80.476zm0 20c-30.781 0-56.009 26.935-56.009 60.476s25.228 60.476 56.009 60.476 56.009-26.935 56.009-60.476-25.228-60.476-56.009-60.476zm-18.319 20.64 6.1176 9.5726 3.4094-7.6358 0.066335-0.14648c2.0366-4.3835 7.2044-6.3798 11.676-4.4605 2.018 0.86624 3.6449 2.4408 4.5779 4.4208l0.04698 0.10519 0.081555 0.18041-0.044942-0.099737 15.474 33.57 0.14956 0.31681c1.9676 4.2783 3.4632 10.657 3.564 15.382l0.005422 0.49969c0 4.8748-1.2733 9.4521-3.5054 13.418l7.3615 11.519c2.2305 3.4903 1.2093 8.1279-2.2809 10.358-3.4903 2.2305-8.1279 1.2093-10.358-2.2809l-5.6656-8.8655c-3.855 2.0709-8.2631 3.2458-12.946 3.2458-15.13 0-27.394-12.265-27.394-27.394 0-4.5683 1.792-10.942 4.0078-15.779l0.19479-0.41964 9e-3 -0.019 4.249-9.517-11.435-17.893c-2.2305-3.4903-1.2093-8.1279 2.2809-10.358 3.4903-2.2305 8.1279-1.2093 10.358 2.2809zm8.4666 41.103-0.26895 0.60194-0.072487 0.15743c-1.4508 3.0574-2.7902 7.707-2.7902 9.8434 0 6.8453 5.5492 12.394 12.394 12.394 1.7073 0 3.334-0.34519 4.814-0.96959zm9.3494-20.941-2.0284 4.5417 13.35 20.888c-0.37887-1.4075-0.83128-2.7234-1.2914-3.6719l-0.063269-0.13378zm0.50268-253.37c42.13 0 76.009 36.171 76.009 80.476 0 44.305-33.879 80.476-76.009 80.476s-76.009-36.171-76.009-80.476c0-44.305 33.879-80.476 76.009-80.476zm0 20c-30.781 0-56.009 26.935-56.009 60.476 0 33.541 25.228 60.476 56.009 60.476s56.009-26.935 56.009-60.476c0-33.541-25.228-60.476-56.009-60.476zm-284.62 29.539c5.5228 0 10 4.4772 10 10v51c0 5.5228-4.4772 10-10 10s-10-4.4772-10-10v-51c0-5.5228 4.4772-10 10-10zm290.55-13.554c2.018 0.86624 3.6449 2.4408 4.5779 4.4208l0.04698 0.10518 0.081554 0.18041-0.044793-0.099754 15.474 33.57 0.14956 0.31681c1.9676 4.2783 3.4632 10.657 3.564 15.382l0.005421 0.49969c0 15.13-12.265 27.394-27.394 27.394s-27.394-12.265-27.394-27.394c0-4.5683 1.792-10.942 4.0078-15.779l0.19493-0.41965 9e-3 -0.019 14.98-33.551 0.066335-0.14648c2.0366-4.3835 7.2044-6.3798 11.676-4.4605zm-3.4531 22.832-9.6183 21.543-0.072487 0.15743c-1.4508 3.0574-2.7902 7.707-2.7902 9.8434 0 6.8453 5.5492 12.394 12.394 12.394s12.394-5.5492 12.394-12.394c0-2.6378-1.1145-7.3866-2.2781-9.7856l-0.063269-0.13378zm-83.569-322.25c-31.48 0-57 25.52-57 57l6.1e-5 5.1933c3.3372 21.965 6.5466 38.24 9.5831 48.701 3.1035 10.693 10.343 22.744 21.83 36.007l115.92 1.2938c-1.4112-1.6311-2.5105-3.1013-3.2979-4.4107-8.1054-13.479-9.9795-31.295-9.9795-37.666v-50.348c0-29.627-23.468-53.93-53.077-54.966l-21.985-0.76922c-0.66413-0.023237-1.3286-0.034858-1.9932-0.034858zm-57 137.88-1.17e-4 5.9001c-0.078281 0.96581-0.16383 1.8873-0.25663 2.7646l5.9828 0.066235c-2.0904-2.9411-3.9993-5.851-5.7261-8.731zm71.975-106.91c19.464 0 35 16.468 35 36.5 0 20.032-15.536 36.5-35 36.5s-35-16.468-35-36.5c0-20.032 15.536-36.5 35-36.5zm0 20c-8.1498 0-15 7.2612-15 16.5 0 9.2388 6.8502 16.5 15 16.5s15-7.2612 15-16.5c0-9.2388-6.8502-16.5-15-16.5z"/>
  <rect id="pair-led-device" x="508.33" y="699.19" width="30.339" height="50.532" rx="6.2045" ry="8.4665"
        fill="#B80000" stroke-linecap="round" stroke-linejoin="round" stroke-width="10.147"/>
</svg>
