<svg height="960" viewBox="0 0 960 960" width="960" xmlns="http://www.w3.org/2000/svg"><path d="m480-40.0101554c5.522847 0 10 4.4771525 10 10l.000176 341.5734744c3.943334.560946 7.143769 1.635461 10.402321 3.619858 5.959623 3.629298 9.596877 10.102267 9.597503 17.080012l-.001 1.112811.10109.038465c1.078056.414861 2.110412.881544 3.109062 1.407265l.372937.199927c6.421934 3.505268 10.417369 10.237384 10.417911 17.553678v3.546321l.001523 9.874283c42.984729 1.065683 78.818367 3.785823 107.649119 8.213406 43.09653 6.618399 72.555265 17.055859 90.197231 35.098459 6.394533 6.539747 9.974984 15.322845 9.974984 24.469339l-.000149 78.347183.005206.108291c.418516 10.860066-2.827236 21.24558-9.119274 30.069076l-.366377.507307c-5.392208 7.372789-12.491145 13.148963-21.016608 17.860256-12.751824 7.046842-29.528116 12.101343-51.037217 15.953723-38.599145 6.913285-95.118359 10.256712-170.288438 10.256712s-131.689293-3.343427-170.288438-10.256712c-21.509101-3.85238-38.285393-8.906881-51.037217-15.953723-8.525463-4.711293-15.6244-10.487467-21.016608-17.860256-6.532223-8.931536-9.912215-19.50747-9.485651-30.576383l.005622-.112291-.000565-78.343183c0-8.970599 3.444065-17.591646 9.609196-24.089571l.365788-.379768c17.641966-18.0426 47.100701-28.48006 90.197231-35.098459 28.382348-4.358721 63.551444-7.062697 105.648687-8.162482l.001955-9.92595v-3.54509c.000357-7.185818 3.854402-13.808187 10.076201-17.363307l.34171-.190859c1.114248-.608187 2.269263-1.140508 3.482123-1.607239l.099966-.038418v-1.111697c.000232-6.848916 3.504073-13.21169 9.268792-16.876576l.328711-.20455c3.799504-2.313826 7.507663-3.382755 12.401324-3.850805l.001173-341.3425274c0-5.5228475 4.477153-10 10-10zm0 521.9296384c-125.096981 0-197.371266 9.322172-216.822857 27.966517l-.00502 3.146366c1.823929 25.898217 74.099888 38.847325 216.827877 38.847325l4.374207-.003883 4.329643-.012499c136.962878-.520912 206.337554-13.464559 208.124027-38.830943l-.00502-3.146366c-19.451591-18.644345-91.725876-27.966517-216.822857-27.966517zm0-81.440157c-8.936131 0-17.604666.058735-26.005605.176204l.003194.519935c-106.926222 1.489007-170.533663 12.454901-190.822324 32.89768l.000759 51.790037c15.011903-7.732062 36.837313-12.995676 66.237056-16.787751 37.121255-4.78802 87.255602-7.155948 150.58692-7.155948s113.465665 2.367928 150.58692 7.155948c29.399087 3.79199 51.224179 9.055454 66.236051 16.787234l-.000852-51.78982-.48376-.479927c-20.935084-20.260466-85.046672-31.075173-192.334764-32.44412l.003235-.520044c-7.775344-.099618-15.777621-.149428-24.00683-.149428zm-.33419-45.479019-1.30567-.000024c-10.599002.009444-17.931409.254973-21.997222.736587l-.472218.058927c-.760897.100101-1.39113.209644-1.8907.328631l-.000873 9.52748c8.415174-.11517 17.081807-.172582 26.000873-.172582 8.214179 0 16.21425.048696 24.000972.146358l-.000972-9.501256c-.49957-.118987-1.129803-.22853-1.8907-.328631l-.472218-.058927c-3.977859-.471196-11.08251-.71641-21.313954-.735642zm-.66581-24.000307h-.46488c-5.675049.022485-9.186755.443853-10.53512 1.264982l-.001103 2.835885c3.074171-.064758 6.517616-.097355 10.352388-.100867h.648715c4.094904 0 7.753311.032456 11.000254.100853l-.000254-2.835871c-1.384807-.843321-5.051474-1.264982-11-1.264982z"/></svg>