<?xml version="1.0" encoding="UTF-8"?>
<svg width="960px" height="960px" viewBox="0 0 960 960" version="1.1" xmlns="http://www.w3.org/2000/svg" xmlns:xlink="http://www.w3.org/1999/xlink">
    <title>com.ikea/drivers/NYMANE/assets/pair</title>
    <style type="text/css">
        #pair {
            animation: fillpulse 6s infinite;
        }
        
        @keyframes fillpulse {
            0%, 5%, 15%, 25%, 35%, 45%, 55%, 65%, 100% {
                fill: rgba(255,255,255,0);
            }
            10%, 20%, 30%, 40%, 50%, 60% {
                fill: #FFF67A;
            }
        }
    </style>
    <g id="com.ikea/drivers/NYMANE" stroke="none" stroke-width="1" fill="none" fill-rule="evenodd">
        <path d="M479.669584,349.505399 C490.537743,349.515875 498.05546,349.782732 502.225243,350.276662 C504.03752,350.510254 504.796899,350.670685 505.481876,350.847106 L505.773735,350.923953 C506.457423,351.106761 507.206496,351.318294 508.999448,351.647701 L509.0036,381.601322 C500.523294,381.543014 491.765376,381.511202 482.732693,381.50588 L477.532954,381.505732 C467.692128,381.510964 458.179621,381.547587 448.995432,381.61561 L449.000694,351.68037 L452.841511,350.765567 C453.475047,350.614672 454.273384,350.47056 455.238541,350.343588 C459.955886,349.781311 467.479022,349.515054 478.357926,349.505361 Z" id="Combined-Shape" stroke="#000000" stroke-width="10" stroke-linecap="round" stroke-linejoin="round"></path>
        <path d="M478.516082,324.50599 C486.544336,324.50486 490.901621,325.464947 492.600624,326.499608 C493.241921,326.890146 494.047593,327.62205 494.99982,328.76471 L495.001196,344.10366 C500.632279,344.658672 504.397605,345.602585 506.395522,346.693103 C507.148138,347.103902 508.01892,347.736896 508.999817,348.603514 L509.00323,394.724814 C619.448509,396.474006 683.3161,409.097014 701.95954,430.768493 L701.95954,511.594674 C702.248353,515.923006 701.049929,520.004146 698.257761,523.809395 C695.830816,527.116907 692.09835,530.256076 686.938197,533.098319 C677.811028,538.125617 663.885431,542.390915 645.100123,545.74444 C608.746719,552.234194 553.715396,555.505078 480,555.505078 C406.284604,555.505078 351.253281,552.234194 314.899877,545.74444 C296.114569,542.390915 282.188972,538.125617 273.061803,533.098319 C267.90165,530.256076 264.169184,527.116907 261.742239,523.809395 C258.950071,520.004146 257.751647,515.923006 258.04046,511.594674 L258.04046,430.76846 C276.572471,409.227454 339.777078,396.619227 448.997833,394.757332 L449.000123,348.603571 C449.981045,347.736923 450.851847,347.10391 451.604478,346.693103 C453.602478,345.60254 457.36805,344.658599 462.999547,344.103592 L463.000069,328.751553 C463.942374,327.630095 464.752935,326.893278 465.399376,326.499608 C467.078356,325.477141 471.322067,324.533382 478.516082,324.50599 Z" id="Combined-Shape" stroke="#000000" stroke-width="10" stroke-linecap="round" stroke-linejoin="round"></path>
        <path d="M480,389.984404 C613.927804,389.984404 688.43555,404.662236 706.822857,429.625206 L706.822857,512.213911 C707.147319,517.64042 705.661554,522.772531 702.163225,527.555812 C699.383541,531.356484 695.155056,535.02096 689.233791,538.293136 C679.773204,543.521193 665.363389,548.030247 645.880957,551.519641 C609.35562,558.061498 554.06611,561.384769 480,561.384769 C405.93389,561.384769 350.64438,558.061498 314.119043,551.519641 C294.636611,548.030247 280.226796,543.521193 270.766209,538.293136 C264.844944,535.02096 260.616459,531.356484 257.836775,527.555812 C254.338446,522.772531 252.852681,517.64042 253.177143,512.213911 L253.177143,429.625206 C271.56445,404.662236 346.072196,389.984404 480,389.984404 Z" id="Rectangle" stroke="#000000" stroke-width="20" stroke-linecap="round" stroke-linejoin="round"></path>
        <path d="M480,476.42456 C611.142731,476.42456 684.578744,487.433225 701.822857,507.398644 L701.822857,510.258748 C702.108837,514.734487 700.925919,518.947175 698.200314,522.877502 C695.780725,526.366553 692.058325,529.669445 686.914695,532.667175 C677.780454,537.990651 663.847089,542.507683 645.046,546.059008 C608.704513,552.923527 553.691595,556.384769 480,556.384769 C406.308405,556.384769 351.295487,552.923527 314.954,546.059008 C296.152911,542.507683 282.219546,537.990651 273.085305,532.667175 C267.941675,529.669445 264.219275,526.366553 261.799686,522.877502 C259.074081,518.947175 257.891163,514.734487 258.177143,510.258748 L258.177143,507.398644 C275.421256,487.433225 348.857269,476.42456 480,476.42456 Z" id="Rectangle" stroke="#000000" stroke-width="10" stroke-linecap="round" stroke-linejoin="round"></path>
        <path d="M263.177143,509.391078 C282.628734,490.746733 354.903019,481.42456 480,481.42456 C605.096981,481.42456 677.371266,490.746733 696.822857,509.391078 L696.822857,510.429245 C698.823952,537.732927 626.549667,551.384769 480,551.384769 C333.450333,551.384769 261.176048,537.732927 263.177143,510.429245 L263.177143,509.391078 Z" id="pair" fill="#FFF67A"></path>
        <line x1="479.417143" y1="320" x2="479.417143" y2="-27.0101554" id="Path-42" stroke="#000000" stroke-width="10" stroke-linecap="round" stroke-linejoin="round"></line>
    </g>
</svg>