<svg height="960" viewBox="0 0 960 960" width="960" xmlns="http://www.w3.org/2000/svg"><g fill="#000" fill-rule="evenodd"><path d="m432.958249 2.08884992 1.60663.05835378 243.137097 9.9369599c95.009183 3.8830045 172.298024 80.7521442 172.298024 173.1707994v591.490074c0 92.418655-77.288841 169.287795-172.298024 173.170799l-243.137097 9.93696c-4.177095.170717-8.341982.192791-12.488925.067024l1.538046.03818-.488659.016986c-.548178.012654-1.096557.014034-1.644791.004141l-.822198-.023296c-17.140476-.662081-46.947398-1.955739-89.480475-3.883184l.266875.011201c-95.200479-3.677289-172.444752-81.462043-172.444752-174.896389v-600.84529c0-93.4343454 77.244273-171.21909995 172.410335-174.8950447 40.207623-1.58776643 69.15967-2.72370099 86.862054-3.4080303 1.282676-.04958498 2.565763-.05204808 3.847265-.0071293l.675346.0300353.553165-.01575188c3.193858-.0735145 6.398093-.05944075 9.610084.0426018zm-134.143573 168.58671708v620.648854c0 74.021157 60.006004 131.576526 134.027161 128.553514l243.310847-9.936774c2.210536-.090278 4.408573-.231045 6.592886-.421085 70.866463-6.21435 127.25443-64.366807 127.25443-132.775039v-591.490074c0-68.408232-56.387967-126.5606886-127.254239-132.7752911-2.184504-.1897998-4.382541-.3305674-6.593077-.4208454l-243.310847-9.9367738c-74.021157-3.0230115-134.027161 54.5323574-134.027161 128.5535143zm48.728506-125.8372017-.569656.0256748c-4.499555.1774719-9.161172.3614495-13.984853.5519327-73.999901 2.8583787-133.988673 63.2668942-133.988673 134.9261962v600.84529c0 71.659302 59.988772 132.067818 133.988673 134.926197 4.795728.217325 9.429217.426571 13.900466.627737-41.052337-26.20022-68.074463-72.160294-68.074463-125.416972v-620.648854c0-53.540307 27.310716-99.7060847 68.728506-125.8372017z" fill-rule="nonzero"/><path d="m431.532056 161.896096c5.693935.171032 10.309781-4.249306 10.309781-9.873102 0-5.623795-4.615846-10.330179-10.309781-10.512002s-10.309782 4.238515-10.309782 9.873101 4.615847 10.34097 10.309782 10.512003z"/><path d="m463.836038 162.866431c5.693935.171033 10.309782-4.235601 10.309782-9.842491s-4.615847-10.29957-10.309782-10.481393-10.309781 4.224811-10.309781 9.842492 4.615846 10.31036 10.309781 10.481392z"/><path d="m496.140021 163.836767c5.693935.171032 10.309781-4.221896 10.309781-9.811881s-4.615846-10.26896-10.309781-10.450783c-5.693936-.181823-10.309782 4.211106-10.309782 9.811881 0 5.600776 4.615846 10.279751 10.309782 10.450783z"/><path d="m528.444003 164.807103c5.693935.171032 10.309782-4.208192 10.309782-9.781272 0-5.573079-4.615847-10.238349-10.309782-10.420173-5.693935-.181823-10.309782 4.197402-10.309782 9.781272s4.615847 10.24914 10.309782 10.420173z"/><path d="m544.939654 193.540849c5.693935.155926 10.309781-4.228547 10.309781-9.792994s-4.615846-10.210472-10.309781-10.377189c-5.693936-.166716-10.309782 4.217757-10.309782 9.792995 0 5.575237 4.615846 10.221263 10.309782 10.377188z"/><path d="m415.036405 189.983516c5.693935.155926 10.309782-4.283657 10.309782-9.916085s-4.615847-10.333564-10.309782-10.50028-10.309781 4.272867-10.309781 9.916086 4.615846 10.344354 10.309781 10.500279z"/><path d="m447.512217 190.87285c5.693935.155925 10.309782-4.26988 10.309782-9.885313s-4.615847-10.302791-10.309782-10.469507-10.309781 4.259089-10.309781 9.885313c0 5.626223 4.615846 10.313581 10.309781 10.469507z"/><path d="m479.988029 191.762183c5.693936.155925 10.309782-4.256102 10.309782-9.85454 0-5.598437-4.615846-10.272018-10.309782-10.438734-5.693935-.166716-10.309781 4.245312-10.309781 9.85454s4.615846 10.282809 10.309781 10.438734z"/><path d="m512.463841 192.651516c5.693936.155926 10.309782-4.242325 10.309782-9.823767s-4.615846-10.241245-10.309782-10.407961c-5.693935-.166716-10.309781 4.231534-10.309781 9.823767s4.615846 10.252036 10.309781 10.407961z"/><path d="m431.532056 218.974387c5.693935.140818 10.309781-4.304013 10.309781-9.927809 0-5.623795-4.615846-10.305686-10.309781-10.457295s-10.309782 4.293222-10.309782 9.927808c0 5.634587 4.615847 10.316477 10.309782 10.457296z"/><path d="m463.836038 219.773307c5.693935.140818 10.309782-4.290308 10.309782-9.897199 0-5.60689-4.615847-10.275076-10.309782-10.426685s-10.309781 4.279517-10.309781 9.897198 4.615846 10.285867 10.309781 10.426686z"/><path d="m496.140021 220.572227c5.693935.140818 10.309781-4.276604 10.309781-9.866589s-4.615846-10.244466-10.309781-10.396075c-5.693936-.15161-10.309782 4.265812-10.309782 9.866588s4.615846 10.255257 10.309782 10.396076z"/><path d="m528.444003 221.371147c5.693935.140818 10.309782-4.2629 10.309782-9.835979s-4.615847-10.213856-10.309782-10.365466c-5.693935-.151609-10.309782 4.252109-10.309782 9.835979s4.615847 10.224647 10.309782 10.365466z"/><path d="m544.939654 250.017362c5.693935.125711 10.309781-4.283255 10.309781-9.847702s-4.615846-10.185979-10.309781-10.322481c-5.693936-.136502-10.309782 4.272464-10.309782 9.847701 0 5.575238 4.615846 10.19677 10.309782 10.322482z"/><path d="m415.036405 247.149339c5.693935.125712 10.309782-4.338364 10.309782-9.970793 0-5.632428-4.615847-10.30907-10.309782-10.445572s-10.309781 4.327574-10.309781 9.970793c0 5.643218 4.615846 10.319861 10.309781 10.445572z"/><path d="m447.512217 247.866345c5.693935.125711 10.309782-4.324587 10.309782-9.94002s-4.615847-10.278298-10.309782-10.4148-10.309781 4.313796-10.309781 9.94002 4.615846 10.289088 10.309781 10.4148z"/><path d="m479.988029 248.58335c5.693936.125712 10.309782-4.310809 10.309782-9.909247 0-5.598437-4.615846-10.247524-10.309782-10.384027-5.693935-.136502-10.309781 4.300019-10.309781 9.909247 0 5.609229 4.615846 10.258316 10.309781 10.384027z"/><path d="m512.463841 249.300356c5.693936.125712 10.309782-4.297032 10.309782-9.878474s-4.615846-10.216752-10.309782-10.353254c-5.693935-.136503-10.309781 4.286241-10.309781 9.878474s4.615846 10.227543 10.309781 10.353254z"/><path d="m431.532056 276.052678c5.693935.110605 10.309781-4.35872 10.309781-9.982516 0-5.623795-4.615846-10.281193-10.309781-10.402588s-10.309782 4.347929-10.309782 9.982516c0 5.634586 4.615847 10.291983 10.309782 10.402588z"/><path d="m463.836038 276.680182c5.693935.110605 10.309782-4.345015 10.309782-9.951905 0-5.606891-4.615847-10.250584-10.309782-10.371979s-10.309781 4.334225-10.309781 9.951906 4.615846 10.261374 10.309781 10.371978z"/><path d="m496.140021 277.307686c5.693935.110605 10.309781-4.33131 10.309781-9.921295s-4.615846-10.219974-10.309781-10.341369c-5.693936-.121395-10.309782 4.32052-10.309782 9.921296 0 5.600775 4.615846 10.230764 10.309782 10.341368z"/><path d="m528.444003 277.93519c5.693935.110605 10.309782-4.317606 10.309782-9.890685 0-5.57308-4.615847-10.189364-10.309782-10.310759s-10.309782 4.306816-10.309782 9.890686 4.615847 10.200154 10.309782 10.310758z"/><path d="m544.939654 306.493874c5.693935.095498 10.309781-4.337961 10.309781-9.902408s-4.615846-10.161486-10.309781-10.267775c-5.693936-.106288-10.309782 4.327171-10.309782 9.902409s4.615846 10.172277 10.309782 10.267774z"/><path d="m415.036405 304.315162c5.693935.095497 10.309782-4.393072 10.309782-10.0255s-4.615847-10.284577-10.309782-10.390865c-5.693935-.106289-10.309781 4.38228-10.309781 10.025499s4.615846 10.295368 10.309781 10.390866z"/><path d="m447.512217 304.85984c5.693935.095497 10.309782-4.379294 10.309782-9.994727s-4.615847-10.253805-10.309782-10.360093-10.309781 4.368504-10.309781 9.994727c0 5.626224 4.615846 10.264595 10.309781 10.360093z"/><path d="m479.988029 305.404518c5.693936.095498 10.309782-4.365517 10.309782-9.963954 0-5.598438-4.615846-10.223032-10.309782-10.32932-5.693935-.106288-10.309781 4.354726-10.309781 9.963954s4.615846 10.233822 10.309781 10.32932z"/><path d="m512.463841 305.949196c5.693936.095498 10.309782-4.351739 10.309782-9.933181 0-5.581443-4.615846-10.192259-10.309782-10.298547-5.693935-.106289-10.309781 4.340948-10.309781 9.933181s4.615846 10.20305 10.309781 10.298547z"/><path d="m431.532056 333.130969c5.693935.080391 10.309781-4.413427 10.309781-10.037223 0-5.623795-4.615846-10.256699-10.309781-10.347881-5.693935-.091181-10.309782 4.402637-10.309782 10.037223s4.615847 10.267491 10.309782 10.347881z"/><path d="m463.836038 333.587058c5.693935.08039 10.309782-4.399723 10.309782-10.006613s-4.615847-10.22609-10.309782-10.317271c-5.693935-.091182-10.309781 4.388931-10.309781 10.006612s4.615846 10.236881 10.309781 10.317272z"/><path d="m496.140021 334.043146c5.693935.080391 10.309781-4.386018 10.309781-9.976003s-4.615846-10.19548-10.309781-10.286661c-5.693936-.091182-10.309782 4.375227-10.309782 9.976003 0 5.600775 4.615846 10.20627 10.309782 10.286661z"/><path d="m528.444003 334.499234c5.693935.080391 10.309782-4.372313 10.309782-9.945393 0-5.573079-4.615847-10.16487-10.309782-10.256051s-10.309782 4.361523-10.309782 9.945393 4.615847 10.175661 10.309782 10.256051z"/></g></svg>