<?xml version="1.0" encoding="UTF-8"?>
<svg width="960px" height="960px" viewBox="0 0 960 960" version="1.1" xmlns="http://www.w3.org/2000/svg" xmlns:xlink="http://www.w3.org/1999/xlink">
    <title>com.ikea/drivers/badring/assets/pair</title>
    <style type="text/css">
        #pair {
            animation: fillpulse 4s infinite;
        }
        
        @keyframes fillpulse {
            0%, 15%, 35%, 55%, 75%, 100% {
                fill: rgba(255,255,255,0);
            }
            25%, 45%, 65%, 85% {
                fill: #0078CC;
            }
        }
    </style>
    <g id="com.ikea/drivers/badring" stroke="none" stroke-width="1" fill="none" fill-rule="evenodd">
        <path d="M362,27 L598,27 C678.633573,27 744,92.3664265 744,173 L744,786 C744,866.633573 678.633573,932 598,932 L362,932 C281.366427,932 216,866.633573 216,786 L216,173 C216,92.3664265 281.366427,27 362,27 Z M598,47 L362,47 C292.412122,47 236,103.412122 236,173 L236,786 C236,855.587878 292.412122,912 362,912 L598,912 C667.587878,912 724,855.587878 724,786 L724,173 C724,103.412122 667.587878,47 598,47 Z" id="Rectangle" fill="#000000" fill-rule="nonzero"></path>
        <path d="M598,62 C627.835444,62 655.809904,73.8321987 676.488853,94.5111473 C697.167801,115.190096 709,143.164556 709,173 L709,786 C709,815.835444 697.167801,843.809904 676.488853,864.488853 C655.809904,885.167801 627.835444,897 598,897 L362,897 C332.164556,897 304.190096,885.167801 283.511147,864.488853 C262.832199,843.809904 251,815.835444 251,786 L251,173 C251,143.164556 262.832199,115.190096 283.511147,94.5111473 C304.190096,73.8321987 332.164556,62 362,62 L598,62 Z M598,72 L362,72 C334.843981,72 309.404391,82.7600393 290.582215,101.582215 C271.760039,120.404391 261,145.843981 261,173 L261,786 C261,813.156019 271.760039,838.595609 290.582215,857.417785 C309.404391,876.239961 334.843981,887 362,887 L598,887 C625.156019,887 650.595609,876.239961 669.417785,857.417785 C688.239961,838.595609 699,813.156019 699,786 L699,173 C699,145.843981 688.239961,120.404391 669.417785,101.582215 C650.595609,82.7600393 625.156019,72 598,72 Z" id="Rectangle" fill="#000000" fill-rule="nonzero"></path>
        <path d="M601.847826,102 C621.474721,102 639.891084,109.543482 653.517057,122.739161 C667.174211,135.965037 675,153.882998 675,173 L675,786 C675,805.117002 667.174211,823.034963 653.517057,836.260839 C639.891084,849.456518 621.474721,857 601.847826,857 L358.152174,857 C338.525279,857 320.108916,849.456518 306.482943,836.260839 C292.825789,823.034963 285,805.117002 285,786 L285,173 C285,153.882998 292.825789,135.965037 306.482943,122.739161 C320.108916,109.543482 338.525279,102 358.152174,102 L601.847826,102 Z M601.847826,112 L358.152174,112 C341.13669,112 325.210755,118.523384 313.439676,129.922744 C301.699778,141.291908 295,156.631751 295,173 L295,786 C295,802.368249 301.699778,817.708092 313.439676,829.077256 C325.210755,840.476616 341.13669,847 358.152174,847 L601.847826,847 C618.86331,847 634.789245,840.476616 646.560324,829.077256 C658.300222,817.708092 665,802.368249 665,786 L665,173 C665,156.631751 658.300222,141.291908 646.560324,129.922744 C634.789245,118.523384 618.86331,112 601.847826,112 Z" id="Rectangle" fill="#000000" fill-rule="nonzero"></path>
        <circle id="pair" fill="#0074CC" cx="384.5" cy="641.5" r="43.5"></circle>
        <path d="M384.5,593 C411.28581,593 433,614.71419 433,641.5 C433,668.28581 411.28581,690 384.5,690 C357.71419,690 336,668.28581 336,641.5 C336,614.71419 357.71419,593 384.5,593 Z M384.5,603 C363.237037,603 346,620.237037 346,641.5 C346,662.762963 363.237037,680 384.5,680 C405.762963,680 423,662.762963 423,641.5 C423,620.237037 405.762963,603 384.5,603 Z" id="Oval" fill="#000000" fill-rule="nonzero"></path>
        <path d="M594,179 C607.554457,179 619.155186,188.03454 622.807791,200.597554 L622.921,201 L640,201 C649.830669,201 657.820682,208.880783 657.997024,218.669335 L658,219 L658,747 C658,756.941125 649.941125,765 640,765 L523,765 C513.058875,765 505,756.941125 505,747 L505,559 L469,559 C427.446095,559 393.681322,525.650766 393.010182,484.256799 L393,483 C393,441.026359 427.026359,407 469,407 L505,407 L505,219 C505,209.169331 512.880783,201.179318 522.669492,201.002976 L523.000162,201 L539.078,201 L539.192209,200.597554 C542.803774,188.175697 554.185856,179.203469 567.543857,179 L568,179 L594,179 Z M594,189 L568,189 C557.848564,189 549.336911,196.606416 548.142711,206.594254 C547.842126,209.108232 545.709794,211.000737 543.17791,211.000654 L523,211 C518.581722,211 515,214.581722 515,219 L515,412 C515,414.761424 512.761424,417 510,417 L469,417 C432.549207,417 403,446.549207 403,483 C403,519.450793 432.549207,549 469,549 L510,549 C512.761424,549 515,551.238576 515,554 L515,747 C515,751.418278 518.581722,755 523,755 L640,755 C644.418278,755 648,751.418278 648,747 L648,219 C648,214.581722 644.418278,211 640.000155,211 L618.822083,211.000654 C616.290201,211.000733 614.157874,209.108229 613.857289,206.594254 C612.663089,196.606416 604.151436,189 594,189 Z" id="Combined-Shape" fill="#000000" fill-rule="nonzero"></path>
        <g id="Group" stroke-linecap="round" stroke-linejoin="round" transform="translate(386, 642) rotate(-300) translate(-386, -642)translate(363.1208, 627.2548)" fill="#000000" fill-rule="nonzero" stroke="#000000" stroke-width="2">
            <path d="M13.091245,27.362078 C10.9155738,28.1365984 8.50679504,27.9816943 6.56423149,27.0522698 C4.5439654,26.1228453 2.91221202,24.4189004 2.1351866,22.2502433 L2.1351866,22.2502433 C1.35816119,20.0815862 1.51356627,17.6805729 2.44599677,15.7442719 C3.37842727,13.7305188 5.0878832,12.104026 7.26355437,11.3295056 C9.67233317,10.4775331 12.081112,9.62556067 14.4898908,8.69613618 C16.6655619,7.92161578 19.0743407,8.07651986 21.0169043,9.00594435 C23.0371704,9.93536883 24.6689237,11.6393137 25.4459492,13.8079709 L25.4459492,13.8079709 L25.4459492,13.8854229 L26.2229746,13.4981627 L27,13.1883545 C26.0675695,10.5549852 24.0473034,8.5412321 21.7162272,7.45690353 C19.3074484,6.37257496 16.5878594,6.14021884 13.945973,7.06964333 C11.5371942,7.92161578 9.12841537,8.77358822 6.71963657,9.70301271 C4.07775015,10.6324372 2.05748406,12.6461903 0.969648477,14.9697515 C-0.118187109,17.2933127 -0.351294735,20.0041341 0.581135767,22.6375035 L0.658838309,22.7924076 C1.59126881,25.425777 3.6115349,27.43953 5.94261116,28.5238586 C8.35138995,29.6081871 11.0709789,29.8405433 13.7128653,28.9111188 L20.9392017,26.2777494 L20.3952839,24.7287086 L13.091245,27.362078 Z" id="Path"></path>
            <path d="M45.1771945,6.85287756 L45.1771945,6.69797348 C44.244764,4.0646041 42.2244979,2.05085105 39.8934216,0.966522477 C37.4846428,-0.117806092 34.7650539,-0.350162214 32.1231674,0.579262274 L24.8968311,3.21263165 L25.4407488,4.76167247 L32.6670852,2.12830309 C34.8427564,1.35378268 37.2515352,1.50868676 39.1940988,2.43811125 C41.2143648,3.36753574 42.8461182,5.07148063 43.6231436,7.24013777 L43.6231436,7.24013777 C44.4001691,9.4087949 44.244764,11.8098082 43.3123335,13.7461092 C42.379903,15.7598622 40.6704471,17.3863551 38.4947759,18.1608755 C36.0859971,19.0903 33.6772183,19.9422724 31.2684395,20.7942449 C29.0927683,21.5687653 26.7616921,21.4138612 24.741426,20.4844367 C22.7211599,19.5550122 21.0894065,17.8510673 20.3123811,15.6824102 L20.3123811,15.6824102 L20.3123811,15.6049582 L19.5353557,15.9922184 L18.7583302,16.3020265 C19.6907608,18.9353959 21.7110268,20.949149 24.0421031,22.0334775 C26.4508819,23.1178061 29.1704709,23.3501622 31.8123573,22.4207377 L39.0386937,19.7873683 C41.6805801,18.8579439 43.7008462,16.8441908 44.7886818,14.5206296 C45.8765174,12.1196163 46.109625,9.4087949 45.1771945,6.85287756 Z" id="Path"></path>
        </g>
    </g>
</svg>