<svg height="960" viewBox="0 0 960 960" width="960" xmlns="http://www.w3.org/2000/svg"><g fill="#000" fill-rule="evenodd"><path d="m400.965394 76.5021465 1.224342.0097691 253.407329 3.4382202c23.23718.3153499 42.184417 18.6339992 43.347447 41.7851322l.022069.502282.015754.50252.014522.704573.003143.500759.001 92.051598.442667.896903c11.796978 24.102194 18.214689 51.015892 18.54596 78.855693l.010373 1.176875v1.073529c0 28.252014-6.268821 55.605702-18.06825 80.100929l-.48802 1.005038-.44273.896033-.001 382.581443c0 21.962122-16.166169 40.451976-37.720764 43.550076l-.654807.089158-.664703.080418-.499082.053417-.499713.047149-.701224.058585-.499234.034519-95.488473 6.002382-.664234.895485-.109868.149162-.327562.446521-.858529 1.183627-.211233.294292-.209874.293645-.825916 1.1681-.804209 1.157707-.197664.287799-.196309.287147-.7717 1.142057-.750062 1.131584-.184138.281255-.182787.280599-.717659 1.115813-.176043.277306-.174696.276645-.685317 1.09997-.167964.273337-.16662.272674-.653038 1.084054-.159902.269351-.158559.268684-.620822 1.068066-.302368.530022-.297012.527344-.577965 1.046634c-1.446532 2.655207-2.684465 5.205425-3.715881 7.648245l-.336159.810292-.37592.943073c-2.049263 5.258653-3.101782 9.994869-3.179714 14.183006l-.004675.499944-.000184 1.913496c.14278.628282.226623 1.279642.245268 1.948161.024037.861858-.06171 1.701284-.244553 2.504862l-.000531 49.857075c0 1.811102-.029442 3.584398-.08957 5.331712l-.050869 1.305799-.070159 1.440809c-.217832 4.042035-.60812 7.975453-1.186925 11.952874l-.22592 1.493894-.230503 1.420694-.060149.356181-.061164.356631-.254849 1.431507-.27128 1.440616-.21434 1.087355-.22374 1.093976-.313058 1.470042-.162891.740339-.167158.744136-.347201 1.500427-.364513 1.517901-.284841 1.150807-.294736 1.162132-.40849 1.568237-.210938.792572-.215425.798461-.444393 1.615349-.113935.407815-.115074.409453-.471741 1.654675-.120809.418003-.121963.419784-.499449 1.697423-.51812 1.727822-.536952 1.759742-.555943 1.793183-.575096 1.828145-.594407 1.864626-.613879 1.90263-2.811224 8.595938-1.611982 4.971551-1.033952 3.258538-.424994 1.375232-.437013 1.45166-.568392 1.971572-.320735 1.165098-.249224.932411-.252145.964494-.397641 1.552613c-1.309173 5.156763-2.202212 9.83511-2.697379 14.31656l-.088186.83804-.195045 1.9383-.512645 4.97893-.548405 5.16918-.464474 4.27235-.739627 6.63693-.521698 4.5769-.684313 5.89249-.427757 3.6269-.894147 7.4595-.624717 5.1254-1.148346 9.26286-1.218468 9.6364-1.100217 8.55715c-.633596 4.89241-4.734838 8.57705-9.638762 8.71184l-.278419.00383h-57.965051c-5.42924 0-9.847931-4.32668-9.996158-9.7201l-.003842-.2799v-76.84336c0-5.01608-.582091-10.252076-1.734322-16.078662l-.056042-.282521-.055697-.278986-.220716-1.085855-.208342-.992643-.352835-1.60351-.267198-1.151458-.346828-1.425056-.453842-1.772742-.365255-1.372164-.764889-2.773851-1.287107-4.50825-2.872444-9.840329-.787982-2.737103-.502267-1.773021-.48403-1.733693-.465969-1.696117-.448085-1.660293-.430378-1.626219-.412848-1.593898-.395494-1.563327-.378317-1.534507-.361317-1.507441-.087693-.372836-.086645-.371281-.336147-1.470122-.319589-1.447434-.303207-1.426496-.287002-1.40731-.270973-1.389875-.255122-1.374191-.061324-.341303-.060348-.340459-.231675-1.353951-.216265-1.342646-.201033-1.333092-.185975-1.32529c-.357013-2.643947-.624746-5.251591-.809562-7.885982l-.085527-1.319717-.071885-1.325927-.058418-1.333887c-.051744-1.338451-.083555-2.691471-.096226-4.066941l-.00632-1.383245-.000394-61.544986c-.038875-.508238-.038429-1.016332.000004-1.51988l.00039-6.654271-.000319-.293243-.000954-.291672-.010138-1.151004-.020159-1.125991-.030057-1.101086-.009047-.271393-.009656-.269844-.044676-1.06393-.012673-.262129-.01327-.260592-.05902-1.027017-.033047-.504325-.035383-.49822-.077718-.978179-.086884-.953922-.095927-.929773-.104848-.905731-.113648-.881798-.122324-.857972-.130879-.834255-.139311-.810645c-.125552-.699017-.260647-1.371043-.404918-2.016406l-.147316-.636486-.175746-.705738-.090791-.344232-.092716-.338491-.191146-.659815-.048965-.161387-.049434-.159964-.202374-.625656c-.091582-.27303-.185338-.539354-.281218-.799012l-.145407-.384494-.224006-.558067c-.076249-.183287-.153672-.362816-.232247-.538602l-.142864.010323c-14.820546.931647-29.691734-.500759-44.056306-4.240563l-1.103959-.292228-1.18027-.323508-55.924868-15.660913c-18.217559-5.101728-31.112035-21.265528-32.076986-40.119441l-.022892-.511348-.016347-.511598-.018309-.7167v-628.641212c0-21.018844 14.857756-39.0714572 35.426234-43.1566449l.49685-.0954194.498018-.0891276.699152-.1173354.498824-.0763301 63.612834-9.3237587c5.740137-.8413341 11.526281-1.3249485 17.324948-1.4483217l1.449908-.0233368 1.468927-.0077919zm122.541606 791.6070005-9.051541.24293-6.349459.15407.000127 26.462913c0 5.522847-4.477152 10-10 10-5.42924 0-9.847931-4.326671-9.996158-9.720095l-.003842-.279905-.000127-26.014913-7.727249.147996-7.007292.113168-7.010227.09013-5.738896.0507-5.135357.020949-1.603181-.000417-1.242471-.008367-1.221071-.016922-1.19972-.025672-1.178417-.034617-1.157165-.043758-1.135962-.053094c-.187562-.009638-.374244-.019673-.560044-.030109l-1.104248-.067465c-.364567-.024115-.72562-.049868-1.083167-.077291l-1.062135-.08731-1.041153-.097527-1.020219-.107938-.999334-.118545-.9785-.129347c-.484049-.067406-.960303-.138937-1.42879-.214702l-.492402-.083862.001417 47.179548.007355.88276.013746.876918.028407 1.161305.008921.289079.009656.28863.046021 1.150533.058005 1.145353.070179 1.141775c.042405.633623.090536 1.266331.14454 1.899361l.085429.949941.1143 1.14187.030605.285973.031423.286224.133928 1.147918.07195.576122.153988 1.157571.082087.581849.085515.584159.181406 1.176047.09594.592289.099463.595399.209591 1.200932.223971 1.215777.238543 1.232223.061935.310814.062861.311966.26076 1.259898.275812 1.28035.291055 1.302404.306489 1.32606.322117 1.351317.337935 1.378177.353945 1.406639.370147 1.436703.386541 1.468368.610969 2.265429.428365 1.554541.44543 1.591813.462686 1.630688.726806 2.522425 2.383875 8.154786 1.322189 4.587516.879797 3.129392.382568 1.396425.459936 1.723541.411609 1.600371.373091 1.515331.260442 1.10363.305332 1.349669.286998 1.327264.142005.677515.142205.691417.288597 1.438482c1.317352 6.661566 2.03625 12.855096 2.108274 18.944586l.006006 1.01402-.000163 66.84276h39.168l.858369-6.76817.850768-6.80498.653939-5.30139.784077-6.44848.747024-6.25037.57094-4.85763.547224-4.73079.650677-5.7351.372618-3.34591.591381-5.41789.337038-3.15554.53208-5.10058.397247-3.92033c.545743-5.46097 1.552409-11.007167 3.02068-16.965151l.280711-1.122028.51485-2.007257.364201-1.382511.26394-.97532.380234-1.361865.469583-1.616201.531143-1.759584.877205-2.806143 1.703789-5.289882 3.044713-9.311039.576967-1.777443.830619-2.594734.530781-1.684254.512616-1.649441.494627-1.616033.120866-.398954.119756-.396975.467975-1.568561.450426-1.538671.433055-1.510188.10557-.373261.104499-.371591.407329-1.4701.09918-.363569.098125-.362031.382-1.433178.365335-1.410322.348847-1.388872.084655-.344031.08364-.3428.324444-1.359335.308397-1.341403.148235-.664415.284657-1.317141.26905-1.302724.25362-1.289715.238367-1.278112.223291-1.267917.106047-.630574.201006-1.25526.047958-.312717.047046-.312321.179119-1.245769c.310383-2.244757.550493-4.467171.725005-6.704504l.096872-1.344488.075642-1.245791.062594-1.251771c.031183-.697351.056408-1.398123.07581-2.1034l.024754-1.061431.01832-1.283784.004555-.646422.001513-.649675zm-35.401-50.948-53.912442 3.389774c1.781476 6.490267 2.67849 14.14011 2.77644 22.874058l.007127.875549.001898.747944-.000399 2.577729c.262452.08204.546884.16407.853047.24514l.298026.076858c.803729.201891 1.695216.383859 2.672985.54496l.859183.132954c1.320368.191699 2.782666.348456 4.383755.468265l1.087921.074377 1.128836.063296 1.169547.052085 1.21005.04074 1.250346.029264c.211737.003914.425145.007343.640219.010287l1.310403.011801 2.595491-.000934 5.744013-.031051 5.246409-.052036 7.080203-.096152 9.314247-.159804 4.282695-.086104zm48.897154-3.073694-28.945819 1.82017c.023268.235759.038347.473922.044951.714203l.003841.279905-.000127 31.601416 14.844305-.378988.882626-.023475c1.186094-10.371321 5.609345-21.670668 13.170223-34.013231zm121.997846-358.446306-255.081 9.893.000272 316.596951c1.983019.013809 3.967891-.03136 5.951998-.135783l1.018146-.058792 244.360536-15.360959.202461-.017822c1.942296-.220217 3.443575-1.818832 3.541502-3.771118l.005085-.203181zm-340.001-3.962v307.291438l.005261.205944c.083884 1.638969 1.163536 3.062508 2.719165 3.585264l.196895.060604 55.728324 15.606412.983449.270009c1.752073.471443 3.515082.894694 5.287035 1.269543l-.000129-315.794214zm210.870782 110.413979c27.656656 0 49.941541 23.027714 49.941541 51.272925s-22.284885 51.272925-49.941541 51.272925c-27.656655 0-49.94154-23.027714-49.94154-51.272925s22.284885-51.272925 49.94154-51.272925zm0 20c-16.461551 0-29.94154 13.929322-29.94154 31.272925s13.479989 31.272925 29.94154 31.272925c16.461552 0 29.941541-13.929322 29.941541-31.272925s-13.479989-31.272925-29.941541-31.272925zm-126.508888-465.562647c.332615.950605.525722 1.966736.554774 3.023847l.003842.279905-.00051 325.683916 130.644306-5.063689c-68.641913-6.315143-122.420123-66.564914-123.546286-140.099737l-.01802-2.354721c0-78.062601 59.326894-141.715552 133.255321-142.980805l2.244679-.019195h26.5c.18687 0 .372568.005133.556957.015266l.275586.018935.254457.023799 1.256224.040139c32.404826 1.313645 61.651073 15.713305 83.658311 38.483256l-.001535-69.63531-.00511-.203892c-.101789-2.026201-1.712174-3.65859-3.736808-3.787864l-.203803-.007876zm-19.242163 1.30777-61.699815 9.04425-.20133.034718c-1.794954.356503-3.121003 1.891081-3.213432 3.71876l-.005154.204236.000142 300.65289c.531342.000852 1.069149.044261 1.609431.132929l.275587.049128 63.03484 12.130987.00051-323.971916c0-.683512.068575-1.351008.199221-1.995982zm274.883184 284.578928c-17.013224 17.603371-38.352966 30.204214-62.133896 35.623666l61.523564-2.389989c.204296-.007923.407398-.00966.609125-.005378zm-88.175977-225.079608c-4.54167 0-9.017401.318944-13.410602.938086 1.012261.787964 1.853997 1.754853 2.491521 2.840787l17.895687.000042c.471 0 .940689.044367 1.402864.13237l.345125.074171 1.533515.370605 1.489464.366211 1.445507.36186 1.401641.357555 1.35787.353293 1.314192.349076 1.270607.344902 1.227115.340773 1.183716.336687 1.140411.332647 1.0972.32865 1.05408.324697 1.011055.320788.968123.316924.925284.313104.923962.324054.241897.086794.244045.088352.997687.368976 1.032182.393907.263448.102375.265611.103934 1.084117.431342 1.118869.456325 1.153726.481329 1.188686.506353 1.22375.531399 1.258917.556464 1.294187.581552 1.329562.606659 1.365039.631787 1.400621.656937 1.436306.682107c4.503972 2.15166 5.670267 7.999092 2.406505 11.712011l-.175873.193415-7.156557 7.609278.060463.074802c.152859.19259.300323.389055.450063.60322.459484.657175.85522 1.344218 1.206787 2.251683.166689.430257.307535.8741.418067 1.33038l19.327608-2.713402c.402149-.056452.80132-.079895 1.194773-.072393l.184239.005563.106128-.003657c2.069762-.051637 4.153305.747488 5.675912 2.383375l.179984.200322c4.869683 5.614879 9.172247 13.099757 12.992441 22.458666 3.730084 9.138151 6.589975 19.06128 8.586549 29.763646.845857 4.534105-2.558784 8.728366-7.131092 8.871648l-.241709.003781-14.741018-.000032c1.146195 7.31299 1.727758 14.767941 1.727758 22.304664 0 53.391317-29.215718 99.39734-70.987742 118.635685l.949727.005482c52.388292 0 96.002975-42.43762 105.378442-98.543523 1.178809-7.505143 1.79462-15.22556 1.79462-23.106057 0-3.488472-.120673-6.945576-.357627-10.366422-4.859149-61.824993-50.826811-110.296009-106.815435-110.296009zm-49.92706 13.90742-.826219.492414c-33.630128 20.448581-56.489757 60.586468-56.489757 106.756172 0 12.029328 1.551807 23.649191 4.441602 34.61803.305691.206927.598846.439849.877226.697794l.19409.186313 15.312129 15.225276c2.716337 2.700929 2.952438 7.000828.588141 9.978809l-.169171.205585-4.106176 4.815662c.964889 1.68476 1.965793 3.340738 3.00148 4.966543.424425-.090685.859588-.143587 1.304531-.157735l.242731-.003853h14.582212c1.974986 0 3.866024.778788 5.266502 2.160143l.206341.211701 29.1986 31.161174c1.584985 1.691519 2.234633 3.922864 1.969676 6.056465 47.213568-5.861225 84.371137-51.585675 84.371137-107.607069 0-9.298647-1.025189-18.434962-3.029376-27.259974-.226019-.995226-.295043-1.989489-.223392-2.956878l-23.861697-27.843442c-2.444674-2.852588-2.394403-7.059548.078217-9.85087l.185245-.201676 2.859318-3.001985c-.192313-.248463-.374699-.508178-.546231-.778939-1.04818-1.65454-1.772115-2.948627-2.276337-4.160317l-.1387-.347332-.28219-.300315c-.851819-.905463-1.50211-1.927772-1.952561-3.011607l-19.619279-.000443c-2.189168 0-4.263968-.956134-5.685473-2.608625l-.181665-.21947-18.163832-22.809393-.370134-.100275c-6.977675-1.851436-14.160991-2.795143-21.459719-2.795143-1.94552 0-3.761277-.55558-5.297269-1.51674zm-34.867562 1.945567-1.279468.852662c-31.458263 21.233095-52.655706 58.218413-53.711516 100.632143l-.025819 1.286916-.015513 2.037723c0 43.089093 20.787508 80.93439 52.195686 102.89536-24.461819-25.803432-39.611784-62.255791-39.611784-102.401785 0-41.675846 16.32661-79.371184 42.448414-105.303019zm15.809684 196.426591-.850966.826045c2.834629 2.750289 5.797875 5.336163 8.878151 7.744531zm131.327-155.372147-5.989303 6.262839c-1.116243 1.167055-2.577221 1.940531-4.163731 2.210047l-.318911.047152-8.438055 1.062962 15.350338 17.909879c1.540956.319057 2.978139.997945 4.196727 1.964345l10.776935.000776-.146731-.591771c-1.451982-5.754911-3.201354-11.205239-5.246439-16.352386l-.412959-1.025387c-1.723958-4.223442-3.521878-7.925093-5.381052-11.104347zm-56.256-38.129h-9.345l8.105 10.178h21.424l2.824-3.003-.636785-.269062-.300195-.125752-.297163-.123717-1.15828-.474504-.560884-.225027-.548686-.216871-1.060706-.409262c-.345407-.130977-.682644-.25651-1.011686-.376593l-.487412-.176036-.40281-.142566-.77082-.265285-.813446-.270449-.855988-.275571-.898446-.280654-.940817-.285697-.983105-.290699-1.553762-.445342-1.088453-.30303-1.130444-.307893-.289162-.077728-.29178-.078029-1.805579-.474455-1.899486-.485123-1.993107-.495658z" fill-rule="nonzero"/><ellipse cx="529.870782" cy="504.192507" rx="13.548387" ry="14"/><ellipse cx="563.870782" cy="264.192507" rx="13.548387" ry="14"/><ellipse cx="498.367854" cy="341.872815" rx="14.516129" ry="15"/></g></svg>
