<?xml version="1.0" encoding="UTF-8"?>
<svg width="960px" height="960px" enable-background="new 0 0 960 960" version="1.1"
     viewBox="0 0 960 960" xml:space="preserve" xmlns="http://www.w3.org/2000/svg">
  <style type="text/css">
    #pair {
      animation: fillpulse 4s infinite;
    }

    @keyframes fillpulse {
      0%, 15%, 35%, 55%, 75%, 100% {
        fill: rgba(255,255,255,0);
      }
      25%, 45%, 65%, 85% {
        fill: #0078CC;
      }
    }
  </style>
  <circle id="Oval" cx="480" cy="686.78" r="174.75" fill="none" stroke="#000"
          stroke-width="6.4844"/>
  <g transform="matrix(-.44133 -1.1882 1.1882 -.44133 232.51 946.77)">
    <g transform="translate(-28.576 -51.138)">
      <path id="Path"
            d="m453.47 198.07-107.79 36.771c-2.969 7.0352-8.907 12.78-16.717 15.232-14.135 4.4535-29.174-3.2917-33.627-17.298-4.4535-14.006 3.4208-29.044 17.556-33.498 7.8743-2.4526 16.007-1.1618 22.461 2.9044l106.64-35.332"
            fill="none" stroke="#000" stroke-width="3.2272"/>
      <circle id="pair" cx="320.7" cy="224.78" r="20.847" fill="#004dff" stroke-width=".64543"/>
      <circle id="Oval_1_" cx="320.7" cy="224.78" r="19.298" fill="none" stroke="#000"
              stroke-width="4.8407"/>
    </g>
  </g>
  <g transform="matrix(1.2083 .38275 -.38275 1.2083 -15.671 -160.39)" stroke="#000"
     stroke-width="1.2909">
    <path id="Path_1_"
          d="m466.54 400.99c1.4845 1.0327 2.5172 2.6463 2.7754 4.3244 0.32271 1.7427 0 3.5499-1.0327 5.0344-1.0327 1.4845-2.6463 2.5172-4.3244 2.7754-1.7427 0.32272-3.5499-0.0645-5.0344-1.0972-1.6781-1.1618-3.2917-2.3236-4.9698-3.4208-1.4845-1.0327-2.5172-2.6463-2.7754-4.3244-0.32271-1.7427 0-3.5499 1.0327-5.0344l0.0645-0.0645-0.58089-0.32272-0.58089-0.38726c-1.2263 1.8072-1.6136 4.0017-1.2263 6.0025 0.38726 2.0654 1.4845 3.8726 3.2917 5.1634 1.6781 1.1618 3.2917 2.3236 4.9698 3.4208 1.8072 1.2909 4.0017 1.6781 6.0025 1.2909 2.0008-0.38725 3.808-1.42 5.0989-3.2272l0.0645-0.12909c1.2263-1.8072 1.6136-4.0017 1.2263-6.0025-0.38726-2.0654-1.4845-3.8726-3.2917-5.1634l-4.9698-3.4208-0.70998 1.0327z"/>
    <path id="Path_2_"
          d="m438.59 389.82-0.12909 0.0645c-1.2263 1.8072-1.6136 4.0017-1.2263 6.0025 0.38726 2.0654 1.549 3.8726 3.3562 5.1634l5.0344 3.4208 0.70998-1.0327-5.0344-3.4208c-1.4845-1.0327-2.5172-2.6463-2.7754-4.3244-0.32271-1.7427 0-3.5499 1.0327-5.0344s2.6463-2.5172 4.3244-2.7754c1.7427-0.32272 3.5499 0 5.0344 1.0327 1.6781 1.0972 3.3562 2.259 5.0344 3.4208 1.4845 1.0327 2.4526 2.5817 2.7754 4.3244 0.32271 1.7427 0 3.5499-1.0327 5.0344l-0.0645 0.0645 0.58089 0.32271 0.58089 0.38726c1.2263-1.8072 1.6136-4.0017 1.2263-6.0025-0.38726-2.0654-1.549-3.8726-3.3562-5.1635l-5.0344-3.4208c-1.8072-1.2909-4.0017-1.6136-6.0025-1.2909-2.0008 0.32272-3.8726 1.42-5.0344 3.2272z"/>
  </g>
  <circle cx="480" cy="480" r="450" fill="none" stroke="#000" stroke-width="10"/>
  <circle cx="480" cy="480" r="410" fill="none" stroke="#000" stroke-width="10"/>
</svg>
